<mxfile host="app.diagrams.net" modified="2024-03-11T04:44:45.934Z" agent="Mozilla/5.0 (Macintosh; Intel Mac OS X 10_15_7) AppleWebKit/537.36 (KHTML, like Gecko) Chrome/121.0.0.0 Safari/537.36" etag="tbWoUVhjG9b8kTvr5vEX" version="24.0.3" type="device">
  <diagram name="Page-1" id="5348f1db-0dfa-24cf-5d06-2057accb5106">
    <mxGraphModel dx="968" dy="566" grid="1" gridSize="10" guides="1" tooltips="1" connect="1" arrows="1" fold="1" page="1" pageScale="1.5" pageWidth="826" pageHeight="1169" background="#ffffff" math="0" shadow="0">
      <root>
        <mxCell id="0" style=";html=1;" />
        <mxCell id="1" style=";html=1;" parent="0" />
        <mxCell id="55dd390204d0f602-3" value="" style="whiteSpace=wrap;html=1;rounded=0;shadow=0;dashed=0;strokeColor=#6C8EBF;strokeWidth=4;fillColor=#f5f5f5;fontFamily=Helvetica;fontSize=100;align=center;fontColor=#333333;" parent="1" vertex="1">
          <mxGeometry x="200" y="270" width="880" height="340" as="geometry" />
        </mxCell>
        <mxCell id="55dd390204d0f602-1" value="&lt;p style=&quot;line-height: 30%;&quot;&gt;&lt;font style=&quot;font-size: 36px;&quot; color=&quot;#336791&quot;&gt;MACHINE LEARNING PROJECT&lt;span style=&quot;background-color: initial;&quot;&gt;:&amp;nbsp;&lt;br&gt;&lt;/span&gt;&lt;span style=&quot;background-color: initial;&quot;&gt;CREDIT CARD LEAD PREDICTION MODEL&lt;/span&gt;&lt;/font&gt;&lt;/p&gt;" style="whiteSpace=wrap;html=1;rounded=0;shadow=0;dashed=0;strokeColor=#6c8ebf;strokeWidth=4;fillColor=#dae8fc;fontFamily=Helvetica;fontSize=100;align=center;" parent="1" vertex="1">
          <mxGeometry x="200" y="160" width="880" height="130" as="geometry" />
        </mxCell>
        <mxCell id="r9MuSok-HegsRGv17X6z-6" value="" style="edgeStyle=orthogonalEdgeStyle;rounded=0;orthogonalLoop=1;jettySize=auto;html=1;entryX=0;entryY=0.5;entryDx=0;entryDy=0;strokeWidth=2;exitX=1;exitY=0.5;exitDx=0;exitDy=0;" parent="1" source="6JaRcq2dVbDghGMQPrxV-32" target="6JaRcq2dVbDghGMQPrxV-30" edge="1">
          <mxGeometry relative="1" as="geometry">
            <mxPoint x="315" y="431" as="sourcePoint" />
            <mxPoint x="379.3499999999999" y="431" as="targetPoint" />
          </mxGeometry>
        </mxCell>
        <mxCell id="r9MuSok-HegsRGv17X6z-14" style="edgeStyle=orthogonalEdgeStyle;rounded=0;orthogonalLoop=1;jettySize=auto;html=1;exitX=1;exitY=0.5;exitDx=0;exitDy=0;entryX=0;entryY=0.5;entryDx=0;entryDy=0;strokeWidth=2;" parent="1" source="6JaRcq2dVbDghGMQPrxV-30" target="6JaRcq2dVbDghGMQPrxV-10" edge="1">
          <mxGeometry relative="1" as="geometry">
            <mxPoint x="560" y="474.5" as="targetPoint" />
            <mxPoint x="468.02" y="431" as="sourcePoint" />
          </mxGeometry>
        </mxCell>
        <mxCell id="r9MuSok-HegsRGv17X6z-15" style="edgeStyle=orthogonalEdgeStyle;rounded=0;orthogonalLoop=1;jettySize=auto;html=1;entryX=0;entryY=0.5;entryDx=0;entryDy=0;strokeWidth=2;" parent="1" target="6JaRcq2dVbDghGMQPrxV-8" edge="1">
          <mxGeometry relative="1" as="geometry">
            <mxPoint x="460" y="432" as="sourcePoint" />
            <mxPoint x="560" y="391.5" as="targetPoint" />
          </mxGeometry>
        </mxCell>
        <mxCell id="r9MuSok-HegsRGv17X6z-16" value="" style="shape=image;verticalLabelPosition=bottom;verticalAlign=top;imageAspect=0;aspect=fixed;image=data:image/svg+xml,PHN2ZyB4bWxuczp4bGluaz0iaHR0cDovL3d3dy53My5vcmcvMTk5OS94bGluayIgeG1sbnM9Imh0dHA6Ly93d3cudzMub3JnLzIwMDAvc3ZnIiB3aWR0aD0iMjU1LjM4Mzg4MDYxNTIzNDM4IiB2aWV3Qm94PSIwLjE0NDUzODg3OTM5NDUzMTI1IDAuMDcyMjc1NTU2NjIzOTM1NyAyNTUuMzgzODgwNjE1MjM0MzggMjU0LjA1NDAwMDg1NDQ5MjIiIHByZXNlcnZlQXNwZWN0UmF0aW89InhNaWRZTWlkIiBoZWlnaHQ9IjI1NC4wNTQwMDA4NTQ0OTIyIj48bGluZWFyR3JhZGllbnQgeTI9Ijc4LjIwMDg1NCUiIHkxPSIxMi4wMzkzOTMlIiB4Mj0iNzkuNjM4ODMzJSIgeDE9IjEyLjk1OTM1OSUiIGlkPSJhIj48c3RvcCBzdG9wLWNvbG9yPSIjMzg3ZWI4IiBvZmZzZXQ9IjAiLz48c3RvcCBzdG9wLWNvbG9yPSIjMzY2OTk0IiBvZmZzZXQ9IjEiLz48L2xpbmVhckdyYWRpZW50PjxsaW5lYXJHcmFkaWVudCB5Mj0iODguNDI5MDM3JSIgeTE9IjIwLjU3OTE4MSUiIHgyPSI5MC43NDE1MzMlIiB4MT0iMTkuMTI3NTI1JSIgaWQ9ImIiPjxzdG9wIHN0b3AtY29sb3I9IiNmZmUwNTIiIG9mZnNldD0iMCIvPjxzdG9wIHN0b3AtY29sb3I9IiNmZmMzMzEiIG9mZnNldD0iMSIvPjwvbGluZWFyR3JhZGllbnQ+PHBhdGggZmlsbD0idXJsKCNhKSIgZD0ibTEyNi45MTU4NjYuMDcyMjc1NTVjLTY0LjgzMjI4MjkuMDAwMDA0NjItNjAuNzgzNzM3MiAyOC4xMTUxODkyNS02MC43ODM3MzcyIDI4LjExNTE4OTI1bC4wNzIyNzU1IDI5LjEyNzA0NjdoNjEuODY3ODcxN3Y4Ljc0NTM0MTdoLTg2LjQ0MTU1ODlzLTQxLjQ4NjE2Ni00LjcwNDkwOTQtNDEuNDg2MTY2IDYwLjcxMTQ2MThjLS4wMDAwMDQ2MyA2NS40MTYzNTggMzYuMjEwMDUwOCA2My4wOTY1NTYgMzYuMjEwMDUwOCA2My4wOTY1NTZoMjEuNjEwMzg5NnYtMzAuMzU1NzMxcy0xLjE2NDg1NTItMzYuMjEwMDUxIDM1LjYzMTg0NjQtMzYuMjEwMDUxaDYxLjM2MTk0MjFzMzQuNDc1NDM4LjU1NzI5NyAzNC40NzU0MzgtMzMuMzE5MDI4NnYtNTYuMDEzNTUxNmMwLS4wMDAwMDQ3IDUuMjM0MzIzLTMzLjg5NzIzMzI1LTYyLjUxODM1Mi0zMy44OTcyMzMyNXptLTM0LjExNDA1OTEgMTkuNTg2Njc0MTVjNi4xNTUzOTk5LS4wMDAwMDQ1IDExLjEzMDQzNTEgNC45NzUwMzQ5IDExLjEzMDQzNTEgMTEuMTMwNDM0OC4wMDAwMDQgNi4xNTUzOTk5LTQuOTc1MDM1MiAxMS4xMzA0MzQ4LTExLjEzMDQzNTEgMTEuMTMwNDM0OC02LjE1NTM5OTkuMDAwMDA0Ni0xMS4xMzA0MzQ4LTQuOTc1MDM0OS0xMS4xMzA0MzQ4LTExLjEzMDQzNDgtLjAwMDAwNDctNi4xNTUzOTk5IDQuOTc1MDM0OS0xMS4xMzA0MzQ4IDExLjEzMDQzNDgtMTEuMTMwNDM0OHoiLz48cGF0aCBmaWxsPSJ1cmwoI2IpIiBkPSJtMTI4Ljc1NzEwMSAyNTQuMTI2MjcxYzY0LjgzMjMwMiAwIDYwLjc4MzczOC0yOC4xMTUxOSA2MC43ODM3MzgtMjguMTE1MTlsLS4wNzIyNzUtMjkuMTI3MDQ2aC02MS44Njc4NzJ2LTguNzQ1MzQyaDg2LjQ0MTU1OXM0MS40ODYxNjYgNC43MDQ4OTYgNDEuNDg2MTY2LTYwLjcxMTQ4NWMuMDAwMDIzLTY1LjQxNjM1MTQtMzYuMjEwMDUxLTYzLjA5NjU0OTEtMzYuMjEwMDUxLTYzLjA5NjU0OTFoLTIxLjYxMDM5djMwLjM1NTcyNDNzMS4xNjQ4NzQgMzYuMjEwMDUwOC0zNS42MzE4NDYgMzYuMjEwMDUwOGgtNjEuMzYxOTQ4cy0zNC40NzU0MzctLjU1NzI5Ni0zNC40NzU0MzcgMzMuMzE5MDUydjU2LjAxMzU1MnMtNS4yMzQzMjI1IDMzLjg5NzIzMyA2Mi41MTgzNTYgMzMuODk3MjMzem0zNC4xMTQwNTktMTkuNTg2Njc0Yy02LjE1NTQwMSAwLTExLjEzMDQzNC00Ljk3NTAzMy0xMS4xMzA0MzQtMTEuMTMwNDM1IDAtNi4xNTU0MDMgNC45NzUwMzMtMTEuMTMwNDM1IDExLjEzMDQzNC0xMS4xMzA0MzUgNi4xNTU0MDMgMCAxMS4xMzA0MzUgNC45NzUwMzIgMTEuMTMwNDM1IDExLjEzMDQzNS4wMDAwMjMgNi4xNTU0MDItNC45NzUwMzIgMTEuMTMwNDM1LTExLjEzMDQzNSAxMS4xMzA0MzV6Ii8+PC9zdmc+" parent="1" vertex="1">
          <mxGeometry x="480" y="514.0000000000002" width="56.47" height="56.25" as="geometry" />
        </mxCell>
        <mxCell id="r9MuSok-HegsRGv17X6z-17" value="" style="shape=image;verticalLabelPosition=bottom;verticalAlign=top;imageAspect=0;aspect=fixed;image=data:image/svg+xml,PHN2ZyB4bWxucz0iaHR0cDovL3d3dy53My5vcmcvMjAwMC9zdmciIHdpZHRoPSIyNTUuMzA0OTMxNjQwNjI1IiB2aWV3Qm94PSIwLjE0NTgwNTUzNzcwMDY1MzA4IC0wLjAwMDAwMTIxMDcxOTM0NzAwMDEyMiAyNTUuMzA0OTMxNjQwNjI1IDI5OS4xMzEwNDI0ODA0Njg3NSIgcHJlc2VydmVBc3BlY3RSYXRpbz0ieE1pZFlNaWQiIGhlaWdodD0iMjk5LjEzMTA0MjQ4MDQ2ODc1Ij48cGF0aCBmaWxsPSIjNGU0ZTRlIiBkPSJtMTAuNTgzODMwNyAxNTYuNDA5NjU2di0uMjEzMDEtMzIuNTM5MDE5aDcuMTM2MjIydjM1LjI1NTAzYy4zMzE1NjgxIDIuODQxMjY5LjA4NzUxMjkgNS43MjAyMjMtLjcxNzY4OTggOC40NjUxMjctLjgwNTE0MjkgMi43NDQ5MDMtMi4xNTQ5MjM3IDUuMjk5NDY3LTMuOTY4NzY4MyA3LjUxMTQ1Ni0zLjM3MTEzMjEgMi45MDc4NDYtNy42OTA2MTAwOSA0LjQ4MDMyOC0xMi4xNDIyMTI4OCA0LjQyMDE1MWwtLjc0NTU3NjY4LTUuMzI1NDg4YzIuODcxMzgxMjQuMDAxNjE1IDUuNjQxNDk3NTEtMS4wNjA5MjIgNy43NzUyNTE4MS0yLjk4MjMxOCAxLjkxNzIwOTE0LTIuMjM2Njk1IDIuNjYyNzczODUtNS4yNzIyNTEgMi42NjI3NzM4NS0xNC41OTE5Mjl6bTUzLjIxOTk0NTYtNC4yMDA2MjFjMCAzLjk5NDEzMSAwIDcuNTYyMjQyLjMxOTQ4NSAxMC42NTEwMzZoLTYuMzM3MzU5OWwtLjQyNjAxOTktNi4zMzczNmMtMS4zMjU1NTQ3IDIuMjQyMzE3LTMuMjIxMjI5NiA0LjA5MzYwNy01LjQ5NDIzMjkgNS4zNjU3NDUtMi4yNzMwNjMyIDEuMjcyMTM3LTQuODQyNDAyMiAxLjkxOTc4MS03LjQ0Njg1NCAxLjg3Njk1Mi02LjE3NzU4NzUgMC0xMy41MjY4MTk0LTMuMzU1MDQyLTEzLjUyNjgxOTQtMTcuMDQxNjkzdi0yMi43Mzk5OTRoNy4xMzYyMjJ2MjEuMzAyMTAyYzAgNy40MDI1MjkgMi4yODk5OTE1IDEyLjM1NTIzNSA4LjczMzg4NjIgMTIuMzU1MjM1IDEuMzI1NzM0Mi4wMTQyOTYgMi42NDA5NDA1LS4yMzYzMzkgMy44Njg1NzQxLS43MzcxMzEgMS4yMjc2MzM2LS41MDA3OTEgMi4zNDI4NzAxLTEuMjQxNjMxIDMuMjgwMzg5LTIuMTc5MTUuOTM3NDU5MS0uOTM3NDU5IDEuNjc4MzU4MS0yLjA1Mjc1NSAyLjE3OTE0OTgtMy4yODAzMjkuNTAwNzMxOS0xLjIyNzYzMy43NTEzNjctMi41NDI4OTkuNzM3MTMwNS0zLjg2ODYzNHYtMjMuODU4MzdoNy4xMzYxNjIxdjI4LjI3ODU4MXptMTMuNTI2OTg1Ny0xNS41NTUyMjljMC00Ljk1Mjc2NiAwLTkuMDAwMTU4LS4zMTk1MzE2LTEyLjY3NDc3NGg2LjM5MDY1NzJsLjMxOTQ4NSA2LjY1Njg5OWMxLjQyMzgzNDgtMi40MDUwNTEgMy40NzM1OTk1LTQuMzc4Njc0IDUuOTMwNzgwNy01LjcxMDQ0OSAyLjQ1NzI0MTEtMS4zMzE3NzMgNS4yMjk3OC0xLjk3MTc3OSA4LjAyMjExODUtMS44NTE3ODcgOS40Nzk0NTEyIDAgMTYuNjE1NjczMiA3LjkzNTAxOCAxNi42MTU2NzMyIDE5Ljc1NzY5OCAwIDEzLjk1Mjg5OS04LjU3NDExNCAyMC44NzYxMTEtMTcuODQwNTU1MiAyMC44NzYxMTEtMi4zNzE3MDIxLjEwNTgxNy00LjczMDYwMzMtLjQwMjI3Mi02Ljg0ODQ0MDItMS40NzUxNTgtMi4xMTc4MzY5LTEuMDcyOTQ1LTMuOTIyODg4My0yLjY3NDMxOC01LjI0MDQ4NzMtNC42NDkxOTJ2MjEuMzAyMDcyaC03LjAyOTcwMDN2LTQyLjA3MTY0OHptNy4wMjk3MDAzIDEwLjM4NDc4OGMuMDE5MzIxLjk2NjI5MS4xMjYyNzQ2IDEuOTI4ODE0LjMxOTU0NDggMi44NzU3ODQuNjA0MjE2MSAyLjM2NDY0MyAxLjk3OTcxODQgNC40NjAyODggMy45MDg3NzE0IDUuOTU1MzA1IDEuOTI5MTEyOCAxLjQ5NTA3OCA0LjMwMTY1MjQgMi4zMDQxNjkgNi43NDIyNjQyIDIuMjk5MjY0IDcuNTA5MDA0MyAwIDExLjkyOTIxNTMtNi4xMjQzNSAxMS45MjkyMTUzLTE1LjAxODAwOSAwLTcuNzc1MjUyLTQuMTUzOTA0LTE0LjQzMjE4LTExLjY2MjkwOC0xNC40MzIxOC0yLjk3MTYxMTMuMjQzMzQzLTUuNzUyNDA1IDEuNTYyMjE2LTcuODIxMDcxOSAzLjcwOTMwNC0yLjA2ODY2NyAyLjE0NzA4Ny0zLjI4MzE0MDcgNC45NzUwMTctMy40MTU4MTU4IDcuOTUzNjI3em00Mi42NDQwNDA3LTIzLjA5NTAwNCA4LjU3NDExNCAyMi45NTMwNTdjLjkwNTMzNyAyLjU1NjIzOSAxLjg2MzkxMiA1LjY0NTAzMyAyLjUwMzAwMSA3LjkzNTAyNC43NDU1NjUtMi4zNDMyMjkgMS41NDQzNjctNS4zMjU1NDcgMi41MDMwMDItOC4wOTQ3OTZsNy43NzUyNTItMjIuNzkzMjg1aDcuNTA5MDA0bC0xMC42NTEwMzYgMjcuNjkyNzUzYy01LjMyNTU0NyAxMy4zMTM4MDktOC41NzQxMTQgMjAuMTgzNzg0LTEzLjQ3MzY0MSAyNC4zMzc2ODctMi40Njc3NjkgMi4yNTQwNDEtNS40NzY0MDggMy44MzE3MjYtOC43MzM4NDUgNC41Nzk5MjNsLTEuNzU3NDI1LTUuOTY0NTc3YzIuMjc3NjUyLS43NDgzNzcgNC4zOTIxNjMtMS45MjMwNzIgNi4yMzA4OTEtMy40NjE1NzcgMi41OTgwNTItMi4xMTcyOTggNC42NTk4NC00LjgxNzY5NyA2LjAxNzgxNS03Ljg4MTc4Ni4yOTA2NTMtLjUzMDY0MS40ODg3NjktMS4xMDY5ODIuNTg1NzkzLTEuNzA0MTk5LS4wNjA1MzYtLjY0MjY3OS0uMjIyMjgyLTEuMjcxNzItLjQ3OTI1OC0xLjg2MzkxMmwtMTQuNDg1NDU0LTM1Ljg0MDgyM2g3Ljc3NTI1MnptNDcuODA5MDM4LTExLjE3MjczOXYxMS4xODM1OWgxMC4yMjUwMTZ2NS4zMjU1NDhoLTEwLjIyNTAxNnYyMC45ODI1ODZjMCA0Ljc5Mjk5MyAxLjM4NDY1NSA3LjU2MjI0MiA1LjMyNTU0OCA3LjU2MjI0MiAxLjM5OTY2OS4wMjI5MSAyLjc5NjIyNy0uMTM4MjM4IDQuMTUzOTAzLS40NzkyNThsLjMxOTU0NSA1LjMyNTQ4OGMtMi4wMzU4MjcuNzA1MzA4LTQuMTg0MDUxIDEuMDMwMjM2LTYuMzM3NDE5Ljk1ODYzNS0xLjQyNjA0OS4wODkyNDctMi44NTQ1NDktLjEzMTA2LTQuMTg3NDYxLS42NDU4NDktMS4zMzI5MTMtLjUxNDc4OS0yLjUzODY1My0xLjMxMTg1Ny0zLjUzNDU1NC0yLjMzNjQ3LTIuMTY5MjItMi45MDEzODYtMy4xNTg3NDQtNi41MTY4NzItMi43NjkyNDktMTAuMTE4NDgxdi0yMS4zMDIxMzFoLTYuMDcxMTEydi01LjMyNTU0N2g2LjE3NzU4N3YtOS40Nzk0NHptMjMuMzcwODU4IDMxLjg3NjY2Yy0uMTQ0NTE5IDEuODA2MTI4LjEwNDggMy42MjIwNjYuNzMwNzkgNS4zMjIzNzdzMS42MTM2OTUgMy4yNDQzNzkgMi44OTQ5MjUgNC41MjU1NDljMS4yODExNzEgMS4yODEyMyAyLjgyNTIzOCAyLjI2ODkzNiA0LjUyNTU1IDIuODk0OTI2IDEuNzAwMzExLjYyNTk4OSAzLjUxNjI0OS44NzUzMDkgNS4zMjIzNzcuNzMwNzkgMy42NTMxMTIuMDgxNzEgNy4yODI0MTYtLjYwNzg2NSAxMC42NTEwMzYtMi4wMjM3NDRsMS4yMjQ4ODEgNS4zMjU1NDdjLTQuMTMzNjg0IDEuNzAyNzY0LTguNTc4NiAyLjUxOTIxMi0xMy4wNDc1NjIgMi4zOTY0NjctMi42MDUyODkuMTc4Mzc1LTUuMjE4Mjk1LS4yMDg4ODMtNy42NTk4MDQtMS4xMzUyNzYtMi40NDE1NjktLjkyNjMzMy00LjY1Mzc5Ny0yLjM2OTg0Ny02LjQ4NTEwMy00LjIzMTQyNi0xLjgzMTI2OS0xLjg2MTYzOS0zLjIzODIwNS00LjA5NzM3Ni00LjEyNDI5My02LjU1Mzc4LS44ODYwOTItMi40NTY0NjMtMS4yMzAzNjktNS4wNzU0NTEtMS4wMDkyMTgtNy42Nzc0NSAwLTExLjcxNjE0NSA2Ljk3NjQyMS0yMC45ODI1ODYgMTguMzczMDgxLTIwLjk4MjU4NiAxMi43ODEyNTUgMCAxNS45NzY1ODQgMTEuMTgzNTkgMTUuOTc2NTg0IDE4LjMxOTgxMi4wNjgzMTEgMS4wOTk1NjQuMDY4MzExIDIuMjAyMjk5IDAgMy4zMDE4NjRoLTI3LjUzMjk1NnptMjAuODc2MTExLTUuMzI1NDg4Yy4yMDU1MzMtMS40MjM4MzUuMTAzNDg1LTIuODc1MTI2LS4yOTkzMjYtNC4yNTYxMzEtLjQwMjc1MS0xLjM4MTAwNi0xLjA5Njg3My0yLjY1OTY2NC0yLjAzNTUyOC0zLjc0OTc3Ny0uOTM4NzE1LTEuMDkwMDUzLTIuMTAwMTMxLTEuOTY2MjU5LTMuNDA2MDY2LTIuNTY5NTU0LTEuMzA1OTM0LS42MDMyODMtMi43MjYwNi0uOTE5NjIyLTQuMTY0NTUxLS45Mjc2OTctMi45MjYwOS4yMTE4MDEtNS42Njc1MjQgMS41MDg3MzktNy42ODcwOCAzLjYzNjY4NS0yLjAxOTU1NyAyLjEyNzg4Ny0zLjE3MTU4MiA0LjkzMzMyNS0zLjIzMDI2MiA3Ljg2NjQ3NHptMTcuMzI0ODU2LTMuMjY4NTQ1YzAtNC41Nzk5MjMgMC04LjUyMDg0MS0uMzE5NTMyLTEyLjE0MjIwMWg2LjM5MDY1OHY3LjYxNTUxNWguMzE5NDg1Yy42NzA3OTItMi4zNTA0NjcgMi4wNTY3MDMtNC40MzM3NjUgMy45NjUzNTgtNS45NjA2OTUgMS45MDg2NTUtMS41MjY5MzYgNC4yNDUzNjQtMi40MjE3MjggNi42ODU3MzctMi41NjAxNTkuNjcxNjktLjA4ODE2MSAxLjM1MTk5NC0uMDg4MTYxIDIuMDIzNjg0IDB2Ni42NTY5NDJjLS44MTM4NzYtLjA5NDI3Mi0xLjYzNTg4OC0uMDk0MjcyLTIuNDQ5NzY0IDAtMi40MTc0NjIuMDkzNjE1LTQuNzE4MjIxIDEuMDY0MDkzLTYuNDcyNDg3IDIuNzMwMTg4LTEuNzU0MjY3IDEuNjY2MDM2LTIuODQyMDQ3IDMuOTEzNjc3LTMuMDYwMjAxIDYuMzIzMTg0LS4xOTkxMzMgMS4wODk2OTQtLjMwNjAyNiAyLjE5NDIyMy0uMzE5NDg1IDMuMzAxODAzdjIwLjcxNjMzOWgtNy4wMjk3Mjl2LTI2LjYyNzY3OXoiLz48cGF0aCBmaWxsPSIjNzY3Njc3IiBkPSJtMjMzLjI1Nzk0MyAxNi45NjIxMzU3Yy4yMTg2OTMgMy41Nzc3NDE2LS42MzI1MDkgNy4xMzk1NzE4LTIuNDQ1Mjc3IDEwLjIzMTc3NTEtMS44MTI3NjggMy4wOTIyNjMyLTQuNTA0OTEyIDUuNTc0ODY2OS03LjczMzYxOSA3LjEzMTY3NTktMy4yMjg3MDcgMS41NTY3NDkxLTYuODQ3NzIzIDIuMTE3MTc4OC0xMC4zOTYwMzQgMS42MDk5MjY5LTMuNTQ4MzExLS41MDczMTE5LTYuODY1MzA5LTIuMDU5MzM1NS05LjUyODQ1NC00LjQ1ODQzNC0yLjY2MzEzOC0yLjM5OTAzODctNC41NTE4NTYtNS41MzY1ODM3LTUuNDI1NTQ2LTkuMDEyODc0OXMtLjY5MjgwNC03LjEzNDAwODcuNTE5NjEyLTEwLjUwNzExNDggMy40MDE0ODQtNi4zMDkwMDA0NiA2LjI4ODMyOC04LjQzMzYyMDY0YzIuODg2ODUtMi4xMjQ2MjAxNyA2LjM0MDgyOS0zLjM0MTgxMiA5LjkyMTg2MS0zLjQ5NjUxODg5IDIuMzQ3ODk0LS4xMjkxOTc1IDQuNjk4MTgyLjIwNzAyMjA0IDYuOTE1NjE1Ljk4OTMyNDI0IDIuMjE3NDkzLjc4MjI5ODYyIDQuMjU4NDY0IDEuOTk1MjUyOTcgNi4wMDU1NTIgMy41NjkwOTc5OCAxLjc0NzAyOSAxLjU3Mzg1MDk5IDMuMTY1Nzc5IDMuNDc3NTQxMzkgNC4xNzQ1NDEgNS42MDE1OTkzMSAxLjAwODc2MSAyLjEyNDA1NzkgMS41ODc2NzQgNC40MjY2MTEgMS43MDM0MjEgNi43NzUxNjM4eiIvPjxwYXRoIGZpbGw9IiNmMzc3MjYiIGQ9Im0xMjcuOTUyOTY5IDIyNS41NDA5ODRjLTQ3LjkyOTMzMTggMC05MC4wNTQ1MTU5LTE3LjIwMTQ2Ni0xMTEuODM1OTA0NC00Mi42MDQyNjMgOC40NTEyNDg5IDIyLjg1MjcxOSAyMy43MDA1NzE2IDQyLjU2Nzg5NCA0My42OTUzOTIzIDU2LjQ5MTg0MSAxOS45OTQ2NDEyIDEzLjkyNDA2NyA0My43NzU2NjcxIDIxLjM4ODA4OSA2OC4xNDA1MTIxIDIxLjM4ODA4OSAyNC4zNjU0NDIgMCA0OC4xNDU4Ny03LjQ2NDAyMiA2OC4xNDEwNS0yMS4zODgwODkgMTkuOTk0NTgxLTEzLjkyMzk0NyAzNS4yNDM4NDQtMzMuNjM5MTIyIDQzLjY5NTQ1Mi01Ni40OTE4NDEtMjEuNzI4MDkyIDI1LjQwMjc5Ny02My42OTM2MjMgNDIuNjA0MjYzLTExMS44MzY1MDIgNDIuNjA0MjYzeiIvPjxwYXRoIGZpbGw9IiNmMzc3MjYiIGQ9Im0xMjcuOTUyOTY5IDYwLjM1NDMxMzNjNDcuOTI5OTI5IDAgOTAuMDU1MTczIDE3LjIwMTQ2NTIgMTExLjgzNjUwMiA0Mi42MDQwODI3LTguNDUxNjA4LTIyLjg1MjUzOTctMjMuNzAwODcxLTQyLjU2NzcxMzctNDMuNjk1NDUyLTU2LjQ5MTY2MTItMTkuOTk1MTgtMTMuOTIzOTQ3NS00My43NzU2MDgtMjEuMzg4MjY4Mi02OC4xNDEwNS0yMS4zODgyNjgyLTI0LjM2NDg0NSAwLTQ4LjE0NTg3MDkgNy40NjQzMjA3LTY4LjE0MDUxMjEgMjEuMzg4MjY4Mi0xOS45OTQ4MjA3IDEzLjkyMzk0NzUtMzUuMjQ0MTQzNCAzMy42MzkxMjE1LTQzLjY5NTM5MjMgNTYuNDkxNjYxMiAyMS43ODEzODg1LTI1LjQ1NTg1NSA2My42OTM2MjI1LTQyLjYwNDA4MjcgMTExLjgzNTkwNDQtNDIuNjA0MDgyN3oiLz48cGF0aCBmaWxsPSIjOWU5ZTllIiBkPSJtNjEuOTcxNjg3NCAyNzQuOTc1MjAyYy4yODExNDIgNC41MDY0MDgtLjc4NTY0MjQgOC45OTQ1MTEtMy4wNjQzODgyIDEyLjg5MjQ1Ni0yLjI3ODgwNTYgMy44OTc5NDQtNS42NjYzODc2IDcuMDI5MjY4LTkuNzMxMTYyOSA4Ljk5NTA0OS00LjA2NDc3NTIgMS45NjU3ODEtOC42MjI3NDU0IDIuNjc3MDEtMTMuMDkzMTQyOSAyLjA0MzA2NS00LjQ3MDQ1NzItLjYzNDAwNS04LjY1MDk3OTMtMi41ODQ0MTMtMTIuMDA4OTUxNS01LjYwMjgwMi0zLjM1Nzk3ODMtMy4wMTgzODgtNS43NDEzNzQ4LTYuOTY4MTM1LTYuODQ2NTQ0MS0xMS4zNDU5MzUtMS4xMDUxNjM5LTQuMzc3ODU5LS44ODIwNjE1LTguOTg1NTM4LjY0MDg4NDItMTMuMjM2MTY2IDEuNTIyOTQ2NC00LjI1MDU2OCA0LjI3Njc4NjMtNy45NTE1MzQgNy45MTA2MzY3LTEwLjYzMTM4NiAzLjYzMzkxMDItMi42Nzk4NjMgNy45ODMyOTY5LTQuMjE3MjgyIDEyLjQ5NDA3MTEtNC40MTYzNzcgMi45NTQ5MjIzLS4xNTgwNTUgNS45MTIwNTc4LjI2NzYzMiA4LjcwMjQ4MjEgMS4yNTI3NCAyLjc5MDM2NDUuOTg1MTE2IDUuMzU5MzQ0NiAyLjUxMDM0MSA3LjU2MDA4ODUgNC40ODg1NTggMi4yMDA3NDM4IDEuOTc4MjI5IDMuOTkwMjQyNyA0LjM3MDYyOCA1LjI2NjA4OTEgNy4wNDA2NCAxLjI3NTkwNjMgMi42Njk5NTIgMi4wMTMyNzYgNS41NjUxNzYgMi4xNjk5Mzc5IDguNTIwMTU4eiIvPjxwYXRoIGZpbGw9IiM2MTYyNjIiIGQ9Im0yMS41NjQxMDE2IDU0LjU2NTA2MDZjLTIuNTgyNjE4NS4wNzEzMDI1LTUuMTI4Njg4NS0uNjIyNTgtNy4zMTgwMDcyLTEuOTk0MzczNi0yLjE4OTI5NDgtMS4zNzE4NTM0LTMuOTI0MTA4Ni0zLjM2MDQyNDgtNC45ODYyNTcxOC01LjcxNTU1NzUtMS4wNjIxNDczOC0yLjM1NTE5MjUtMS40MDQyMDc1LTQuOTcxODQ3MS0uOTgzMTYzMjItNy41MjA5MDguNDIxMDQ0MjctMi41NDkwNjA5IDEuNTg2MzkyMzEtNC45MTY3NTUzIDMuMzQ5NDkzOC02LjgwNTI0MDEgMS43NjMxMDc0LTEuODg4NTA4NyA0LjA0NTI1NjgtMy4yMTM1NDkgNi41NTk0NDQxLTMuODA4NDgzMiAyLjUxNDEyNzUtLjU5NDkzMzYgNS4xNDgwNjk0LS40MzMxOTc0IDcuNTcwNjE2My40NjQ4NjcxIDIuNDIyNDg3Mi44OTgwNjkzIDQuNTI1MzY5NyAyLjQ5MjM2NTkgNi4wNDQxMzQ4IDQuNTgyMzk5NyAxLjUxODgyNDkgMi4wOTAwNDU2IDIuMzg1NzU5MiA0LjU4MjUxOTIgMi40OTE3NTU4IDcuMTYzOTQxMy4xMDA5MTIgMy40OTA1Mjc4LTEuMTc5MDYxOCA2Ljg4MDAyMzktMy41NjIwNjk1IDkuNDMyNDk0NC0yLjM4MzAwNzYgMi41NTI1MzAzLTUuNjc2NzM1OSA0LjA2MjA4MzUtOS4xNjU5NDc3IDQuMjAwODU5OXoiLz48L3N2Zz4=" parent="1" vertex="1">
          <mxGeometry x="407.67" y="513" width="55.01" height="64.5" as="geometry" />
        </mxCell>
        <mxCell id="r9MuSok-HegsRGv17X6z-22" value="&lt;font face=&quot;Tahoma&quot; color=&quot;#336791&quot;&gt;&lt;span style=&quot;font-size: 14px;&quot;&gt;&lt;b&gt;Serve the Final Model with Flask&lt;/b&gt;&lt;/span&gt;&lt;/font&gt;" style="text;html=1;strokeColor=none;fillColor=none;align=center;verticalAlign=middle;whiteSpace=wrap;rounded=0;" parent="1" vertex="1">
          <mxGeometry x="672.13" y="350" width="92.5" height="30" as="geometry" />
        </mxCell>
        <mxCell id="r9MuSok-HegsRGv17X6z-23" value="" style="shape=image;verticalLabelPosition=bottom;labelBackgroundColor=default;verticalAlign=top;aspect=fixed;imageAspect=0;image=data:image/png,iVBORw0KGgoAAAANSUhEUgAAAcEAAAJXCAMAAADcsh8ZAAAABGdBTUEAALGPC/xhBQAAACBjSFJNAAB6JgAAgIQAAPoAAACA6AAAdTAAAOpgAAA6mAAAF3CculE8AAAArlBMVEUAAAAAAFUUB1QTCFUAAEATB1UPAFoXDFEUAE4UB1QTBlQSCVIUCFIUCFQSCVgPCFUSB1UTB1QTCFQSB1UTBlT/1QD/zAD/xgD/ywD/yQD/ywD/yQD/zAATCFMUB1QTCFMUCFTjAI7mAIzmAIDnBIjmBIfoA4jnA4foBoUTB1QVCFQVBVURCVIVB1URCVUVC1UUBlQSCFMUBVUSCFUTB1QTB1QTB1T/ygDnBIj///83ZZP7AAAANnRSTlMAA+tgBGkRFg3RnRxBQB0hb+iGwXYMDwnRnUlaN6W3X4ASFArohk1VLGo9MDskPBhYYjNj5uU3Kw4zAAAAAWJLR0Q51wCVQAAAAAd0SU1FB+QCCgAEIXx5lWoAAASSSURBVHja7dEHUgJREEXRryjKGEHMAXPOef8rU5fQOIXtzLkL6Kp+pxRJkiRJkiRJkiRJkiRJkiRJkiRJkiRJkiRJkiRJkiRJkiRJkiRJkiRJkqSGNzUdr2O2RM28x5s1G0ERFEGCIiiCIkhQBEWQIEGCIiiCBAkSFEERJEiQoAiKIEGCBEUwR925cPMEM9WL71MRJEiQIEGCBAkSJEiQIEGCBAkSJEiQIEGCBAkSJEiQIEGCBAkSJEiQIEGCBAkSJEiQIEGCBAkSJEiQIEGCBAkSJEiQIEGCBAkSJEiQIEGCBAkSJEiQIEGCBAkSJEiQIEGCBAkSJEiQIEGCBAkSJEiQIEGCBAkSJEiQIEGCBAkSJEiQIEGCBAkSJEiQIEGCBAkSJEiQIEGCBAkSJEiQIEGCBAkSJEiQIEGCBMduYTHc0qQFl1fCddsjuDrGN5MW7McPDggSJEiQIEGCBAkSJEiQIEGCBAkSJEiQIEGCBAkSJEiQIMEWCFZr4YYEMwnWHkGCBAkSJEiQIEGCBAkSJEiQIEGCBAkSJEiQIEGCBAkSJEiQIEGCBAkSJEiQIEGCBAkSJEiQIEGCBAl+t74RbpNgJsGtj3DbBAkSJEiQIEGCBAkSJEiQIEGCBAkSJEiQIEGCBAkSJEiQIEGCBAkSJEiQIEGCBAkSJEiQIEGCBAkSJEiQIEGCBAkSJEiQIEGCBAkSJEiQIEGCBAkSJEiQIEGCBAkSJEiQIMFSdnbD7RHMJFh7BAkSJEiQIEGC/1dw/yDciGAmwbojSJAgQYIECRIkSJAgQYIECRIkSJAgQYIECRIkSJAgQYIECRIkSJAgQYIECRIk+CvBwypch2AmwV78YkWQIEGCBAkSJNhQwaPjcCcEMwmefoY7I0iQIEGCBAkSJEiQIEGCBAkSJEiQIEGCBAkSJEiQIEGCBAkSJEiQIEGCBAkSJEiQIEGCBAkSJEiQIEGCBAkSJEiQIEGCBAkSJEiQIEGCBAkSJEiQIEGCBAkSJEiQIEGCBAmWcn4R7pJgJsG6I0iQIEGCBAkSJEiQIEGCBAkSJEiQIEGCBAkSJEiQIEGCBAkSJEiQIEGCBAkSJEiQIEGCBAkSJEiQIMGfrobhrglmEuzHDw4IEiRIkCBBggQJEiRIkCBBggQJEiRIkCBBggQJEiRIkCDBFgje3Ia7I5hJsPbqFiz38R4IZhJsVAQJEiRIkCBBggQJEiRIkCBBggQJEiRIkCBBggQJEiRIkCBBggQJEiRIkCBBggQJEiRIkCBBggQJEiRIkCBBggQJEiRIkCBBggQJEiRIkCBBggQJEiRIkCBBggQJEiRIkCBBggQJEiRIkCBBggQJEiRIkCBBggQJEiRIkCBBggQJEiRIkCBBggQJEiRIkCBBggQJEiRIkCBBggQJEiRIkCBBggQJEiTYDsHHp3DPBDMJiiBBggRFUAQJEiQogiJIkCBBERRBgiIogiJIUARFkCBBgiIoggQJEtTf9PIa7s1qkiRJkiRJkiRJkiRJkiRJkiRJkiRJkiRJkiRJkiRJkiRJkiRJkiRJkiSp8X0B6sk1qjyEUicAAAAldEVYdGRhdGU6Y3JlYXRlADIwMjAtMDItMTBUMDA6MDQ6MzMrMDA6MDBJAhZEAAAAJXRFWHRkYXRlOm1vZGlmeQAyMDIwLTAyLTEwVDAwOjA0OjMzKzAwOjAwOF+u+AAAAABJRU5ErkJggg==;" parent="1" vertex="1">
          <mxGeometry x="340" y="511.2500000000001" width="50.97" height="68" as="geometry" />
        </mxCell>
        <mxCell id="r9MuSok-HegsRGv17X6z-46" value="&lt;font color=&quot;#336791&quot; face=&quot;Tahoma&quot;&gt;&lt;span style=&quot;font-size: 14px;&quot;&gt;&lt;b&gt;Pandas Dataframe&lt;/b&gt;&lt;/span&gt;&lt;/font&gt;" style="text;html=1;strokeColor=none;fillColor=none;align=center;verticalAlign=middle;whiteSpace=wrap;rounded=0;" parent="1" vertex="1">
          <mxGeometry x="377.43" y="350" width="92.5" height="30" as="geometry" />
        </mxCell>
        <mxCell id="r9MuSok-HegsRGv17X6z-47" value="&lt;font color=&quot;#336791&quot; face=&quot;Tahoma&quot;&gt;&lt;span style=&quot;font-size: 14px;&quot;&gt;&lt;b style=&quot;&quot;&gt;Dataset&lt;/b&gt;&lt;/span&gt;&lt;/font&gt;" style="text;html=1;strokeColor=none;fillColor=none;align=center;verticalAlign=middle;whiteSpace=wrap;rounded=0;" parent="1" vertex="1">
          <mxGeometry x="237.25" y="357" width="92.5" height="30" as="geometry" />
        </mxCell>
        <mxCell id="85gbmqRdfaH0KmIcYrc--2" value="&lt;font color=&quot;#336791&quot; face=&quot;Tahoma&quot;&gt;&lt;span style=&quot;font-size: 14px;&quot;&gt;&lt;b&gt;Predictive Models&lt;/b&gt;&lt;/span&gt;&lt;/font&gt;" style="text;html=1;strokeColor=none;fillColor=none;align=center;verticalAlign=middle;whiteSpace=wrap;rounded=0;" parent="1" vertex="1">
          <mxGeometry x="554" y="307" width="92.5" height="30" as="geometry" />
        </mxCell>
        <mxCell id="6JaRcq2dVbDghGMQPrxV-7" value="" style="shape=image;verticalLabelPosition=bottom;verticalAlign=top;imageAspect=0;aspect=fixed;image=data:image/png,iVBORw0KGgoAAAANSUhEUgAAAQAAAAC5CAYAAADHwOFvAAAABGdBTUEAALGPC/xhBQAAACBjSFJNAAB6JgAAgIQAAPoAAACA6AAAdTAAAOpgAAA6mAAAF3CculE8AAAAB3RJTUUH5QUHCTEIGD0jVwAAAAZiS0dEAAAAAAAA+UO7fwAADuRJREFUeNrtnXuwXlV5xr9DEk7IRSAXAwTC/t4XrIAdLC03G0jGQVGb0ouXIqMiVHGGKcKU4lRoBc1UEMXDmPM+mykXGVPLNENbiyBQkctYqk1EEE0RKOIYiFzWs7cIkitJ/8hHCTQJJ+d8t/3t55l5/oQvZ631/va6vOtdjYZUeTnSXzr4Kwe3dtbpAUeapRaXJAFAkiQBQJIkAUCSJAFAkiQBQJIkAUCSJAFAkiQBQJIkAUCSJAFAkiQBQJIkAUCSJAFAkiQBQJIkAUCSJAFAkiQBQJIkAUCSJAFAkiQBQJIEAAFAkgQAAUCSBAABQJIEAAFAkiRJkiRJkiRJkiRJkiRJGhQ50gGO9OPO74Rzq4Nf2v63s7ycZWB06be/acEFr/nbdQogCQACgAAgCQACgAAgCQACgAAgCQACgAAgCQACgAAgCQACgAAwJmV5uaeBxzbzYr6iSwAQAGoGAEda6OB/GXiDgccrwgQAAaAmADDwQAevd3CDg1scXGnB07O8nKZIEwAEgMGe+k+x4JkOFtv97S85+EsLXu6R9lO0CQACwGB++Ycc6TgHH9tFO3zPRrkoGyn3UNQJAALAAKmZF3s7+M3XawcLPm6jXJKFlgQCgAAwSGPoE2NtCwv+ohnFJ7K83FvRJwAIANUfP29y8Ce70R5bHHzCwb/xSLMVgQKAAFDt9f8VDq4fR7s85+DfeqTpikIBQACo4tiJtMjBhybYPpd7pJmKRAFAAKhW8M9off03TLB9Njt4kTYGBQABoEpT/+DxDt7fpjZ62oJnZHk5VREpAAgAfa4symEDPznOtf8ONwYNXG3BJdlIOUlRKQAIAP399Z9v4Dfa3E6bHfyuI/22olIAEAD6d7wMWfAEC67rRFsZuKKJYn9FpgAgAPTleOEUBy/vYHutt+CnFJkCgADQj9N/cKqD93W4zdYaqKWAACAA9JuaURzq6Mz0f/tbhBZcnuXlGxShAoAA0F8zgNO71F9rHfygIrRrGuqC9duV/2BE+ocuAWCrg7darg1BSeoLZXk51dqX/DMWP+XgGVmu3ABJ6gcAmINPdhEAWx28wYIqMCpJfbD+P8nBZ7sMgLU2ynepkpAk9RoA22r+PddlAGzx4KUeacYgT62ObhVQ7HRjFhav3lnVKUBvTgGyvDzSQXbh734hy8uj2rIBiHR5G/P/d8cPeqSDBAABQADoIQAseJ2Dm3oAgK0ePEkAEAAEgJ7OAHhLT4J/mz8nAAgAAkCPAJCNlHs6eFuvAGDBuwUAAUAA6BUA8nKBg/f2cAbwvAAgAAgAvQOAO/j9HgJgUzMvjttuRrJHhnKvJooZBs62nHN3ZkfaN0M5LUM5LAAIAAJANQGw2ZHObz0++gce/JChuNBQ/J2Dyx1csQvnhuJiA89z8P2OdLIFj7WgZeiDC0cCgAAgAIzpPYHHHHykDX32tIM/ar1mNOrguZbzPU0UCwQAAUAA6E8AdLSNHHzUwTsNvMyCR2cj5RQBQAAQAF75985x8O4BBcD2ftHBxyx4g43y6K6kIAsAAoDyAPrPFnzRgldZcEGWd3ADUQAQACoCgBVdGqf9BoL7DcXHLXhAR2YEAoAAUIlUYPDLPboL0A9OFlxuwfc40lQBQACo412Asx38dU0B8PLbBY94pKUCgABQx9uAJzr4TI0B8PKS4BoBQACoHQCyvJzt4M9qDoAXDMWJAoAAUDsAtJYBN9ccAMsdnC0ACAC1BICD59Y4+J918E/bXqRUABAAqgOA1LTOPwzSr77JQNMxoABQ5xnAsIN31jD46UhnZ3k5WQAQAGoLgCzKPQzFex3cWKPg3+LgXR7pzcoEFABqDYBWQtAhDq6sEQBKA89WKrAAIAA0Gg2PNM2Df12jrMC7srycKwAIAALAK8eBb+1xibCuTf8NPFm3AQUAAeDVbTfFkf6qO+3X06y/f+zIxt//09BQd7zjH6/Bbw/1rt17+dtDQ534YA0182J6My9OdPCBgQ1+8IcG9qZKkCT1o7K8nGPBxQZ+zsGfDvDX/wkDT82ii5WBJKkvgz7KvQw8ysCPGXiNgw8P+q6/gxd7pH3U+1Jdg36eBd9pwQss+E8OrmrtWWwZ8OBf70hfdfAAjQJp8AMd5UEZyt/LRsu3G3ieBUccvKNVfXdt6/5/baoAGfjvNjqGdb8jNVuNtFWW5eoXAzXw9myknD7Wc9BjalweSZYHqtyXR4It44G7kw75UTWcLFc+x/9xBy+y4LzdzYS6TA0oy1V2usfAU8a122/RtQw2WZbbu9G3zsDckeaPO8vPkVaqMWW5Mt7g4BoHr7dRHjHh+v4CgCxXo4ing/cbmFtwYdve/FN1VFnu66/9gw4uN/ACj3RcNtLmp70c3KSGluW+8CYHn3DwNkPxeQ+e5kjHGrhf2wt4bgcANbwsd+4O/mpHWrUD3+Pg11qb8Oc3UZxqwaMMPMSC+zdRzOjKi77qJFnu2B38+3d9tXoXV6y7JXWULHfsmO6svr9EoY6S5Y74ZxY8RACQ5Xr6C4ZihgAgy/XzGkc6KYtyqAoA0E1AWW6fX3Lweo+0XyUKKRj4Y3WaLLexBl/wA5WppKJUYFlumzd7cIVHmicAyHL9/NRr36vo/yVA8Dp1nCy3IesveIdHmlY1ACxT58nyhL3eIy2uXDVVAy9U58nyhLP+flDJcsrNvFBNQFmemDda8COVBIChWKgOlOUJff3vtlHOryQAHDxcnSjL41/7W/DM5rJiSkUBkA52pB+pI2V5XFl//2LBrLJPKjm4v4O3qTNlebf9Cwu+t9JvqllwXwf/Xp0py7vlDQ5e60izqw0AcKqDF6hDZXm3/JiBx1T/VdW8HHLwVHWoLI8959+CSztWqLMHG4EnOPioOlaWx3Ts9/CYX9+tyD7AYQ5+R50ry6/rFwwVTfrZxT7AbAevVufK8ut+/W80cNZAASDLy8kGXuzgZnWyLO+81JeBSwZm7f+qfYBIH3bwKXWyLO8k3x+8zJZxZmMQZeDvOLhKHS3LO6j0A/6bIx3cGFRleTndwRWt9EZ1uiy/4p97pFMagy4LXuLbniFWp8vyNm8y8KK2Pcfd5/cCTnZwrTpdlv/Pt2d5uW+jDrJlnOXgT9XpssytFqSN8oRGneSRLlXnyzJ/Yyj+IsvL4boB4G0ObtEAkOt808/Ar1twQaNuykbKYQcf0yCQ61rkw8BVFlycjZR7NOooj3SlBoJcU6818LQsajb1f81x4GID12kwyLU78gt+2pGmNuosB+c5eIsGhFyrCj+Rrmk0hhq1V5aXw4biHAc3amDItSjwAd7aHC0OUvS/sgw41vV0uFwP/8DAxVkM4C2/cQNglPsY+BVdEZYH3I87+OHar/t3cBw45OCfObhGg0QeUD/nkT5jwWmK+B3vBcx08AbNAuTBzPTjl7ORUl/+1zkROMXBX2rAyANW1w8K/rHXCbhDg0YeoOu9y5ujxTxF91g3BME/0v0AeUCC/5+bKN6SRU3TfMc1C4hy2MFvawDJFT/rv6UZxWEK/nHNAoqFqhYkV9RbHPxOFuX+iuTxbwbOcvBanQjIFfRKj3SUoniCeQEWXOTgQxpQclXW/A7e6ZEWKoLbsxk4w8DPaikgV2TD70YDf9eRlOLbLjXz4ggH/1MDTNaGX30vCv2JUoTlPs7wu7I2lXx7tB8wbMER5QbIfZjhF8rw606G4AEO3q9BJ/eJnzTwi81lxRxFZ/eWAu9z8BkNPrnHXuPguRacnY2UKunTtQ3B0eINrVOBDRqEci8SfAxc7UhLLDhdEdmTBKE010EIAnKX/aKB38iiPFhR2PulwJEO3qksQblb632PNGLL+EZFX/8kCb3bwAc1OOUO+iUDVxt4loH7KOr662hwUhPF+wz8jQaq3KHgv7eJ4p1ZXqqEV19CIMphQ3G2BqvcblvwagMPzHJV7u3vTcFIMxy82MHnNHDlCXqdgd9vovjDLMrJiq7qQGCOg0sdpAaxPM77+2scXGbBNymiqgmBeS0I/EoDWt5N32PgB7Io91YkVRsCcx28xMGXNKjlMZgGfsWCb1X0DA4EZjp4hQa3/DrXd39owfc3UeydhdJ5B+t0IC+nNlGcZeCTukEob7/J5+AjDp6T5aXO9Qf8iHCagX9u20qKKWNQpboecaRlzSjerOio0UzAtr00dKdmArX10wZebcGTHUkXeGoHgZFykoNvcfBGBUPtfKsFTzEoh7/2MvBAC17i4K8VGAPtjQbea+BHLDg/G1GNPumV2cBkG+Vi3/b24DoFy0Ct8Z808GYLviMbKffUaJd2flSIZAZeqUKjAxH4/2PB5R7pHarNJ+3ObGBPB08z8FsOPq9gqtZNPQcfMPBLFlzikWZqREvjOSWY1ERxiIHnGfjfyiDsez9vwe8a+ElHOibLSwW+1JYNwr0seJgFlypnoC9deqRrHTzJgvObKIY1aqUOaKjRzIvDHPyqg0+o7mDPbua96OAaA2838PRspJzWGFK2rtS9pcGwgSc6mDt4n4MbFZhdSdN91ME7DPx8M4rfz0KbelJvNwqnWPBoAz/j4N3aLGy7Nzj4Ewe/bsELLfhuR1qgkSf1lTzSZI90hIEfMvA6A59S8E4o6Fc7GB78oIHHNVHsrwo8Uv/PCKKcbMFZBh7qkT7rke5zcL2Ceizn9eluAy81FIs8UuaR9lGWnlTpDcPG0FDDkQ528BwDv+3gz1tlyeq4ebjRwbK1ebrawJs80vnNvFiU5eXkxtC29pKkQd48PNKCZzq4zMFbHXzAwWdbGWuDNo2nb8udWOXgtwy8yoJne6RFumsvCQZ5OceCxzvSma33DJc7eFerIEWV7iEkBx9u/duXO3iFBT/lSB+z4NsNPCrLy1nqcUna+d7BFAvOs+DhjnSCgX/s4BkGfsHBr3nwPxzpoV4UNLXgM4602sHvWfBfLbjCUCw1FBc6eIYjvcsjLbTg4Qbul0W5l3pUkiY+Q5hk4EwLzvZIBzpS04K/5eARhmJJMy8+2kTx8Va+e1gwPNLNjrTSkVbt3LzJgle9/N9sbw9+uvX/Pc1QvM3BIyx4qCNljnSQBd9owblZXk7P8nIvPYohtVv/C+THYqnhTOGkAAAAJXRFWHRkYXRlOmNyZWF0ZQAyMDIxLTA1LTA3VDA5OjQ5OjA4KzAwOjAwIHFrOgAAACV0RVh0ZGF0ZTptb2RpZnkAMjAyMS0wNS0wN1QwOTo0OTowOCswMDowMFEs04YAAAAASUVORK5CYII=" vertex="1" parent="1">
          <mxGeometry x="815.48" y="519.19" width="63.47" height="45.87" as="geometry" />
        </mxCell>
        <mxCell id="6JaRcq2dVbDghGMQPrxV-8" value="" style="shape=image;verticalLabelPosition=bottom;verticalAlign=top;imageAspect=0;aspect=fixed;image=data:image/png,iVBORw0KGgoAAAANSUhEUgAAAQAAAAEACAMAAABrrFhUAAAABGdBTUEAALGPC/xhBQAAACBjSFJNAAB6JgAAgIQAAPoAAACA6AAAdTAAAOpgAAA6mAAAF3CculE8AAAAB3RJTUUH5QUBFhQrYLg5UwAAAwBQTFRFAAAAAAAAAAAAAAAAAAAAAAAAAAAAAAAAAAAAAAAAAAAAAAAAAAAAAAAAAAAAAAAAAAAAAAAAAAAAAAAAAAAAAAAAAAAAAAAAAAAAAAAAAAAAAAAAAAAAAAAAAAAAAAAAAAAAAAAAAAAAAAAAAAAAAAAAAAAAAAAAAAAAAAAAAAAAAAAAAAAAAAAAAAAAAAAAAAAAAAAAAAAAAAAAAAAAAAAAAAAAAAAAAAAAAAAAAAAAAAAAAAAAAAAAAAAAAAAAAAAAAAAAAAAAAAAAAAAAAAAAAAAAAAAAAAAAAAAAAAAAAAAAAAAAAAAAAAAAAAAAAAAAAAAAAAAAAAAAAAAAAAAAAAAAAAAAAAAAAAAAAAAAAAAAAAAAAAAAAAAAAAAAAAAAAAAAAAAAAAAAAAAAAAAAAAAAAAAAAAAAAAAAAAAAAAAAAAAAAAAAAAAAAAAAAAAAAAAAAAAAAAAAAAAAAAAAAAAAAAAAAAAAAAAAAAAAAAAAAAAAAAAAAAAAAAAAAAAAAAAAAAAAAAAAAAAAAAAAAAAAAAAAAAAAAAAAAAAAAAAAAAAAAAAAAAAAAAAAAAAAAAAAAAAAAAAAAAAAAAAAAAAAAAAAAAAAAAAAAAAAAAAAAAAAAAAAAAAAAAAAAAAAAAAAAAAAAAAAAAAAAAAAAAAAAAAAAAAAAAAAAAAAAAAAAAAAAAAAAAAAAAAAAAAAAAAAAAAAAAAAAAAAAAAAAAAAAAAAAAAAAAAAAAAAAAAAAAAAAAAAAAAAAAAAAAAAAAAAAAAAAAAAAAAAAAAAAAAAAAAAAAAAAAAAAAAAAAAAAAAAAAAAAAAAAAAAAAAAAAAAAAAAAAAAAAAAAAAAAAAAAAAAAAAAAAAAAAAAAAAAAAAAAAAAAAAAAAAAAAAAAAAAAAAAAAAAAAAAAAAAAAAAAAAAAAAAAAAAAAAAAAAAAAAAAAAAAAAAAAAAAAAAAAAAAAAAAAAAAAAAAAAAAAAAAAAAAAAAAAAAAAAAAAAAAAAAAAAAAAAAAAAAszD0iAAAAP90Uk5TAAECAwQFBgcICQoLDA0ODxAREhMUFRYXGBkaGxwdHh8gISIjJCUmJygpKissLS4vMDEyMzQ1Njc4OTo7PD0+P0BBQkNERUZHSElKS0xNTk9QUVJTVFVWV1hZWltcXV5fYGFiY2RlZmdoaWprbG1ub3BxcnN0dXZ3eHl6e3x9fn+AgYKDhIWGh4iJiouMjY6PkJGSk5SVlpeYmZqbnJ2en6ChoqOkpaanqKmqq6ytrq+wsbKztLW2t7i5uru8vb6/wMHCw8TFxsfIycrLzM3Oz9DR0tPU1dbX2Nna29zd3t/g4eLj5OXm5+jp6uvs7e7v8PHy8/T19vf4+fr7/P3+6wjZNQAAAAFiS0dE/6UH8sUAABcTSURBVHja7Z15QFPH1sBvQkIIAQIEgbC7gGLdlT4RrVq7qLXUfd/aulWsCyCCoLa4tOKTok+tda9+al2fbS1qiwtisaItaNVqtaKCUDbLFkJCyP3QflrMzNxtbiBcvvMvdw73/DJ35syZM2cIQrgitlb4joj48nydnFy3crjKViYmmpHYuvf/LJusLzc391PZiJqJ+XLvJXdIQAyXZrezbRa/fqupl0io1N6a4WsjePvdp56vIVGiOTnCVdjmWwWs+YukkrxVbSQCtl/W60AFSS3l+3rJBGu/IvS0lqQT/Xd9hUpANvyKgSSbLwHJq6lM7BcugY77q0hmoj/UQYB+YcvPikmmUr5CeLOh3Zx8krk8HC44jyg4lWQj51oKzH7HGA0rANWzBLYu+Fc6yU5+8RKU/cqoapYA9LMENQp0TiXZSoaKx//fonuvXqMiF5rIxD7OzFcxrQbMXgiTtxj5QCPgK8BHXyUk7L9cCf2boTt2fEQktpIHhM79/PSf2mqdTl9jKnqdNu+7hUFWYhG1FsnAhNN1GkAFT2QXkzdRLYdYqLs4yV0qkUhlqugiGIF5UsyYm0vvxadK6Lua4f66V+2kCAYimf3IfZTj9x4mb9PuLNhQe9D7+d/7XoU4ySnc5wGp0j0k6ps/GX9uVWnTvGEBObFd+9jbNP47EwCifiDD6q/q22d/FaKaoysgUfoM/uIByxFHl/5+S9MFiEjR4aP7tC2ZALCfB4a/fu72wiN9IV/BMC49377lgKUZOpK96L4f6vzCCkTiO+snPckLAGUU0Kxkvskz0aDqxex/fLfg+SfKSI7ycNlL1vWCFyHbK5i0YgLAbRPQ7LrcdJwE54IEtuZ7DPz3bzUkd6k+OvDZdylymfwTs0ZMAHjsAUbe00C05DK38fWfgc97yLp7JKZkjXV4OhaKvaJzSP4A+J0Ewr+JwPvvB1Snsfn1/SdsvkPiy+25yidej//aQpJHAAGZpq1KwwALEjAAiJSj9j4ieZGCCDtC7L+VuefOqAd8b9qqcjnQA3ZwByDus/o3ki8piJK33s5i5cIEgHonsNQ5DowBVzgDcA8/ryP5k8LF69ioYwLAeaVpK+M1B9OAQTmg+iAj822G7C0ieZXiEpJnABBHqHCayTPhoOrlTOz3+/dVA9mYwgSAdCjQrCY96IVHukB81/EMVPc/UmYkLR4A0RscVCq2udV7wPZbiBm+9N1/+qVqkmwCADqAXo6xaJ3P8793g20ZZMjp1PqsfVhDNgkAzkvBhsbSE6P+HglV4T/DfscEa7run1zOovv/cTkjI33Xxmey/UxGYS3L5dIfGd9tBGQKo4l60GOYwvz0XXGz16bcLIG+ydtWlDqtJ1zVM3rvsss74yb3a612rRNH5TNxdHH1CIr+jikDY/HRaW3VriolIHJGc5X/AXgwprqiVIPoxZnu1PZPvcfg5UtTVoT62NvKpFCYYpmi9RFmEJd7K6Q4ITrZDNbf1hLKgJDDB3SLFYO+cMtgJU28r26G6vE97TiiT3DH3qvseZGl/TmtqHx/16XUG621msKtoXYMQ/YxFZRDieHRcCmu+YTtxFx29hui7SlC1F5xlPbrSn6K9GT+cvKxuRQEai4G4yftKCbksOwAV9pQ/P5+W6js1+YcmsBuU0Ux6SG6L6X3wN+qtxvP1v6/RqNNELktoQrw3vtqMOtwsuN85PL/1mDrRrC/OtGdwv5Y9O9fk/PVOw4cXlG9BqGzcCr+Jq2Ctf3aUx0p1EWg7S8+MUvN7SV7X4APRZt9se1XTWRrvyG1N9oHkk1BDqe6Gyvbcn1L+yiYq0ZmD7fCtd8pLpet/VdGUnS7ycjQ1+PDI5Tc37NrMuxVNmJv0jvHVrG0v+rCKAVaXx/UVo3+RvxLOC9qswyyA5g7Brv/Ly1naX/FsTcp7G+TgvB/q8+OdsR71XF3Qa0nu2Pa7/LxY5b2528MonA7lJsQy/+qva/gemudIN9AEmaOQovlRezCNZrUOZQ7ouGFcH2PPw3Ed1bB7auS2XhDYIsVBazsN/z+STCl/z7oBvwDKAtz5yGLZDWwKHowAUuh16f5CPtrj0D23WpSowdQ2xF4Ch6u1syy5yONJgJI5Lw5DEdf+63FqN8/KaDHlK2/1v+cqzISJ3emmcQcN8N3a+8P48V+IizPVHN6fwx1gV8ix/8kjzp/xqvzgGkJB9MyMzPP7o2f2beDG21+9PvZUKDZg3jKrAYBpPXhrq3dLuTm+meef8coxLYuXq0DAgJaejrbMgi2tEqGxv+zB/KVWc4rgLa7UIlFmjBXbqGleOhZG814OWGBAPx3oE6GaGY7crP/jStGqDoHwgIBtNqOCrNp5nB01122wmYAfbwLYXkAxAG7kEHa2RwHbKtpsLQvfZInYXkArIIvoGLrRR9y7bDtj8HciVPdCMsDIEHbn7+A63JVuhA2p9wdJbU8AJLgNFS06n445/Va4GHYAiAawVPetqOp2DcUACu0/VlTFJy3VaZDjttod6ICx+2+uWoqvRoIgLgXqv/rMydwj64GHoJovPw66vEut4GH32wgAL1+RNo/kbv9kgkFoMaixbYWB0DaF2V/DY79hPdmCNGvOxCWBsB63GUj6vvH6P+EZCjEB7g7VWppAKwn3kbYb7g2Hmd3xX0txKPc7kZYGADrKTcR8cqaH8dg7S4FZYI6bwwhLAyA9bvXEdlqhpT+WP6KbKIW0gEcLQyA7L1fUeuf0y/jOWg+uyEpzYMJywJgjbY/Fddf7wHuLFXtsmskAM5hJ6HyQzbSftytBbsw8NP64w2ikQCoN7Dc5zjXDTe7wAtcBuiOypsKgHPdcDdXxb3A2Frh+0QTAZDcGXtzWfEhqPZ3VRMB8Hlr/OyaFv8DzoGriSYBwLjZl4fiaL7gQaCCvk0CgH6TDw9RGnEwGAhLJZoCgKrPeamBIQfPUVQvbwoAKr5ozUucTgmGQipC6Br1BD4b3WsNDKBsiz8/gUo1mBHzgDayBqYR/RHcoACMBf8J4Md+UQ9Q+XbaVsuBTbSrPRoSgDF3KV/VLySTwDFwHK3zfATYRDrboQEBGHOX8bZfJY0FV9dt6Bq9A2Y7HWzTcACMj5byV/3EZh+YRUXXJuAbMJFqq0+DATDmL+Gx+ovtz2DmGk2TlklgyTL9HEVDATAWxvJZ/UYBnglNoh40XtkGqRxypx/RUABKYpx5tJ/wAf/DZIqwlE/v+amwxIzD7RoKQPaHTnzaT7wC/osdi1Gy4svkn/Kggck4yCZiyALT9t+U0wOwf3slpYxQ8Go/EQFJMShCSSnqDPH9UMiqdMFt0/YVtfQAxHYulCLl135iFcmH7Ia55bEMjpzjZIlZEIB746XNG8AmaP5p0wCwgQf7fxshbroAzuHbr1sHd0yaBoA0bPuNhxCBiWYCoDYVFT6xDABiqVQqEZkPQO0N5KGfRgcgtnVWe/ccM2ZMaAdfH3eltTkAGLIXEpYJQGTvHTR376/PIjeVWZ+NCfSw5RuA/pcZNpYJoEXX8DOmi5ayo+91cOQVQNUZqlhwIwJQ9lwNrfpm+C26mxNvAIx5e4IISwQgaR/xAHWURn81qp0VPwAqz4d7EJYIwP6dr6kumSg/9KodDwAq0z6hy0tpJACeM+9Qlz4xZExTYwLQ303+OIR2W7pxAPivekBb+iX7Iz/uALR5WfuWje3MICutUQC8tIFJ3bf8T33RAH7ZtAEtqxbMnjCwDbOcvDdXm7YGo2l8A/BOZFanLn+1DxLAJm81WtgcR7BzM229uMDMALzimVa9/HO+EwpAgvmuYeL33CAo8pnMqz3fGWojPAB9L7CoXfZDW8EBcFujZTOar1AJDIBkHLtSIsX9JcICELCPZeXLo67CAhDKtpZG9ZNSOsIB4Pkf1qVPE+0sEIDI2pabvAatflOrq9Joqqr1UDi5agsEoOYjUP/c/Ir02W1khNfg6N+gpTEWSoUNoObGzGcBq5bbYdVGvrYRNIDaa/UrlEyCpDXkOwgZgDHvxTs24iEVYgOEDECz7cWAreI8+Mx4IQO4195EdQj4zEYBA6hNN1VtA54P/l7AALRAwqv1N2BESsAAymNMVUvX/z+A5gRAu62ZfwKMBsFjQp4G73ennwaThAygaqeJIwS5k3O6sF3heS9o/hjiCgcJejFkuDa0nuKJkDo5lU4CXw5fD3OkXA7vtxF8QOTiB08CIoMW3YQWyx1iJaCQ2OsPWIfEHrkJKii6nnVQdKu9oMLiA9mWWK8SVlic8NrArgvUbnQW2N7gMHY3Qt5/erOHoDZHP6lgYb8+zlFw2+PdjzO/GM2QFii47XFCOuo6YwBZQ1AJEmCKjJJLnQpbVzDBJsbcKTIOkUyHgdvv/l/xVSZJUqPZVVaWqPuMmb5g2TowxSq10uxJUgyThPIjnp2+ZJImt5FFapSVb2jUlgsPmV7OzXuanHd8HoN/m7PSjzAPgLYf7vu1ksVQzH+ipNfHD+kShQy/RnoTZgHgMffbfHbOmDlSZd+9QH2nb/XZ0fUOOfEIwGbckTy23rg5kqVtgjdQ3TtStK1P/TGNPwDqT26xv53XPOcFvMejSo+SmuTRrVinyzMC0H5HMYfbec10YELWZeYZ2L/TnZveziTPly8AvY5XcLmd2GxHZhT+oftMb/i7lTDEHzh7zhOAt85zu53YjKfGpO7t3lx84Fni0M3jawe3cYYcceYHQNdkjrcTm/fcoMRO5enb8a0x3X191S4O8IP3vABw26QhLRHA3zE2iZSq5B4fAGxXVpGWC4BGzuIDsJpVSDZdAKvwAXQ5TjZrANZzypo1AFH3ZLIpA4jHBeCwqLpJA/gAF0DnU2STBgAppJSyx0SmUESExO8Uwwwr+SXl4B5AMqroAchfnkgpIx35BcCulBbkC4iC7cre+vTNQDvzbI6WLeS3lJaiGJI2wkICjkLys05MUHGOCtMXU4vmtZgapJzeCVafEBiE1B5/WUqYD4CxgNdyelwKKtZv/h645XZtIM6+AJOCinE8EuBUUvMfUS4CmhcvkZsXAL8lNTkVVf1HXEBH6oY/YWYAT4rK8lZUlVtZ3X+C0NsBfBckZgfAZ1ldQg1mljxgXrPQByhNr91NmB9AHQHeCqtyKq39XNoBtchK5jcEANKYF8fTbMipuPpz6ZgFhN1nNAgA0vhnDD8eEay8/jnGrTtdaywApLFoET9eMZcLFiwBAEn+FaHkAwCXKzYsAwBZGcnHV8DlkhULAUBqIpzxLxnhcs2OpQAgNQtU+ARgFy0dkTcNALwQsAsDMwr+eL2JAHhCALsLBIFLWg31ZWtmBIC6bO3cn4jNV0049kgIvW5vUCMBQIlqWS6KQCTubMj+wsVGAEC4LH2E7AO4HlFQFqiV8srNxgBAqJbmIQiURmF+BdBLV7e5WRgAQhVXgCBQjHnpAvTa3TtTpRYGgHBeXIxaGWHGCaEXLx/rYGkACKdFpajVMV58gO3V240FgHCM0JgnTgi9fD3jdYsDQCgjq8wSJZPNgNRY0e6kjQ8HHLlmIudHmhUA4RRhHgKBhyE6H0fTuRg2AZ1MpL2zeQEQzuEoAo9wxgHpPFgxzjujeL3ThBcAItUCFIG8WIzZMPC/EJW1J7tZHIA6Asg+UIARJ7SaBjt5qU/ytDgAdQSQ40BxFHev2GWrHkYg3sXiANSNhKi5gCwN574yeuMKzNHUfOBgeQAIZUQpKj4QyT1KthyqtHK6neUBIByjipFrQ84xolbJ0IT/7IEyywNAOMWgVkYYUbL37hnNSoDXc4POcfm0BETWzl6tAgL8PNRKOyZQbDbCz55mD7M3E4D0/ty1qZagIyRP/AGJZ6c+Y+IPpGVmnti9I3puv3Yq+iOhgafg540qZ/FCYCHgbN0chqFOtRQZJYtwcuw4fEtm/ctxNWfjR3ShdRUH3YCfOSsLc+cBQCK4Ez8BRx9FnDA29jQ4U9acX/YvOj8hHFGe//Gngdj2224CU75mW2ERQMYJUUfm0mOCqSc15SZE5mvV3j6464JOkKziJLxIjmpJPsujSprUOX6UKtukIA5eVp8djRl8HQfuQ5Mnu+PpVMUWsD2slb++K+Vo2Oc2oqH+RvxLOO9qswwSzckZjdmtnGNKWAIg/zr0KuW8PhZ5APvx4eEYexBdYXn1ho1emAScolifV6hKHU6VBiWbgiRQfWNlW64vah8FLX5+b5gVJgHHCNZHlgxXQqn6gIJCY3HyTDW39+x9Af4um31xZxdknJCCwOleFNxFbrFojTU5/x3OZX2oXoPQWTjVFpeAM/s+oD0QQBVxcF9CNZdm7x/M+p0d5yOPlt0aZI0JAB0jQkvFBqpQj8hvC5VGbc7B8TasXlExCX3/S216dzE2gQWsCZS9S/UrWnnFUV5Yoiu5GMEiWCYfm0MxW9ekB0saoQ+cb0Wp0XUp9ZUttZrCLW8zDJUoY6iPlhtyh+N6mSL240DNVOo8IIcP6IqTGfQFXwxWWolpVtrSHqdoj1brV7vjfgZOsWy7wE2a+cd6ajaDe4tKf1ge6mNvK5NCpxWxTNH6MKO3KY33Vkhx8p0cWQMgl9CM5dYTs3TMXj5jR+ykfq3Vrq6uLRyVz8TRxdUjaNFxppc/GYuOvN9W7apSAsIsY63Tafinqi0v1SBqe9yhXeOHHCtnsdS4e/nSpR93Pi+btO30pYJadj9J9d1Lx8H6S1OY2C8ZDhsDdPnpWxaFJZ6+XgJ9k/60351P4kP2lVH4lj1MAHhthXSq0hOj/nba5PN/hi3zk+g9EJsZl6qbBIBOWZCPar3P8793+woyq2UzORrS/0iZ0fIBiPr8BQ5N6+unOdkehJjBaB3it/ZOrcUDkI0Fv/8TPi884n0VVD2SWSRj8v5H/JpU/JhvAM7gMfj8USbPgAfkyEiGc6z77BQdj/YXLV6j4xmA10FwiWG6aHUHf8bdjD3Nl1df5c3+wii55w4dvwBaA9VgtFsAvwZMgUhj7ms7hO7M48f+gkh7Quy/VccrgIBM01bliwCffB0GgLoFot+49Xd4sP/2vCdxRSv/xCLzAigNA3ylBCwAdS/tMWTdPVz7r45zeOrxi71icnkE4HcS2ABIBHrAfkwAdQw9Bq26VoNhfvXRQc8WICKXyT/xB8BjD7BWTQGmygxA9Res11ySFj3nn+RcNyfno5fqOZ+KkM0lfAFQ7wSaXTddRKnAYp+rOCw7xfYtByy9zGVW1P0w1PmF1YfEZ+YlPT8AlDHgvqPpId5oUPVcbktvidJn8JYHLM3XX3y/pWkwXqTo8NEDXgDYzwMXwj+/mOPXFzLqhnIOP0iV6pBF3xYw34y5MM3bBhLvENu1j/3dwMNaoD+4Gq7eXz/gYZ8FWQtgbc2KrRUuvWO/Z/AZ1z5IDLZDhXtEMvtR+zXYq8F2ZyHUD/xTPrdvFgRzipzAFJHYSt72nXmbv8vRVut0+hpT0eu0+cmR7WnihiKxZNCaM1rtUwWGWlNh5K+6rYVFmbImuVtLJFKZahG00Ow8HjOBW/QICRkdGWUik15hnr0rbvHa7Kio2M3HTGUBo3FpBHx6zj2atHpfBrzYs6G7iBCOdEljPS1lqARkP6FaxjZ0VTPLRkgAiJ4XWQK45Cko+wnHGHalXctHyIQFgAhOZQXgmLfA7Cfs5rCpbZ830kZoAIiW60sZ21+ywpUQnnQ9zHSLuOxzPwHaT0heTWW2kVVzuItYiAAI2YgrTAjU/DBARghTFKFntPT9//AAW0KoIgs5SHfhVsnnXWSEcMUqYAN1yC5vhZ+YELR4vpuGDtyWHxvpSghdbFtNvYkY/a5M8rYhmoHIfZdANnEMGbO8moX5T3uBe/+k+y/Gv+Z1VzUb859GmKwVviMjd6fVyRer5oaq5LCo5P8CvmUudkVVRgQAAAAldEVYdGRhdGU6Y3JlYXRlADIwMjEtMDUtMDFUMjI6MjA6NDMrMDA6MDDnqsJZAAAAJXRFWHRkYXRlOm1vZGlmeQAyMDIxLTA1LTAxVDIyOjIwOjQzKzAwOjAwlvd65QAAAABJRU5ErkJggg==" vertex="1" parent="1">
          <mxGeometry x="580" y="348.26" width="44" height="44" as="geometry" />
        </mxCell>
        <mxCell id="6JaRcq2dVbDghGMQPrxV-10" value="" style="shape=image;verticalLabelPosition=bottom;verticalAlign=top;imageAspect=0;aspect=fixed;image=data:image/png,iVBORw0KGgoAAAANSUhEUgAAAQAAAAEACAMAAABrrFhUAAAABGdBTUEAALGPC/xhBQAAACBjSFJNAAB6JgAAgIQAAPoAAACA6AAAdTAAAOpgAAA6mAAAF3CculE8AAAAB3RJTUUH5QUBFhQrYLg5UwAAAwBQTFRFAAAAAAAAAAAAAAAAAAAAAAAAAAAAAAAAAAAAAAAAAAAAAAAAAAAAAAAAAAAAAAAAAAAAAAAAAAAAAAAAAAAAAAAAAAAAAAAAAAAAAAAAAAAAAAAAAAAAAAAAAAAAAAAAAAAAAAAAAAAAAAAAAAAAAAAAAAAAAAAAAAAAAAAAAAAAAAAAAAAAAAAAAAAAAAAAAAAAAAAAAAAAAAAAAAAAAAAAAAAAAAAAAAAAAAAAAAAAAAAAAAAAAAAAAAAAAAAAAAAAAAAAAAAAAAAAAAAAAAAAAAAAAAAAAAAAAAAAAAAAAAAAAAAAAAAAAAAAAAAAAAAAAAAAAAAAAAAAAAAAAAAAAAAAAAAAAAAAAAAAAAAAAAAAAAAAAAAAAAAAAAAAAAAAAAAAAAAAAAAAAAAAAAAAAAAAAAAAAAAAAAAAAAAAAAAAAAAAAAAAAAAAAAAAAAAAAAAAAAAAAAAAAAAAAAAAAAAAAAAAAAAAAAAAAAAAAAAAAAAAAAAAAAAAAAAAAAAAAAAAAAAAAAAAAAAAAAAAAAAAAAAAAAAAAAAAAAAAAAAAAAAAAAAAAAAAAAAAAAAAAAAAAAAAAAAAAAAAAAAAAAAAAAAAAAAAAAAAAAAAAAAAAAAAAAAAAAAAAAAAAAAAAAAAAAAAAAAAAAAAAAAAAAAAAAAAAAAAAAAAAAAAAAAAAAAAAAAAAAAAAAAAAAAAAAAAAAAAAAAAAAAAAAAAAAAAAAAAAAAAAAAAAAAAAAAAAAAAAAAAAAAAAAAAAAAAAAAAAAAAAAAAAAAAAAAAAAAAAAAAAAAAAAAAAAAAAAAAAAAAAAAAAAAAAAAAAAAAAAAAAAAAAAAAAAAAAAAAAAAAAAAAAAAAAAAAAAAAAAAAAAAAAAAAAAAAAAAAAAAAAAAAAAAAAAAAAAAAAAAAAAAAAAAAAAAAAAAAAAAAAAAAAAAAAAAAAAAAAAAAAAAAAAAAAAAAAAAAAAAAAAAAAAAAAAAAAAAAAAAAAAAAAAAAAAAAAAAAAAAAAAAAszD0iAAAAP90Uk5TAAECAwQFBgcICQoLDA0ODxAREhMUFRYXGBkaGxwdHh8gISIjJCUmJygpKissLS4vMDEyMzQ1Njc4OTo7PD0+P0BBQkNERUZHSElKS0xNTk9QUVJTVFVWV1hZWltcXV5fYGFiY2RlZmdoaWprbG1ub3BxcnN0dXZ3eHl6e3x9fn+AgYKDhIWGh4iJiouMjY6PkJGSk5SVlpeYmZqbnJ2en6ChoqOkpaanqKmqq6ytrq+wsbKztLW2t7i5uru8vb6/wMHCw8TFxsfIycrLzM3Oz9DR0tPU1dbX2Nna29zd3t/g4eLj5OXm5+jp6uvs7e7v8PHy8/T19vf4+fr7/P3+6wjZNQAAAAFiS0dE/6UH8sUAABcTSURBVHja7Z15QFPH1sBvQkIIAQIEgbC7gGLdlT4RrVq7qLXUfd/aulWsCyCCoLa4tOKTok+tda9+al2fbS1qiwtisaItaNVqtaKCUDbLFkJCyP3QflrMzNxtbiBcvvMvdw73/DJ35syZM2cIQrgitlb4joj48nydnFy3crjKViYmmpHYuvf/LJusLzc391PZiJqJ+XLvJXdIQAyXZrezbRa/fqupl0io1N6a4WsjePvdp56vIVGiOTnCVdjmWwWs+YukkrxVbSQCtl/W60AFSS3l+3rJBGu/IvS0lqQT/Xd9hUpANvyKgSSbLwHJq6lM7BcugY77q0hmoj/UQYB+YcvPikmmUr5CeLOh3Zx8krk8HC44jyg4lWQj51oKzH7HGA0rANWzBLYu+Fc6yU5+8RKU/cqoapYA9LMENQp0TiXZSoaKx//fonuvXqMiF5rIxD7OzFcxrQbMXgiTtxj5QCPgK8BHXyUk7L9cCf2boTt2fEQktpIHhM79/PSf2mqdTl9jKnqdNu+7hUFWYhG1FsnAhNN1GkAFT2QXkzdRLYdYqLs4yV0qkUhlqugiGIF5UsyYm0vvxadK6Lua4f66V+2kCAYimf3IfZTj9x4mb9PuLNhQe9D7+d/7XoU4ySnc5wGp0j0k6ps/GX9uVWnTvGEBObFd+9jbNP47EwCifiDD6q/q22d/FaKaoysgUfoM/uIByxFHl/5+S9MFiEjR4aP7tC2ZALCfB4a/fu72wiN9IV/BMC49377lgKUZOpK96L4f6vzCCkTiO+snPckLAGUU0Kxkvskz0aDqxex/fLfg+SfKSI7ycNlL1vWCFyHbK5i0YgLAbRPQ7LrcdJwE54IEtuZ7DPz3bzUkd6k+OvDZdylymfwTs0ZMAHjsAUbe00C05DK38fWfgc97yLp7JKZkjXV4OhaKvaJzSP4A+J0Ewr+JwPvvB1Snsfn1/SdsvkPiy+25yidej//aQpJHAAGZpq1KwwALEjAAiJSj9j4ieZGCCDtC7L+VuefOqAd8b9qqcjnQA3ZwByDus/o3ki8piJK33s5i5cIEgHonsNQ5DowBVzgDcA8/ryP5k8LF69ioYwLAeaVpK+M1B9OAQTmg+iAj822G7C0ieZXiEpJnABBHqHCayTPhoOrlTOz3+/dVA9mYwgSAdCjQrCY96IVHukB81/EMVPc/UmYkLR4A0RscVCq2udV7wPZbiBm+9N1/+qVqkmwCADqAXo6xaJ3P8793g20ZZMjp1PqsfVhDNgkAzkvBhsbSE6P+HglV4T/DfscEa7run1zOovv/cTkjI33Xxmey/UxGYS3L5dIfGd9tBGQKo4l60GOYwvz0XXGz16bcLIG+ydtWlDqtJ1zVM3rvsss74yb3a612rRNH5TNxdHH1CIr+jikDY/HRaW3VriolIHJGc5X/AXgwprqiVIPoxZnu1PZPvcfg5UtTVoT62NvKpFCYYpmi9RFmEJd7K6Q4ITrZDNbf1hLKgJDDB3SLFYO+cMtgJU28r26G6vE97TiiT3DH3qvseZGl/TmtqHx/16XUG621msKtoXYMQ/YxFZRDieHRcCmu+YTtxFx29hui7SlC1F5xlPbrSn6K9GT+cvKxuRQEai4G4yftKCbksOwAV9pQ/P5+W6js1+YcmsBuU0Ux6SG6L6X3wN+qtxvP1v6/RqNNELktoQrw3vtqMOtwsuN85PL/1mDrRrC/OtGdwv5Y9O9fk/PVOw4cXlG9BqGzcCr+Jq2Ctf3aUx0p1EWg7S8+MUvN7SV7X4APRZt9se1XTWRrvyG1N9oHkk1BDqe6Gyvbcn1L+yiYq0ZmD7fCtd8pLpet/VdGUnS7ycjQ1+PDI5Tc37NrMuxVNmJv0jvHVrG0v+rCKAVaXx/UVo3+RvxLOC9qswyyA5g7Brv/Ly1naX/FsTcp7G+TgvB/q8+OdsR71XF3Qa0nu2Pa7/LxY5b2528MonA7lJsQy/+qva/gemudIN9AEmaOQovlRezCNZrUOZQ7ouGFcH2PPw3Ed1bB7auS2XhDYIsVBazsN/z+STCl/z7oBvwDKAtz5yGLZDWwKHowAUuh16f5CPtrj0D23WpSowdQ2xF4Ch6u1syy5yONJgJI5Lw5DEdf+63FqN8/KaDHlK2/1v+cqzISJ3emmcQcN8N3a+8P48V+IizPVHN6fwx1gV8ix/8kjzp/xqvzgGkJB9MyMzPP7o2f2beDG21+9PvZUKDZg3jKrAYBpPXhrq3dLuTm+meef8coxLYuXq0DAgJaejrbMgi2tEqGxv+zB/KVWc4rgLa7UIlFmjBXbqGleOhZG814OWGBAPx3oE6GaGY7crP/jStGqDoHwgIBtNqOCrNp5nB01122wmYAfbwLYXkAxAG7kEHa2RwHbKtpsLQvfZInYXkArIIvoGLrRR9y7bDtj8HciVPdCMsDIEHbn7+A63JVuhA2p9wdJbU8AJLgNFS06n445/Va4GHYAiAawVPetqOp2DcUACu0/VlTFJy3VaZDjttod6ICx+2+uWoqvRoIgLgXqv/rMydwj64GHoJovPw66vEut4GH32wgAL1+RNo/kbv9kgkFoMaixbYWB0DaF2V/DY79hPdmCNGvOxCWBsB63GUj6vvH6P+EZCjEB7g7VWppAKwn3kbYb7g2Hmd3xX0txKPc7kZYGADrKTcR8cqaH8dg7S4FZYI6bwwhLAyA9bvXEdlqhpT+WP6KbKIW0gEcLQyA7L1fUeuf0y/jOWg+uyEpzYMJywJgjbY/Fddf7wHuLFXtsmskAM5hJ6HyQzbSftytBbsw8NP64w2ikQCoN7Dc5zjXDTe7wAtcBuiOypsKgHPdcDdXxb3A2Frh+0QTAZDcGXtzWfEhqPZ3VRMB8Hlr/OyaFv8DzoGriSYBwLjZl4fiaL7gQaCCvk0CgH6TDw9RGnEwGAhLJZoCgKrPeamBIQfPUVQvbwoAKr5ozUucTgmGQipC6Br1BD4b3WsNDKBsiz8/gUo1mBHzgDayBqYR/RHcoACMBf8J4Md+UQ9Q+XbaVsuBTbSrPRoSgDF3KV/VLySTwDFwHK3zfATYRDrboQEBGHOX8bZfJY0FV9dt6Bq9A2Y7HWzTcACMj5byV/3EZh+YRUXXJuAbMJFqq0+DATDmL+Gx+ovtz2DmGk2TlklgyTL9HEVDATAWxvJZ/UYBnglNoh40XtkGqRxypx/RUABKYpx5tJ/wAf/DZIqwlE/v+amwxIzD7RoKQPaHTnzaT7wC/osdi1Gy4svkn/Kggck4yCZiyALT9t+U0wOwf3slpYxQ8Go/EQFJMShCSSnqDPH9UMiqdMFt0/YVtfQAxHYulCLl135iFcmH7Ia55bEMjpzjZIlZEIB746XNG8AmaP5p0wCwgQf7fxshbroAzuHbr1sHd0yaBoA0bPuNhxCBiWYCoDYVFT6xDABiqVQqEZkPQO0N5KGfRgcgtnVWe/ccM2ZMaAdfH3eltTkAGLIXEpYJQGTvHTR376/PIjeVWZ+NCfSw5RuA/pcZNpYJoEXX8DOmi5ayo+91cOQVQNUZqlhwIwJQ9lwNrfpm+C26mxNvAIx5e4IISwQgaR/xAHWURn81qp0VPwAqz4d7EJYIwP6dr6kumSg/9KodDwAq0z6hy0tpJACeM+9Qlz4xZExTYwLQ303+OIR2W7pxAPivekBb+iX7Iz/uALR5WfuWje3MICutUQC8tIFJ3bf8T33RAH7ZtAEtqxbMnjCwDbOcvDdXm7YGo2l8A/BOZFanLn+1DxLAJm81WtgcR7BzM229uMDMALzimVa9/HO+EwpAgvmuYeL33CAo8pnMqz3fGWojPAB9L7CoXfZDW8EBcFujZTOar1AJDIBkHLtSIsX9JcICELCPZeXLo67CAhDKtpZG9ZNSOsIB4Pkf1qVPE+0sEIDI2pabvAatflOrq9Joqqr1UDi5agsEoOYjUP/c/Ir02W1khNfg6N+gpTEWSoUNoObGzGcBq5bbYdVGvrYRNIDaa/UrlEyCpDXkOwgZgDHvxTs24iEVYgOEDECz7cWAreI8+Mx4IQO4195EdQj4zEYBA6hNN1VtA54P/l7AALRAwqv1N2BESsAAymNMVUvX/z+A5gRAu62ZfwKMBsFjQp4G73ennwaThAygaqeJIwS5k3O6sF3heS9o/hjiCgcJejFkuDa0nuKJkDo5lU4CXw5fD3OkXA7vtxF8QOTiB08CIoMW3YQWyx1iJaCQ2OsPWIfEHrkJKii6nnVQdKu9oMLiA9mWWK8SVlic8NrArgvUbnQW2N7gMHY3Qt5/erOHoDZHP6lgYb8+zlFw2+PdjzO/GM2QFii47XFCOuo6YwBZQ1AJEmCKjJJLnQpbVzDBJsbcKTIOkUyHgdvv/l/xVSZJUqPZVVaWqPuMmb5g2TowxSq10uxJUgyThPIjnp2+ZJImt5FFapSVb2jUlgsPmV7OzXuanHd8HoN/m7PSjzAPgLYf7vu1ksVQzH+ipNfHD+kShQy/RnoTZgHgMffbfHbOmDlSZd+9QH2nb/XZ0fUOOfEIwGbckTy23rg5kqVtgjdQ3TtStK1P/TGNPwDqT26xv53XPOcFvMejSo+SmuTRrVinyzMC0H5HMYfbec10YELWZeYZ2L/TnZveziTPly8AvY5XcLmd2GxHZhT+oftMb/i7lTDEHzh7zhOAt85zu53YjKfGpO7t3lx84Fni0M3jawe3cYYcceYHQNdkjrcTm/fcoMRO5enb8a0x3X191S4O8IP3vABw26QhLRHA3zE2iZSq5B4fAGxXVpGWC4BGzuIDsJpVSDZdAKvwAXQ5TjZrANZzypo1AFH3ZLIpA4jHBeCwqLpJA/gAF0DnU2STBgAppJSyx0SmUESExO8Uwwwr+SXl4B5AMqroAchfnkgpIx35BcCulBbkC4iC7cre+vTNQDvzbI6WLeS3lJaiGJI2wkICjkLys05MUHGOCtMXU4vmtZgapJzeCVafEBiE1B5/WUqYD4CxgNdyelwKKtZv/h645XZtIM6+AJOCinE8EuBUUvMfUS4CmhcvkZsXAL8lNTkVVf1HXEBH6oY/YWYAT4rK8lZUlVtZ3X+C0NsBfBckZgfAZ1ldQg1mljxgXrPQByhNr91NmB9AHQHeCqtyKq39XNoBtchK5jcEANKYF8fTbMipuPpz6ZgFhN1nNAgA0vhnDD8eEay8/jnGrTtdaywApLFoET9eMZcLFiwBAEn+FaHkAwCXKzYsAwBZGcnHV8DlkhULAUBqIpzxLxnhcs2OpQAgNQtU+ARgFy0dkTcNALwQsAsDMwr+eL2JAHhCALsLBIFLWg31ZWtmBIC6bO3cn4jNV0049kgIvW5vUCMBQIlqWS6KQCTubMj+wsVGAEC4LH2E7AO4HlFQFqiV8srNxgBAqJbmIQiURmF+BdBLV7e5WRgAQhVXgCBQjHnpAvTa3TtTpRYGgHBeXIxaGWHGCaEXLx/rYGkACKdFpajVMV58gO3V240FgHCM0JgnTgi9fD3jdYsDQCgjq8wSJZPNgNRY0e6kjQ8HHLlmIudHmhUA4RRhHgKBhyE6H0fTuRg2AZ1MpL2zeQEQzuEoAo9wxgHpPFgxzjujeL3ThBcAItUCFIG8WIzZMPC/EJW1J7tZHIA6Asg+UIARJ7SaBjt5qU/ytDgAdQSQ40BxFHev2GWrHkYg3sXiANSNhKi5gCwN574yeuMKzNHUfOBgeQAIZUQpKj4QyT1KthyqtHK6neUBIByjipFrQ84xolbJ0IT/7IEyywNAOMWgVkYYUbL37hnNSoDXc4POcfm0BETWzl6tAgL8PNRKOyZQbDbCz55mD7M3E4D0/ty1qZagIyRP/AGJZ6c+Y+IPpGVmnti9I3puv3Yq+iOhgafg540qZ/FCYCHgbN0chqFOtRQZJYtwcuw4fEtm/ctxNWfjR3ShdRUH3YCfOSsLc+cBQCK4Ez8BRx9FnDA29jQ4U9acX/YvOj8hHFGe//Gngdj2224CU75mW2ERQMYJUUfm0mOCqSc15SZE5mvV3j6464JOkKziJLxIjmpJPsujSprUOX6UKtukIA5eVp8djRl8HQfuQ5Mnu+PpVMUWsD2slb++K+Vo2Oc2oqH+RvxLOO9qswwSzckZjdmtnGNKWAIg/zr0KuW8PhZ5APvx4eEYexBdYXn1ho1emAScolifV6hKHU6VBiWbgiRQfWNlW64vah8FLX5+b5gVJgHHCNZHlgxXQqn6gIJCY3HyTDW39+x9Af4um31xZxdknJCCwOleFNxFbrFojTU5/x3OZX2oXoPQWTjVFpeAM/s+oD0QQBVxcF9CNZdm7x/M+p0d5yOPlt0aZI0JAB0jQkvFBqpQj8hvC5VGbc7B8TasXlExCX3/S216dzE2gQWsCZS9S/UrWnnFUV5Yoiu5GMEiWCYfm0MxW9ekB0saoQ+cb0Wp0XUp9ZUttZrCLW8zDJUoY6iPlhtyh+N6mSL240DNVOo8IIcP6IqTGfQFXwxWWolpVtrSHqdoj1brV7vjfgZOsWy7wE2a+cd6ajaDe4tKf1ge6mNvK5NCpxWxTNH6MKO3KY33Vkhx8p0cWQMgl9CM5dYTs3TMXj5jR+ykfq3Vrq6uLRyVz8TRxdUjaNFxppc/GYuOvN9W7apSAsIsY63Tafinqi0v1SBqe9yhXeOHHCtnsdS4e/nSpR93Pi+btO30pYJadj9J9d1Lx8H6S1OY2C8ZDhsDdPnpWxaFJZ6+XgJ9k/60351P4kP2lVH4lj1MAHhthXSq0hOj/nba5PN/hi3zk+g9EJsZl6qbBIBOWZCPar3P8793+woyq2UzORrS/0iZ0fIBiPr8BQ5N6+unOdkehJjBaB3it/ZOrcUDkI0Fv/8TPi884n0VVD2SWSRj8v5H/JpU/JhvAM7gMfj8USbPgAfkyEiGc6z77BQdj/YXLV6j4xmA10FwiWG6aHUHf8bdjD3Nl1df5c3+wii55w4dvwBaA9VgtFsAvwZMgUhj7ms7hO7M48f+gkh7Quy/VccrgIBM01bliwCffB0GgLoFot+49Xd4sP/2vCdxRSv/xCLzAigNA3ylBCwAdS/tMWTdPVz7r45zeOrxi71icnkE4HcS2ABIBHrAfkwAdQw9Bq26VoNhfvXRQc8WICKXyT/xB8BjD7BWTQGmygxA9Res11ySFj3nn+RcNyfno5fqOZ+KkM0lfAFQ7wSaXTddRKnAYp+rOCw7xfYtByy9zGVW1P0w1PmF1YfEZ+YlPT8AlDHgvqPpId5oUPVcbktvidJn8JYHLM3XX3y/pWkwXqTo8NEDXgDYzwMXwj+/mOPXFzLqhnIOP0iV6pBF3xYw34y5MM3bBhLvENu1j/3dwMNaoD+4Gq7eXz/gYZ8FWQtgbc2KrRUuvWO/Z/AZ1z5IDLZDhXtEMvtR+zXYq8F2ZyHUD/xTPrdvFgRzipzAFJHYSt72nXmbv8vRVut0+hpT0eu0+cmR7WnihiKxZNCaM1rtUwWGWlNh5K+6rYVFmbImuVtLJFKZahG00Ow8HjOBW/QICRkdGWUik15hnr0rbvHa7Kio2M3HTGUBo3FpBHx6zj2atHpfBrzYs6G7iBCOdEljPS1lqARkP6FaxjZ0VTPLRkgAiJ4XWQK45Cko+wnHGHalXctHyIQFgAhOZQXgmLfA7Cfs5rCpbZ830kZoAIiW60sZ21+ywpUQnnQ9zHSLuOxzPwHaT0heTWW2kVVzuItYiAAI2YgrTAjU/DBARghTFKFntPT9//AAW0KoIgs5SHfhVsnnXWSEcMUqYAN1yC5vhZ+YELR4vpuGDtyWHxvpSghdbFtNvYkY/a5M8rYhmoHIfZdANnEMGbO8moX5T3uBe/+k+y/Gv+Z1VzUb859GmKwVviMjd6fVyRer5oaq5LCo5P8CvmUudkVVRgQAAAAldEVYdGRhdGU6Y3JlYXRlADIwMjEtMDUtMDFUMjI6MjA6NDMrMDA6MDDnqsJZAAAAJXRFWHRkYXRlOm1vZGlmeQAyMDIxLTA1LTAxVDIyOjIwOjQzKzAwOjAwlvd65QAAAABJRU5ErkJggg==" vertex="1" parent="1">
          <mxGeometry x="580" y="409" width="44" height="44" as="geometry" />
        </mxCell>
        <mxCell id="6JaRcq2dVbDghGMQPrxV-11" value="" style="shape=image;verticalLabelPosition=bottom;verticalAlign=top;imageAspect=0;aspect=fixed;image=data:image/png,iVBORw0KGgoAAAANSUhEUgAAAQAAAAEACAMAAABrrFhUAAAABGdBTUEAALGPC/xhBQAAACBjSFJNAAB6JgAAgIQAAPoAAACA6AAAdTAAAOpgAAA6mAAAF3CculE8AAAAB3RJTUUH5QUBFhQrYLg5UwAAAwBQTFRFAAAAAAAAAAAAAAAAAAAAAAAAAAAAAAAAAAAAAAAAAAAAAAAAAAAAAAAAAAAAAAAAAAAAAAAAAAAAAAAAAAAAAAAAAAAAAAAAAAAAAAAAAAAAAAAAAAAAAAAAAAAAAAAAAAAAAAAAAAAAAAAAAAAAAAAAAAAAAAAAAAAAAAAAAAAAAAAAAAAAAAAAAAAAAAAAAAAAAAAAAAAAAAAAAAAAAAAAAAAAAAAAAAAAAAAAAAAAAAAAAAAAAAAAAAAAAAAAAAAAAAAAAAAAAAAAAAAAAAAAAAAAAAAAAAAAAAAAAAAAAAAAAAAAAAAAAAAAAAAAAAAAAAAAAAAAAAAAAAAAAAAAAAAAAAAAAAAAAAAAAAAAAAAAAAAAAAAAAAAAAAAAAAAAAAAAAAAAAAAAAAAAAAAAAAAAAAAAAAAAAAAAAAAAAAAAAAAAAAAAAAAAAAAAAAAAAAAAAAAAAAAAAAAAAAAAAAAAAAAAAAAAAAAAAAAAAAAAAAAAAAAAAAAAAAAAAAAAAAAAAAAAAAAAAAAAAAAAAAAAAAAAAAAAAAAAAAAAAAAAAAAAAAAAAAAAAAAAAAAAAAAAAAAAAAAAAAAAAAAAAAAAAAAAAAAAAAAAAAAAAAAAAAAAAAAAAAAAAAAAAAAAAAAAAAAAAAAAAAAAAAAAAAAAAAAAAAAAAAAAAAAAAAAAAAAAAAAAAAAAAAAAAAAAAAAAAAAAAAAAAAAAAAAAAAAAAAAAAAAAAAAAAAAAAAAAAAAAAAAAAAAAAAAAAAAAAAAAAAAAAAAAAAAAAAAAAAAAAAAAAAAAAAAAAAAAAAAAAAAAAAAAAAAAAAAAAAAAAAAAAAAAAAAAAAAAAAAAAAAAAAAAAAAAAAAAAAAAAAAAAAAAAAAAAAAAAAAAAAAAAAAAAAAAAAAAAAAAAAAAAAAAAAAAAAAAAAAAAAAAAAAAAAAAAAAAAAAAAAAAAAAAAAAAAAAAAAAAAAAAAAAAAAAAAAAAAAAAAAAAAAAAAAAAAAAAAAAAAAAAAAAAszD0iAAAAP90Uk5TAAECAwQFBgcICQoLDA0ODxAREhMUFRYXGBkaGxwdHh8gISIjJCUmJygpKissLS4vMDEyMzQ1Njc4OTo7PD0+P0BBQkNERUZHSElKS0xNTk9QUVJTVFVWV1hZWltcXV5fYGFiY2RlZmdoaWprbG1ub3BxcnN0dXZ3eHl6e3x9fn+AgYKDhIWGh4iJiouMjY6PkJGSk5SVlpeYmZqbnJ2en6ChoqOkpaanqKmqq6ytrq+wsbKztLW2t7i5uru8vb6/wMHCw8TFxsfIycrLzM3Oz9DR0tPU1dbX2Nna29zd3t/g4eLj5OXm5+jp6uvs7e7v8PHy8/T19vf4+fr7/P3+6wjZNQAAAAFiS0dE/6UH8sUAABcTSURBVHja7Z15QFPH1sBvQkIIAQIEgbC7gGLdlT4RrVq7qLXUfd/aulWsCyCCoLa4tOKTok+tda9+al2fbS1qiwtisaItaNVqtaKCUDbLFkJCyP3QflrMzNxtbiBcvvMvdw73/DJ35syZM2cIQrgitlb4joj48nydnFy3crjKViYmmpHYuvf/LJusLzc391PZiJqJ+XLvJXdIQAyXZrezbRa/fqupl0io1N6a4WsjePvdp56vIVGiOTnCVdjmWwWs+YukkrxVbSQCtl/W60AFSS3l+3rJBGu/IvS0lqQT/Xd9hUpANvyKgSSbLwHJq6lM7BcugY77q0hmoj/UQYB+YcvPikmmUr5CeLOh3Zx8krk8HC44jyg4lWQj51oKzH7HGA0rANWzBLYu+Fc6yU5+8RKU/cqoapYA9LMENQp0TiXZSoaKx//fonuvXqMiF5rIxD7OzFcxrQbMXgiTtxj5QCPgK8BHXyUk7L9cCf2boTt2fEQktpIHhM79/PSf2mqdTl9jKnqdNu+7hUFWYhG1FsnAhNN1GkAFT2QXkzdRLYdYqLs4yV0qkUhlqugiGIF5UsyYm0vvxadK6Lua4f66V+2kCAYimf3IfZTj9x4mb9PuLNhQe9D7+d/7XoU4ySnc5wGp0j0k6ps/GX9uVWnTvGEBObFd+9jbNP47EwCifiDD6q/q22d/FaKaoysgUfoM/uIByxFHl/5+S9MFiEjR4aP7tC2ZALCfB4a/fu72wiN9IV/BMC49377lgKUZOpK96L4f6vzCCkTiO+snPckLAGUU0Kxkvskz0aDqxex/fLfg+SfKSI7ycNlL1vWCFyHbK5i0YgLAbRPQ7LrcdJwE54IEtuZ7DPz3bzUkd6k+OvDZdylymfwTs0ZMAHjsAUbe00C05DK38fWfgc97yLp7JKZkjXV4OhaKvaJzSP4A+J0Ewr+JwPvvB1Snsfn1/SdsvkPiy+25yidej//aQpJHAAGZpq1KwwALEjAAiJSj9j4ieZGCCDtC7L+VuefOqAd8b9qqcjnQA3ZwByDus/o3ki8piJK33s5i5cIEgHonsNQ5DowBVzgDcA8/ryP5k8LF69ioYwLAeaVpK+M1B9OAQTmg+iAj822G7C0ieZXiEpJnABBHqHCayTPhoOrlTOz3+/dVA9mYwgSAdCjQrCY96IVHukB81/EMVPc/UmYkLR4A0RscVCq2udV7wPZbiBm+9N1/+qVqkmwCADqAXo6xaJ3P8793g20ZZMjp1PqsfVhDNgkAzkvBhsbSE6P+HglV4T/DfscEa7run1zOovv/cTkjI33Xxmey/UxGYS3L5dIfGd9tBGQKo4l60GOYwvz0XXGz16bcLIG+ydtWlDqtJ1zVM3rvsss74yb3a612rRNH5TNxdHH1CIr+jikDY/HRaW3VriolIHJGc5X/AXgwprqiVIPoxZnu1PZPvcfg5UtTVoT62NvKpFCYYpmi9RFmEJd7K6Q4ITrZDNbf1hLKgJDDB3SLFYO+cMtgJU28r26G6vE97TiiT3DH3qvseZGl/TmtqHx/16XUG621msKtoXYMQ/YxFZRDieHRcCmu+YTtxFx29hui7SlC1F5xlPbrSn6K9GT+cvKxuRQEai4G4yftKCbksOwAV9pQ/P5+W6js1+YcmsBuU0Ux6SG6L6X3wN+qtxvP1v6/RqNNELktoQrw3vtqMOtwsuN85PL/1mDrRrC/OtGdwv5Y9O9fk/PVOw4cXlG9BqGzcCr+Jq2Ctf3aUx0p1EWg7S8+MUvN7SV7X4APRZt9se1XTWRrvyG1N9oHkk1BDqe6Gyvbcn1L+yiYq0ZmD7fCtd8pLpet/VdGUnS7ycjQ1+PDI5Tc37NrMuxVNmJv0jvHVrG0v+rCKAVaXx/UVo3+RvxLOC9qswyyA5g7Brv/Ly1naX/FsTcp7G+TgvB/q8+OdsR71XF3Qa0nu2Pa7/LxY5b2528MonA7lJsQy/+qva/gemudIN9AEmaOQovlRezCNZrUOZQ7ouGFcH2PPw3Ed1bB7auS2XhDYIsVBazsN/z+STCl/z7oBvwDKAtz5yGLZDWwKHowAUuh16f5CPtrj0D23WpSowdQ2xF4Ch6u1syy5yONJgJI5Lw5DEdf+63FqN8/KaDHlK2/1v+cqzISJ3emmcQcN8N3a+8P48V+IizPVHN6fwx1gV8ix/8kjzp/xqvzgGkJB9MyMzPP7o2f2beDG21+9PvZUKDZg3jKrAYBpPXhrq3dLuTm+meef8coxLYuXq0DAgJaejrbMgi2tEqGxv+zB/KVWc4rgLa7UIlFmjBXbqGleOhZG814OWGBAPx3oE6GaGY7crP/jStGqDoHwgIBtNqOCrNp5nB01122wmYAfbwLYXkAxAG7kEHa2RwHbKtpsLQvfZInYXkArIIvoGLrRR9y7bDtj8HciVPdCMsDIEHbn7+A63JVuhA2p9wdJbU8AJLgNFS06n445/Va4GHYAiAawVPetqOp2DcUACu0/VlTFJy3VaZDjttod6ICx+2+uWoqvRoIgLgXqv/rMydwj64GHoJovPw66vEut4GH32wgAL1+RNo/kbv9kgkFoMaixbYWB0DaF2V/DY79hPdmCNGvOxCWBsB63GUj6vvH6P+EZCjEB7g7VWppAKwn3kbYb7g2Hmd3xX0txKPc7kZYGADrKTcR8cqaH8dg7S4FZYI6bwwhLAyA9bvXEdlqhpT+WP6KbKIW0gEcLQyA7L1fUeuf0y/jOWg+uyEpzYMJywJgjbY/Fddf7wHuLFXtsmskAM5hJ6HyQzbSftytBbsw8NP64w2ikQCoN7Dc5zjXDTe7wAtcBuiOypsKgHPdcDdXxb3A2Frh+0QTAZDcGXtzWfEhqPZ3VRMB8Hlr/OyaFv8DzoGriSYBwLjZl4fiaL7gQaCCvk0CgH6TDw9RGnEwGAhLJZoCgKrPeamBIQfPUVQvbwoAKr5ozUucTgmGQipC6Br1BD4b3WsNDKBsiz8/gUo1mBHzgDayBqYR/RHcoACMBf8J4Md+UQ9Q+XbaVsuBTbSrPRoSgDF3KV/VLySTwDFwHK3zfATYRDrboQEBGHOX8bZfJY0FV9dt6Bq9A2Y7HWzTcACMj5byV/3EZh+YRUXXJuAbMJFqq0+DATDmL+Gx+ovtz2DmGk2TlklgyTL9HEVDATAWxvJZ/UYBnglNoh40XtkGqRxypx/RUABKYpx5tJ/wAf/DZIqwlE/v+amwxIzD7RoKQPaHTnzaT7wC/osdi1Gy4svkn/Kggck4yCZiyALT9t+U0wOwf3slpYxQ8Go/EQFJMShCSSnqDPH9UMiqdMFt0/YVtfQAxHYulCLl135iFcmH7Ia55bEMjpzjZIlZEIB746XNG8AmaP5p0wCwgQf7fxshbroAzuHbr1sHd0yaBoA0bPuNhxCBiWYCoDYVFT6xDABiqVQqEZkPQO0N5KGfRgcgtnVWe/ccM2ZMaAdfH3eltTkAGLIXEpYJQGTvHTR376/PIjeVWZ+NCfSw5RuA/pcZNpYJoEXX8DOmi5ayo+91cOQVQNUZqlhwIwJQ9lwNrfpm+C26mxNvAIx5e4IISwQgaR/xAHWURn81qp0VPwAqz4d7EJYIwP6dr6kumSg/9KodDwAq0z6hy0tpJACeM+9Qlz4xZExTYwLQ303+OIR2W7pxAPivekBb+iX7Iz/uALR5WfuWje3MICutUQC8tIFJ3bf8T33RAH7ZtAEtqxbMnjCwDbOcvDdXm7YGo2l8A/BOZFanLn+1DxLAJm81WtgcR7BzM229uMDMALzimVa9/HO+EwpAgvmuYeL33CAo8pnMqz3fGWojPAB9L7CoXfZDW8EBcFujZTOar1AJDIBkHLtSIsX9JcICELCPZeXLo67CAhDKtpZG9ZNSOsIB4Pkf1qVPE+0sEIDI2pabvAatflOrq9Joqqr1UDi5agsEoOYjUP/c/Ir02W1khNfg6N+gpTEWSoUNoObGzGcBq5bbYdVGvrYRNIDaa/UrlEyCpDXkOwgZgDHvxTs24iEVYgOEDECz7cWAreI8+Mx4IQO4195EdQj4zEYBA6hNN1VtA54P/l7AALRAwqv1N2BESsAAymNMVUvX/z+A5gRAu62ZfwKMBsFjQp4G73ennwaThAygaqeJIwS5k3O6sF3heS9o/hjiCgcJejFkuDa0nuKJkDo5lU4CXw5fD3OkXA7vtxF8QOTiB08CIoMW3YQWyx1iJaCQ2OsPWIfEHrkJKii6nnVQdKu9oMLiA9mWWK8SVlic8NrArgvUbnQW2N7gMHY3Qt5/erOHoDZHP6lgYb8+zlFw2+PdjzO/GM2QFii47XFCOuo6YwBZQ1AJEmCKjJJLnQpbVzDBJsbcKTIOkUyHgdvv/l/xVSZJUqPZVVaWqPuMmb5g2TowxSq10uxJUgyThPIjnp2+ZJImt5FFapSVb2jUlgsPmV7OzXuanHd8HoN/m7PSjzAPgLYf7vu1ksVQzH+ipNfHD+kShQy/RnoTZgHgMffbfHbOmDlSZd+9QH2nb/XZ0fUOOfEIwGbckTy23rg5kqVtgjdQ3TtStK1P/TGNPwDqT26xv53XPOcFvMejSo+SmuTRrVinyzMC0H5HMYfbec10YELWZeYZ2L/TnZveziTPly8AvY5XcLmd2GxHZhT+oftMb/i7lTDEHzh7zhOAt85zu53YjKfGpO7t3lx84Fni0M3jawe3cYYcceYHQNdkjrcTm/fcoMRO5enb8a0x3X191S4O8IP3vABw26QhLRHA3zE2iZSq5B4fAGxXVpGWC4BGzuIDsJpVSDZdAKvwAXQ5TjZrANZzypo1AFH3ZLIpA4jHBeCwqLpJA/gAF0DnU2STBgAppJSyx0SmUESExO8Uwwwr+SXl4B5AMqroAchfnkgpIx35BcCulBbkC4iC7cre+vTNQDvzbI6WLeS3lJaiGJI2wkICjkLys05MUHGOCtMXU4vmtZgapJzeCVafEBiE1B5/WUqYD4CxgNdyelwKKtZv/h645XZtIM6+AJOCinE8EuBUUvMfUS4CmhcvkZsXAL8lNTkVVf1HXEBH6oY/YWYAT4rK8lZUlVtZ3X+C0NsBfBckZgfAZ1ldQg1mljxgXrPQByhNr91NmB9AHQHeCqtyKq39XNoBtchK5jcEANKYF8fTbMipuPpz6ZgFhN1nNAgA0vhnDD8eEay8/jnGrTtdaywApLFoET9eMZcLFiwBAEn+FaHkAwCXKzYsAwBZGcnHV8DlkhULAUBqIpzxLxnhcs2OpQAgNQtU+ARgFy0dkTcNALwQsAsDMwr+eL2JAHhCALsLBIFLWg31ZWtmBIC6bO3cn4jNV0049kgIvW5vUCMBQIlqWS6KQCTubMj+wsVGAEC4LH2E7AO4HlFQFqiV8srNxgBAqJbmIQiURmF+BdBLV7e5WRgAQhVXgCBQjHnpAvTa3TtTpRYGgHBeXIxaGWHGCaEXLx/rYGkACKdFpajVMV58gO3V240FgHCM0JgnTgi9fD3jdYsDQCgjq8wSJZPNgNRY0e6kjQ8HHLlmIudHmhUA4RRhHgKBhyE6H0fTuRg2AZ1MpL2zeQEQzuEoAo9wxgHpPFgxzjujeL3ThBcAItUCFIG8WIzZMPC/EJW1J7tZHIA6Asg+UIARJ7SaBjt5qU/ytDgAdQSQ40BxFHev2GWrHkYg3sXiANSNhKi5gCwN574yeuMKzNHUfOBgeQAIZUQpKj4QyT1KthyqtHK6neUBIByjipFrQ84xolbJ0IT/7IEyywNAOMWgVkYYUbL37hnNSoDXc4POcfm0BETWzl6tAgL8PNRKOyZQbDbCz55mD7M3E4D0/ty1qZagIyRP/AGJZ6c+Y+IPpGVmnti9I3puv3Yq+iOhgafg540qZ/FCYCHgbN0chqFOtRQZJYtwcuw4fEtm/ctxNWfjR3ShdRUH3YCfOSsLc+cBQCK4Ez8BRx9FnDA29jQ4U9acX/YvOj8hHFGe//Gngdj2224CU75mW2ERQMYJUUfm0mOCqSc15SZE5mvV3j6464JOkKziJLxIjmpJPsujSprUOX6UKtukIA5eVp8djRl8HQfuQ5Mnu+PpVMUWsD2slb++K+Vo2Oc2oqH+RvxLOO9qswwSzckZjdmtnGNKWAIg/zr0KuW8PhZ5APvx4eEYexBdYXn1ho1emAScolifV6hKHU6VBiWbgiRQfWNlW64vah8FLX5+b5gVJgHHCNZHlgxXQqn6gIJCY3HyTDW39+x9Af4um31xZxdknJCCwOleFNxFbrFojTU5/x3OZX2oXoPQWTjVFpeAM/s+oD0QQBVxcF9CNZdm7x/M+p0d5yOPlt0aZI0JAB0jQkvFBqpQj8hvC5VGbc7B8TasXlExCX3/S216dzE2gQWsCZS9S/UrWnnFUV5Yoiu5GMEiWCYfm0MxW9ekB0saoQ+cb0Wp0XUp9ZUttZrCLW8zDJUoY6iPlhtyh+N6mSL240DNVOo8IIcP6IqTGfQFXwxWWolpVtrSHqdoj1brV7vjfgZOsWy7wE2a+cd6ajaDe4tKf1ge6mNvK5NCpxWxTNH6MKO3KY33Vkhx8p0cWQMgl9CM5dYTs3TMXj5jR+ykfq3Vrq6uLRyVz8TRxdUjaNFxppc/GYuOvN9W7apSAsIsY63Tafinqi0v1SBqe9yhXeOHHCtnsdS4e/nSpR93Pi+btO30pYJadj9J9d1Lx8H6S1OY2C8ZDhsDdPnpWxaFJZ6+XgJ9k/60351P4kP2lVH4lj1MAHhthXSq0hOj/nba5PN/hi3zk+g9EJsZl6qbBIBOWZCPar3P8793+woyq2UzORrS/0iZ0fIBiPr8BQ5N6+unOdkehJjBaB3it/ZOrcUDkI0Fv/8TPi884n0VVD2SWSRj8v5H/JpU/JhvAM7gMfj8USbPgAfkyEiGc6z77BQdj/YXLV6j4xmA10FwiWG6aHUHf8bdjD3Nl1df5c3+wii55w4dvwBaA9VgtFsAvwZMgUhj7ms7hO7M48f+gkh7Quy/VccrgIBM01bliwCffB0GgLoFot+49Xd4sP/2vCdxRSv/xCLzAigNA3ylBCwAdS/tMWTdPVz7r45zeOrxi71icnkE4HcS2ABIBHrAfkwAdQw9Bq26VoNhfvXRQc8WICKXyT/xB8BjD7BWTQGmygxA9Res11ySFj3nn+RcNyfno5fqOZ+KkM0lfAFQ7wSaXTddRKnAYp+rOCw7xfYtByy9zGVW1P0w1PmF1YfEZ+YlPT8AlDHgvqPpId5oUPVcbktvidJn8JYHLM3XX3y/pWkwXqTo8NEDXgDYzwMXwj+/mOPXFzLqhnIOP0iV6pBF3xYw34y5MM3bBhLvENu1j/3dwMNaoD+4Gq7eXz/gYZ8FWQtgbc2KrRUuvWO/Z/AZ1z5IDLZDhXtEMvtR+zXYq8F2ZyHUD/xTPrdvFgRzipzAFJHYSt72nXmbv8vRVut0+hpT0eu0+cmR7WnihiKxZNCaM1rtUwWGWlNh5K+6rYVFmbImuVtLJFKZahG00Ow8HjOBW/QICRkdGWUik15hnr0rbvHa7Kio2M3HTGUBo3FpBHx6zj2atHpfBrzYs6G7iBCOdEljPS1lqARkP6FaxjZ0VTPLRkgAiJ4XWQK45Cko+wnHGHalXctHyIQFgAhOZQXgmLfA7Cfs5rCpbZ830kZoAIiW60sZ21+ywpUQnnQ9zHSLuOxzPwHaT0heTWW2kVVzuItYiAAI2YgrTAjU/DBARghTFKFntPT9//AAW0KoIgs5SHfhVsnnXWSEcMUqYAN1yC5vhZ+YELR4vpuGDtyWHxvpSghdbFtNvYkY/a5M8rYhmoHIfZdANnEMGbO8moX5T3uBe/+k+y/Gv+Z1VzUb859GmKwVviMjd6fVyRer5oaq5LCo5P8CvmUudkVVRgQAAAAldEVYdGRhdGU6Y3JlYXRlADIwMjEtMDUtMDFUMjI6MjA6NDMrMDA6MDDnqsJZAAAAJXRFWHRkYXRlOm1vZGlmeQAyMDIxLTA1LTAxVDIyOjIwOjQzKzAwOjAwlvd65QAAAABJRU5ErkJggg==" vertex="1" parent="1">
          <mxGeometry x="580" y="470" width="44" height="44" as="geometry" />
        </mxCell>
        <mxCell id="6JaRcq2dVbDghGMQPrxV-12" style="edgeStyle=orthogonalEdgeStyle;rounded=0;orthogonalLoop=1;jettySize=auto;html=1;entryX=0;entryY=0.5;entryDx=0;entryDy=0;strokeWidth=2;exitX=1;exitY=0.5;exitDx=0;exitDy=0;" edge="1" parent="1" source="6JaRcq2dVbDghGMQPrxV-30" target="6JaRcq2dVbDghGMQPrxV-11">
          <mxGeometry relative="1" as="geometry">
            <mxPoint x="590" y="450" as="targetPoint" />
            <mxPoint x="468" y="432" as="sourcePoint" />
          </mxGeometry>
        </mxCell>
        <mxCell id="6JaRcq2dVbDghGMQPrxV-14" style="edgeStyle=orthogonalEdgeStyle;rounded=0;orthogonalLoop=1;jettySize=auto;html=1;exitX=1;exitY=0.5;exitDx=0;exitDy=0;entryX=0;entryY=0.5;entryDx=0;entryDy=0;strokeWidth=2;" edge="1" parent="1" source="6JaRcq2dVbDghGMQPrxV-10" target="6JaRcq2dVbDghGMQPrxV-18">
          <mxGeometry relative="1" as="geometry">
            <mxPoint x="570" y="542" as="sourcePoint" />
            <mxPoint x="686" y="431" as="targetPoint" />
          </mxGeometry>
        </mxCell>
        <mxCell id="6JaRcq2dVbDghGMQPrxV-16" value="" style="rounded=0;whiteSpace=wrap;html=1;strokeWidth=3;" vertex="1" parent="1">
          <mxGeometry x="817.21" y="400" width="60" height="61" as="geometry" />
        </mxCell>
        <mxCell id="6JaRcq2dVbDghGMQPrxV-15" value="" style="shape=image;verticalLabelPosition=bottom;verticalAlign=top;imageAspect=0;aspect=fixed;image=data:image/png,iVBORw0KGgoAAAANSUhEUgAAAQAAAAEACAMAAABrrFhUAAAABGdBTUEAALGPC/xhBQAAACBjSFJNAAB6JgAAgIQAAPoAAACA6AAAdTAAAOpgAAA6mAAAF3CculE8AAAAB3RJTUUH5QUBFhQrYLg5UwAAAwBQTFRFAAAAAAAAAAAAAAAAAAAAAAAAAAAAAAAAAAAAAAAAAAAAAAAAAAAAAAAAAAAAAAAAAAAAAAAAAAAAAAAAAAAAAAAAAAAAAAAAAAAAAAAAAAAAAAAAAAAAAAAAAAAAAAAAAAAAAAAAAAAAAAAAAAAAAAAAAAAAAAAAAAAAAAAAAAAAAAAAAAAAAAAAAAAAAAAAAAAAAAAAAAAAAAAAAAAAAAAAAAAAAAAAAAAAAAAAAAAAAAAAAAAAAAAAAAAAAAAAAAAAAAAAAAAAAAAAAAAAAAAAAAAAAAAAAAAAAAAAAAAAAAAAAAAAAAAAAAAAAAAAAAAAAAAAAAAAAAAAAAAAAAAAAAAAAAAAAAAAAAAAAAAAAAAAAAAAAAAAAAAAAAAAAAAAAAAAAAAAAAAAAAAAAAAAAAAAAAAAAAAAAAAAAAAAAAAAAAAAAAAAAAAAAAAAAAAAAAAAAAAAAAAAAAAAAAAAAAAAAAAAAAAAAAAAAAAAAAAAAAAAAAAAAAAAAAAAAAAAAAAAAAAAAAAAAAAAAAAAAAAAAAAAAAAAAAAAAAAAAAAAAAAAAAAAAAAAAAAAAAAAAAAAAAAAAAAAAAAAAAAAAAAAAAAAAAAAAAAAAAAAAAAAAAAAAAAAAAAAAAAAAAAAAAAAAAAAAAAAAAAAAAAAAAAAAAAAAAAAAAAAAAAAAAAAAAAAAAAAAAAAAAAAAAAAAAAAAAAAAAAAAAAAAAAAAAAAAAAAAAAAAAAAAAAAAAAAAAAAAAAAAAAAAAAAAAAAAAAAAAAAAAAAAAAAAAAAAAAAAAAAAAAAAAAAAAAAAAAAAAAAAAAAAAAAAAAAAAAAAAAAAAAAAAAAAAAAAAAAAAAAAAAAAAAAAAAAAAAAAAAAAAAAAAAAAAAAAAAAAAAAAAAAAAAAAAAAAAAAAAAAAAAAAAAAAAAAAAAAAAAAAAAAAAAAAAAAAAAAAAAAAAAAAAAAAAAAAAAAAAAAAAAAAAAAAAAAAAAAAAAAAAAAAAAAAAAAAAAAAAAAAAAAszD0iAAAAP90Uk5TAAECAwQFBgcICQoLDA0ODxAREhMUFRYXGBkaGxwdHh8gISIjJCUmJygpKissLS4vMDEyMzQ1Njc4OTo7PD0+P0BBQkNERUZHSElKS0xNTk9QUVJTVFVWV1hZWltcXV5fYGFiY2RlZmdoaWprbG1ub3BxcnN0dXZ3eHl6e3x9fn+AgYKDhIWGh4iJiouMjY6PkJGSk5SVlpeYmZqbnJ2en6ChoqOkpaanqKmqq6ytrq+wsbKztLW2t7i5uru8vb6/wMHCw8TFxsfIycrLzM3Oz9DR0tPU1dbX2Nna29zd3t/g4eLj5OXm5+jp6uvs7e7v8PHy8/T19vf4+fr7/P3+6wjZNQAAAAFiS0dE/6UH8sUAABcTSURBVHja7Z15QFPH1sBvQkIIAQIEgbC7gGLdlT4RrVq7qLXUfd/aulWsCyCCoLa4tOKTok+tda9+al2fbS1qiwtisaItaNVqtaKCUDbLFkJCyP3QflrMzNxtbiBcvvMvdw73/DJ35syZM2cIQrgitlb4joj48nydnFy3crjKViYmmpHYuvf/LJusLzc391PZiJqJ+XLvJXdIQAyXZrezbRa/fqupl0io1N6a4WsjePvdp56vIVGiOTnCVdjmWwWs+YukkrxVbSQCtl/W60AFSS3l+3rJBGu/IvS0lqQT/Xd9hUpANvyKgSSbLwHJq6lM7BcugY77q0hmoj/UQYB+YcvPikmmUr5CeLOh3Zx8krk8HC44jyg4lWQj51oKzH7HGA0rANWzBLYu+Fc6yU5+8RKU/cqoapYA9LMENQp0TiXZSoaKx//fonuvXqMiF5rIxD7OzFcxrQbMXgiTtxj5QCPgK8BHXyUk7L9cCf2boTt2fEQktpIHhM79/PSf2mqdTl9jKnqdNu+7hUFWYhG1FsnAhNN1GkAFT2QXkzdRLYdYqLs4yV0qkUhlqugiGIF5UsyYm0vvxadK6Lua4f66V+2kCAYimf3IfZTj9x4mb9PuLNhQe9D7+d/7XoU4ySnc5wGp0j0k6ps/GX9uVWnTvGEBObFd+9jbNP47EwCifiDD6q/q22d/FaKaoysgUfoM/uIByxFHl/5+S9MFiEjR4aP7tC2ZALCfB4a/fu72wiN9IV/BMC49377lgKUZOpK96L4f6vzCCkTiO+snPckLAGUU0Kxkvskz0aDqxex/fLfg+SfKSI7ycNlL1vWCFyHbK5i0YgLAbRPQ7LrcdJwE54IEtuZ7DPz3bzUkd6k+OvDZdylymfwTs0ZMAHjsAUbe00C05DK38fWfgc97yLp7JKZkjXV4OhaKvaJzSP4A+J0Ewr+JwPvvB1Snsfn1/SdsvkPiy+25yidej//aQpJHAAGZpq1KwwALEjAAiJSj9j4ieZGCCDtC7L+VuefOqAd8b9qqcjnQA3ZwByDus/o3ki8piJK33s5i5cIEgHonsNQ5DowBVzgDcA8/ryP5k8LF69ioYwLAeaVpK+M1B9OAQTmg+iAj822G7C0ieZXiEpJnABBHqHCayTPhoOrlTOz3+/dVA9mYwgSAdCjQrCY96IVHukB81/EMVPc/UmYkLR4A0RscVCq2udV7wPZbiBm+9N1/+qVqkmwCADqAXo6xaJ3P8793g20ZZMjp1PqsfVhDNgkAzkvBhsbSE6P+HglV4T/DfscEa7run1zOovv/cTkjI33Xxmey/UxGYS3L5dIfGd9tBGQKo4l60GOYwvz0XXGz16bcLIG+ydtWlDqtJ1zVM3rvsss74yb3a612rRNH5TNxdHH1CIr+jikDY/HRaW3VriolIHJGc5X/AXgwprqiVIPoxZnu1PZPvcfg5UtTVoT62NvKpFCYYpmi9RFmEJd7K6Q4ITrZDNbf1hLKgJDDB3SLFYO+cMtgJU28r26G6vE97TiiT3DH3qvseZGl/TmtqHx/16XUG621msKtoXYMQ/YxFZRDieHRcCmu+YTtxFx29hui7SlC1F5xlPbrSn6K9GT+cvKxuRQEai4G4yftKCbksOwAV9pQ/P5+W6js1+YcmsBuU0Ux6SG6L6X3wN+qtxvP1v6/RqNNELktoQrw3vtqMOtwsuN85PL/1mDrRrC/OtGdwv5Y9O9fk/PVOw4cXlG9BqGzcCr+Jq2Ctf3aUx0p1EWg7S8+MUvN7SV7X4APRZt9se1XTWRrvyG1N9oHkk1BDqe6Gyvbcn1L+yiYq0ZmD7fCtd8pLpet/VdGUnS7ycjQ1+PDI5Tc37NrMuxVNmJv0jvHVrG0v+rCKAVaXx/UVo3+RvxLOC9qswyyA5g7Brv/Ly1naX/FsTcp7G+TgvB/q8+OdsR71XF3Qa0nu2Pa7/LxY5b2528MonA7lJsQy/+qva/gemudIN9AEmaOQovlRezCNZrUOZQ7ouGFcH2PPw3Ed1bB7auS2XhDYIsVBazsN/z+STCl/z7oBvwDKAtz5yGLZDWwKHowAUuh16f5CPtrj0D23WpSowdQ2xF4Ch6u1syy5yONJgJI5Lw5DEdf+63FqN8/KaDHlK2/1v+cqzISJ3emmcQcN8N3a+8P48V+IizPVHN6fwx1gV8ix/8kjzp/xqvzgGkJB9MyMzPP7o2f2beDG21+9PvZUKDZg3jKrAYBpPXhrq3dLuTm+meef8coxLYuXq0DAgJaejrbMgi2tEqGxv+zB/KVWc4rgLa7UIlFmjBXbqGleOhZG814OWGBAPx3oE6GaGY7crP/jStGqDoHwgIBtNqOCrNp5nB01122wmYAfbwLYXkAxAG7kEHa2RwHbKtpsLQvfZInYXkArIIvoGLrRR9y7bDtj8HciVPdCMsDIEHbn7+A63JVuhA2p9wdJbU8AJLgNFS06n445/Va4GHYAiAawVPetqOp2DcUACu0/VlTFJy3VaZDjttod6ICx+2+uWoqvRoIgLgXqv/rMydwj64GHoJovPw66vEut4GH32wgAL1+RNo/kbv9kgkFoMaixbYWB0DaF2V/DY79hPdmCNGvOxCWBsB63GUj6vvH6P+EZCjEB7g7VWppAKwn3kbYb7g2Hmd3xX0txKPc7kZYGADrKTcR8cqaH8dg7S4FZYI6bwwhLAyA9bvXEdlqhpT+WP6KbKIW0gEcLQyA7L1fUeuf0y/jOWg+uyEpzYMJywJgjbY/Fddf7wHuLFXtsmskAM5hJ6HyQzbSftytBbsw8NP64w2ikQCoN7Dc5zjXDTe7wAtcBuiOypsKgHPdcDdXxb3A2Frh+0QTAZDcGXtzWfEhqPZ3VRMB8Hlr/OyaFv8DzoGriSYBwLjZl4fiaL7gQaCCvk0CgH6TDw9RGnEwGAhLJZoCgKrPeamBIQfPUVQvbwoAKr5ozUucTgmGQipC6Br1BD4b3WsNDKBsiz8/gUo1mBHzgDayBqYR/RHcoACMBf8J4Md+UQ9Q+XbaVsuBTbSrPRoSgDF3KV/VLySTwDFwHK3zfATYRDrboQEBGHOX8bZfJY0FV9dt6Bq9A2Y7HWzTcACMj5byV/3EZh+YRUXXJuAbMJFqq0+DATDmL+Gx+ovtz2DmGk2TlklgyTL9HEVDATAWxvJZ/UYBnglNoh40XtkGqRxypx/RUABKYpx5tJ/wAf/DZIqwlE/v+amwxIzD7RoKQPaHTnzaT7wC/osdi1Gy4svkn/Kggck4yCZiyALT9t+U0wOwf3slpYxQ8Go/EQFJMShCSSnqDPH9UMiqdMFt0/YVtfQAxHYulCLl135iFcmH7Ia55bEMjpzjZIlZEIB746XNG8AmaP5p0wCwgQf7fxshbroAzuHbr1sHd0yaBoA0bPuNhxCBiWYCoDYVFT6xDABiqVQqEZkPQO0N5KGfRgcgtnVWe/ccM2ZMaAdfH3eltTkAGLIXEpYJQGTvHTR376/PIjeVWZ+NCfSw5RuA/pcZNpYJoEXX8DOmi5ayo+91cOQVQNUZqlhwIwJQ9lwNrfpm+C26mxNvAIx5e4IISwQgaR/xAHWURn81qp0VPwAqz4d7EJYIwP6dr6kumSg/9KodDwAq0z6hy0tpJACeM+9Qlz4xZExTYwLQ303+OIR2W7pxAPivekBb+iX7Iz/uALR5WfuWje3MICutUQC8tIFJ3bf8T33RAH7ZtAEtqxbMnjCwDbOcvDdXm7YGo2l8A/BOZFanLn+1DxLAJm81WtgcR7BzM229uMDMALzimVa9/HO+EwpAgvmuYeL33CAo8pnMqz3fGWojPAB9L7CoXfZDW8EBcFujZTOar1AJDIBkHLtSIsX9JcICELCPZeXLo67CAhDKtpZG9ZNSOsIB4Pkf1qVPE+0sEIDI2pabvAatflOrq9Joqqr1UDi5agsEoOYjUP/c/Ir02W1khNfg6N+gpTEWSoUNoObGzGcBq5bbYdVGvrYRNIDaa/UrlEyCpDXkOwgZgDHvxTs24iEVYgOEDECz7cWAreI8+Mx4IQO4195EdQj4zEYBA6hNN1VtA54P/l7AALRAwqv1N2BESsAAymNMVUvX/z+A5gRAu62ZfwKMBsFjQp4G73ennwaThAygaqeJIwS5k3O6sF3heS9o/hjiCgcJejFkuDa0nuKJkDo5lU4CXw5fD3OkXA7vtxF8QOTiB08CIoMW3YQWyx1iJaCQ2OsPWIfEHrkJKii6nnVQdKu9oMLiA9mWWK8SVlic8NrArgvUbnQW2N7gMHY3Qt5/erOHoDZHP6lgYb8+zlFw2+PdjzO/GM2QFii47XFCOuo6YwBZQ1AJEmCKjJJLnQpbVzDBJsbcKTIOkUyHgdvv/l/xVSZJUqPZVVaWqPuMmb5g2TowxSq10uxJUgyThPIjnp2+ZJImt5FFapSVb2jUlgsPmV7OzXuanHd8HoN/m7PSjzAPgLYf7vu1ksVQzH+ipNfHD+kShQy/RnoTZgHgMffbfHbOmDlSZd+9QH2nb/XZ0fUOOfEIwGbckTy23rg5kqVtgjdQ3TtStK1P/TGNPwDqT26xv53XPOcFvMejSo+SmuTRrVinyzMC0H5HMYfbec10YELWZeYZ2L/TnZveziTPly8AvY5XcLmd2GxHZhT+oftMb/i7lTDEHzh7zhOAt85zu53YjKfGpO7t3lx84Fni0M3jawe3cYYcceYHQNdkjrcTm/fcoMRO5enb8a0x3X191S4O8IP3vABw26QhLRHA3zE2iZSq5B4fAGxXVpGWC4BGzuIDsJpVSDZdAKvwAXQ5TjZrANZzypo1AFH3ZLIpA4jHBeCwqLpJA/gAF0DnU2STBgAppJSyx0SmUESExO8Uwwwr+SXl4B5AMqroAchfnkgpIx35BcCulBbkC4iC7cre+vTNQDvzbI6WLeS3lJaiGJI2wkICjkLys05MUHGOCtMXU4vmtZgapJzeCVafEBiE1B5/WUqYD4CxgNdyelwKKtZv/h645XZtIM6+AJOCinE8EuBUUvMfUS4CmhcvkZsXAL8lNTkVVf1HXEBH6oY/YWYAT4rK8lZUlVtZ3X+C0NsBfBckZgfAZ1ldQg1mljxgXrPQByhNr91NmB9AHQHeCqtyKq39XNoBtchK5jcEANKYF8fTbMipuPpz6ZgFhN1nNAgA0vhnDD8eEay8/jnGrTtdaywApLFoET9eMZcLFiwBAEn+FaHkAwCXKzYsAwBZGcnHV8DlkhULAUBqIpzxLxnhcs2OpQAgNQtU+ARgFy0dkTcNALwQsAsDMwr+eL2JAHhCALsLBIFLWg31ZWtmBIC6bO3cn4jNV0049kgIvW5vUCMBQIlqWS6KQCTubMj+wsVGAEC4LH2E7AO4HlFQFqiV8srNxgBAqJbmIQiURmF+BdBLV7e5WRgAQhVXgCBQjHnpAvTa3TtTpRYGgHBeXIxaGWHGCaEXLx/rYGkACKdFpajVMV58gO3V240FgHCM0JgnTgi9fD3jdYsDQCgjq8wSJZPNgNRY0e6kjQ8HHLlmIudHmhUA4RRhHgKBhyE6H0fTuRg2AZ1MpL2zeQEQzuEoAo9wxgHpPFgxzjujeL3ThBcAItUCFIG8WIzZMPC/EJW1J7tZHIA6Asg+UIARJ7SaBjt5qU/ytDgAdQSQ40BxFHev2GWrHkYg3sXiANSNhKi5gCwN574yeuMKzNHUfOBgeQAIZUQpKj4QyT1KthyqtHK6neUBIByjipFrQ84xolbJ0IT/7IEyywNAOMWgVkYYUbL37hnNSoDXc4POcfm0BETWzl6tAgL8PNRKOyZQbDbCz55mD7M3E4D0/ty1qZagIyRP/AGJZ6c+Y+IPpGVmnti9I3puv3Yq+iOhgafg540qZ/FCYCHgbN0chqFOtRQZJYtwcuw4fEtm/ctxNWfjR3ShdRUH3YCfOSsLc+cBQCK4Ez8BRx9FnDA29jQ4U9acX/YvOj8hHFGe//Gngdj2224CU75mW2ERQMYJUUfm0mOCqSc15SZE5mvV3j6464JOkKziJLxIjmpJPsujSprUOX6UKtukIA5eVp8djRl8HQfuQ5Mnu+PpVMUWsD2slb++K+Vo2Oc2oqH+RvxLOO9qswwSzckZjdmtnGNKWAIg/zr0KuW8PhZ5APvx4eEYexBdYXn1ho1emAScolifV6hKHU6VBiWbgiRQfWNlW64vah8FLX5+b5gVJgHHCNZHlgxXQqn6gIJCY3HyTDW39+x9Af4um31xZxdknJCCwOleFNxFbrFojTU5/x3OZX2oXoPQWTjVFpeAM/s+oD0QQBVxcF9CNZdm7x/M+p0d5yOPlt0aZI0JAB0jQkvFBqpQj8hvC5VGbc7B8TasXlExCX3/S216dzE2gQWsCZS9S/UrWnnFUV5Yoiu5GMEiWCYfm0MxW9ekB0saoQ+cb0Wp0XUp9ZUttZrCLW8zDJUoY6iPlhtyh+N6mSL240DNVOo8IIcP6IqTGfQFXwxWWolpVtrSHqdoj1brV7vjfgZOsWy7wE2a+cd6ajaDe4tKf1ge6mNvK5NCpxWxTNH6MKO3KY33Vkhx8p0cWQMgl9CM5dYTs3TMXj5jR+ykfq3Vrq6uLRyVz8TRxdUjaNFxppc/GYuOvN9W7apSAsIsY63Tafinqi0v1SBqe9yhXeOHHCtnsdS4e/nSpR93Pi+btO30pYJadj9J9d1Lx8H6S1OY2C8ZDhsDdPnpWxaFJZ6+XgJ9k/60351P4kP2lVH4lj1MAHhthXSq0hOj/nba5PN/hi3zk+g9EJsZl6qbBIBOWZCPar3P8793+woyq2UzORrS/0iZ0fIBiPr8BQ5N6+unOdkehJjBaB3it/ZOrcUDkI0Fv/8TPi884n0VVD2SWSRj8v5H/JpU/JhvAM7gMfj8USbPgAfkyEiGc6z77BQdj/YXLV6j4xmA10FwiWG6aHUHf8bdjD3Nl1df5c3+wii55w4dvwBaA9VgtFsAvwZMgUhj7ms7hO7M48f+gkh7Quy/VccrgIBM01bliwCffB0GgLoFot+49Xd4sP/2vCdxRSv/xCLzAigNA3ylBCwAdS/tMWTdPVz7r45zeOrxi71icnkE4HcS2ABIBHrAfkwAdQw9Bq26VoNhfvXRQc8WICKXyT/xB8BjD7BWTQGmygxA9Res11ySFj3nn+RcNyfno5fqOZ+KkM0lfAFQ7wSaXTddRKnAYp+rOCw7xfYtByy9zGVW1P0w1PmF1YfEZ+YlPT8AlDHgvqPpId5oUPVcbktvidJn8JYHLM3XX3y/pWkwXqTo8NEDXgDYzwMXwj+/mOPXFzLqhnIOP0iV6pBF3xYw34y5MM3bBhLvENu1j/3dwMNaoD+4Gq7eXz/gYZ8FWQtgbc2KrRUuvWO/Z/AZ1z5IDLZDhXtEMvtR+zXYq8F2ZyHUD/xTPrdvFgRzipzAFJHYSt72nXmbv8vRVut0+hpT0eu0+cmR7WnihiKxZNCaM1rtUwWGWlNh5K+6rYVFmbImuVtLJFKZahG00Ow8HjOBW/QICRkdGWUik15hnr0rbvHa7Kio2M3HTGUBo3FpBHx6zj2atHpfBrzYs6G7iBCOdEljPS1lqARkP6FaxjZ0VTPLRkgAiJ4XWQK45Cko+wnHGHalXctHyIQFgAhOZQXgmLfA7Cfs5rCpbZ830kZoAIiW60sZ21+ywpUQnnQ9zHSLuOxzPwHaT0heTWW2kVVzuItYiAAI2YgrTAjU/DBARghTFKFntPT9//AAW0KoIgs5SHfhVsnnXWSEcMUqYAN1yC5vhZ+YELR4vpuGDtyWHxvpSghdbFtNvYkY/a5M8rYhmoHIfZdANnEMGbO8moX5T3uBe/+k+y/Gv+Z1VzUb859GmKwVviMjd6fVyRer5oaq5LCo5P8CvmUudkVVRgQAAAAldEVYdGRhdGU6Y3JlYXRlADIwMjEtMDUtMDFUMjI6MjA6NDMrMDA6MDDnqsJZAAAAJXRFWHRkYXRlOm1vZGlmeQAyMDIxLTA1LTAxVDIyOjIwOjQzKzAwOjAwlvd65QAAAABJRU5ErkJggg==" vertex="1" parent="1">
          <mxGeometry x="824.95" y="409" width="44" height="44" as="geometry" />
        </mxCell>
        <mxCell id="6JaRcq2dVbDghGMQPrxV-17" value="&lt;font face=&quot;Tahoma&quot; color=&quot;#336791&quot;&gt;&lt;span style=&quot;font-size: 14px;&quot;&gt;&lt;b&gt;Run the service in Docker&lt;/b&gt;&lt;/span&gt;&lt;/font&gt;" style="text;html=1;strokeColor=none;fillColor=none;align=center;verticalAlign=middle;whiteSpace=wrap;rounded=0;" vertex="1" parent="1">
          <mxGeometry x="800.96" y="350" width="92.5" height="30" as="geometry" />
        </mxCell>
        <mxCell id="6JaRcq2dVbDghGMQPrxV-18" value="" style="shape=image;verticalLabelPosition=bottom;verticalAlign=top;imageAspect=0;aspect=fixed;image=data:image/png,iVBORw0KGgoAAAANSUhEUgAAAQAAAAEACAMAAABrrFhUAAAABGdBTUEAALGPC/xhBQAAACBjSFJNAAB6JgAAgIQAAPoAAACA6AAAdTAAAOpgAAA6mAAAF3CculE8AAAAB3RJTUUH5QUBFhQrYLg5UwAAAwBQTFRFAAAAAAAAAAAAAAAAAAAAAAAAAAAAAAAAAAAAAAAAAAAAAAAAAAAAAAAAAAAAAAAAAAAAAAAAAAAAAAAAAAAAAAAAAAAAAAAAAAAAAAAAAAAAAAAAAAAAAAAAAAAAAAAAAAAAAAAAAAAAAAAAAAAAAAAAAAAAAAAAAAAAAAAAAAAAAAAAAAAAAAAAAAAAAAAAAAAAAAAAAAAAAAAAAAAAAAAAAAAAAAAAAAAAAAAAAAAAAAAAAAAAAAAAAAAAAAAAAAAAAAAAAAAAAAAAAAAAAAAAAAAAAAAAAAAAAAAAAAAAAAAAAAAAAAAAAAAAAAAAAAAAAAAAAAAAAAAAAAAAAAAAAAAAAAAAAAAAAAAAAAAAAAAAAAAAAAAAAAAAAAAAAAAAAAAAAAAAAAAAAAAAAAAAAAAAAAAAAAAAAAAAAAAAAAAAAAAAAAAAAAAAAAAAAAAAAAAAAAAAAAAAAAAAAAAAAAAAAAAAAAAAAAAAAAAAAAAAAAAAAAAAAAAAAAAAAAAAAAAAAAAAAAAAAAAAAAAAAAAAAAAAAAAAAAAAAAAAAAAAAAAAAAAAAAAAAAAAAAAAAAAAAAAAAAAAAAAAAAAAAAAAAAAAAAAAAAAAAAAAAAAAAAAAAAAAAAAAAAAAAAAAAAAAAAAAAAAAAAAAAAAAAAAAAAAAAAAAAAAAAAAAAAAAAAAAAAAAAAAAAAAAAAAAAAAAAAAAAAAAAAAAAAAAAAAAAAAAAAAAAAAAAAAAAAAAAAAAAAAAAAAAAAAAAAAAAAAAAAAAAAAAAAAAAAAAAAAAAAAAAAAAAAAAAAAAAAAAAAAAAAAAAAAAAAAAAAAAAAAAAAAAAAAAAAAAAAAAAAAAAAAAAAAAAAAAAAAAAAAAAAAAAAAAAAAAAAAAAAAAAAAAAAAAAAAAAAAAAAAAAAAAAAAAAAAAAAAAAAAAAAAAAAAAAAAAAAAAAAAAAAAAAAAAAAAAAAAAAAAAAAAAAAAAAAAAAAAAAAAAAAAAAAAAAAAAAAAAAAAAAAAAszD0iAAAAP90Uk5TAAECAwQFBgcICQoLDA0ODxAREhMUFRYXGBkaGxwdHh8gISIjJCUmJygpKissLS4vMDEyMzQ1Njc4OTo7PD0+P0BBQkNERUZHSElKS0xNTk9QUVJTVFVWV1hZWltcXV5fYGFiY2RlZmdoaWprbG1ub3BxcnN0dXZ3eHl6e3x9fn+AgYKDhIWGh4iJiouMjY6PkJGSk5SVlpeYmZqbnJ2en6ChoqOkpaanqKmqq6ytrq+wsbKztLW2t7i5uru8vb6/wMHCw8TFxsfIycrLzM3Oz9DR0tPU1dbX2Nna29zd3t/g4eLj5OXm5+jp6uvs7e7v8PHy8/T19vf4+fr7/P3+6wjZNQAAAAFiS0dE/6UH8sUAABcTSURBVHja7Z15QFPH1sBvQkIIAQIEgbC7gGLdlT4RrVq7qLXUfd/aulWsCyCCoLa4tOKTok+tda9+al2fbS1qiwtisaItaNVqtaKCUDbLFkJCyP3QflrMzNxtbiBcvvMvdw73/DJ35syZM2cIQrgitlb4joj48nydnFy3crjKViYmmpHYuvf/LJusLzc391PZiJqJ+XLvJXdIQAyXZrezbRa/fqupl0io1N6a4WsjePvdp56vIVGiOTnCVdjmWwWs+YukkrxVbSQCtl/W60AFSS3l+3rJBGu/IvS0lqQT/Xd9hUpANvyKgSSbLwHJq6lM7BcugY77q0hmoj/UQYB+YcvPikmmUr5CeLOh3Zx8krk8HC44jyg4lWQj51oKzH7HGA0rANWzBLYu+Fc6yU5+8RKU/cqoapYA9LMENQp0TiXZSoaKx//fonuvXqMiF5rIxD7OzFcxrQbMXgiTtxj5QCPgK8BHXyUk7L9cCf2boTt2fEQktpIHhM79/PSf2mqdTl9jKnqdNu+7hUFWYhG1FsnAhNN1GkAFT2QXkzdRLYdYqLs4yV0qkUhlqugiGIF5UsyYm0vvxadK6Lua4f66V+2kCAYimf3IfZTj9x4mb9PuLNhQe9D7+d/7XoU4ySnc5wGp0j0k6ps/GX9uVWnTvGEBObFd+9jbNP47EwCifiDD6q/q22d/FaKaoysgUfoM/uIByxFHl/5+S9MFiEjR4aP7tC2ZALCfB4a/fu72wiN9IV/BMC49377lgKUZOpK96L4f6vzCCkTiO+snPckLAGUU0Kxkvskz0aDqxex/fLfg+SfKSI7ycNlL1vWCFyHbK5i0YgLAbRPQ7LrcdJwE54IEtuZ7DPz3bzUkd6k+OvDZdylymfwTs0ZMAHjsAUbe00C05DK38fWfgc97yLp7JKZkjXV4OhaKvaJzSP4A+J0Ewr+JwPvvB1Snsfn1/SdsvkPiy+25yidej//aQpJHAAGZpq1KwwALEjAAiJSj9j4ieZGCCDtC7L+VuefOqAd8b9qqcjnQA3ZwByDus/o3ki8piJK33s5i5cIEgHonsNQ5DowBVzgDcA8/ryP5k8LF69ioYwLAeaVpK+M1B9OAQTmg+iAj822G7C0ieZXiEpJnABBHqHCayTPhoOrlTOz3+/dVA9mYwgSAdCjQrCY96IVHukB81/EMVPc/UmYkLR4A0RscVCq2udV7wPZbiBm+9N1/+qVqkmwCADqAXo6xaJ3P8793g20ZZMjp1PqsfVhDNgkAzkvBhsbSE6P+HglV4T/DfscEa7run1zOovv/cTkjI33Xxmey/UxGYS3L5dIfGd9tBGQKo4l60GOYwvz0XXGz16bcLIG+ydtWlDqtJ1zVM3rvsss74yb3a612rRNH5TNxdHH1CIr+jikDY/HRaW3VriolIHJGc5X/AXgwprqiVIPoxZnu1PZPvcfg5UtTVoT62NvKpFCYYpmi9RFmEJd7K6Q4ITrZDNbf1hLKgJDDB3SLFYO+cMtgJU28r26G6vE97TiiT3DH3qvseZGl/TmtqHx/16XUG621msKtoXYMQ/YxFZRDieHRcCmu+YTtxFx29hui7SlC1F5xlPbrSn6K9GT+cvKxuRQEai4G4yftKCbksOwAV9pQ/P5+W6js1+YcmsBuU0Ux6SG6L6X3wN+qtxvP1v6/RqNNELktoQrw3vtqMOtwsuN85PL/1mDrRrC/OtGdwv5Y9O9fk/PVOw4cXlG9BqGzcCr+Jq2Ctf3aUx0p1EWg7S8+MUvN7SV7X4APRZt9se1XTWRrvyG1N9oHkk1BDqe6Gyvbcn1L+yiYq0ZmD7fCtd8pLpet/VdGUnS7ycjQ1+PDI5Tc37NrMuxVNmJv0jvHVrG0v+rCKAVaXx/UVo3+RvxLOC9qswyyA5g7Brv/Ly1naX/FsTcp7G+TgvB/q8+OdsR71XF3Qa0nu2Pa7/LxY5b2528MonA7lJsQy/+qva/gemudIN9AEmaOQovlRezCNZrUOZQ7ouGFcH2PPw3Ed1bB7auS2XhDYIsVBazsN/z+STCl/z7oBvwDKAtz5yGLZDWwKHowAUuh16f5CPtrj0D23WpSowdQ2xF4Ch6u1syy5yONJgJI5Lw5DEdf+63FqN8/KaDHlK2/1v+cqzISJ3emmcQcN8N3a+8P48V+IizPVHN6fwx1gV8ix/8kjzp/xqvzgGkJB9MyMzPP7o2f2beDG21+9PvZUKDZg3jKrAYBpPXhrq3dLuTm+meef8coxLYuXq0DAgJaejrbMgi2tEqGxv+zB/KVWc4rgLa7UIlFmjBXbqGleOhZG814OWGBAPx3oE6GaGY7crP/jStGqDoHwgIBtNqOCrNp5nB01122wmYAfbwLYXkAxAG7kEHa2RwHbKtpsLQvfZInYXkArIIvoGLrRR9y7bDtj8HciVPdCMsDIEHbn7+A63JVuhA2p9wdJbU8AJLgNFS06n445/Va4GHYAiAawVPetqOp2DcUACu0/VlTFJy3VaZDjttod6ICx+2+uWoqvRoIgLgXqv/rMydwj64GHoJovPw66vEut4GH32wgAL1+RNo/kbv9kgkFoMaixbYWB0DaF2V/DY79hPdmCNGvOxCWBsB63GUj6vvH6P+EZCjEB7g7VWppAKwn3kbYb7g2Hmd3xX0txKPc7kZYGADrKTcR8cqaH8dg7S4FZYI6bwwhLAyA9bvXEdlqhpT+WP6KbKIW0gEcLQyA7L1fUeuf0y/jOWg+uyEpzYMJywJgjbY/Fddf7wHuLFXtsmskAM5hJ6HyQzbSftytBbsw8NP64w2ikQCoN7Dc5zjXDTe7wAtcBuiOypsKgHPdcDdXxb3A2Frh+0QTAZDcGXtzWfEhqPZ3VRMB8Hlr/OyaFv8DzoGriSYBwLjZl4fiaL7gQaCCvk0CgH6TDw9RGnEwGAhLJZoCgKrPeamBIQfPUVQvbwoAKr5ozUucTgmGQipC6Br1BD4b3WsNDKBsiz8/gUo1mBHzgDayBqYR/RHcoACMBf8J4Md+UQ9Q+XbaVsuBTbSrPRoSgDF3KV/VLySTwDFwHK3zfATYRDrboQEBGHOX8bZfJY0FV9dt6Bq9A2Y7HWzTcACMj5byV/3EZh+YRUXXJuAbMJFqq0+DATDmL+Gx+ovtz2DmGk2TlklgyTL9HEVDATAWxvJZ/UYBnglNoh40XtkGqRxypx/RUABKYpx5tJ/wAf/DZIqwlE/v+amwxIzD7RoKQPaHTnzaT7wC/osdi1Gy4svkn/Kggck4yCZiyALT9t+U0wOwf3slpYxQ8Go/EQFJMShCSSnqDPH9UMiqdMFt0/YVtfQAxHYulCLl135iFcmH7Ia55bEMjpzjZIlZEIB746XNG8AmaP5p0wCwgQf7fxshbroAzuHbr1sHd0yaBoA0bPuNhxCBiWYCoDYVFT6xDABiqVQqEZkPQO0N5KGfRgcgtnVWe/ccM2ZMaAdfH3eltTkAGLIXEpYJQGTvHTR376/PIjeVWZ+NCfSw5RuA/pcZNpYJoEXX8DOmi5ayo+91cOQVQNUZqlhwIwJQ9lwNrfpm+C26mxNvAIx5e4IISwQgaR/xAHWURn81qp0VPwAqz4d7EJYIwP6dr6kumSg/9KodDwAq0z6hy0tpJACeM+9Qlz4xZExTYwLQ303+OIR2W7pxAPivekBb+iX7Iz/uALR5WfuWje3MICutUQC8tIFJ3bf8T33RAH7ZtAEtqxbMnjCwDbOcvDdXm7YGo2l8A/BOZFanLn+1DxLAJm81WtgcR7BzM229uMDMALzimVa9/HO+EwpAgvmuYeL33CAo8pnMqz3fGWojPAB9L7CoXfZDW8EBcFujZTOar1AJDIBkHLtSIsX9JcICELCPZeXLo67CAhDKtpZG9ZNSOsIB4Pkf1qVPE+0sEIDI2pabvAatflOrq9Joqqr1UDi5agsEoOYjUP/c/Ir02W1khNfg6N+gpTEWSoUNoObGzGcBq5bbYdVGvrYRNIDaa/UrlEyCpDXkOwgZgDHvxTs24iEVYgOEDECz7cWAreI8+Mx4IQO4195EdQj4zEYBA6hNN1VtA54P/l7AALRAwqv1N2BESsAAymNMVUvX/z+A5gRAu62ZfwKMBsFjQp4G73ennwaThAygaqeJIwS5k3O6sF3heS9o/hjiCgcJejFkuDa0nuKJkDo5lU4CXw5fD3OkXA7vtxF8QOTiB08CIoMW3YQWyx1iJaCQ2OsPWIfEHrkJKii6nnVQdKu9oMLiA9mWWK8SVlic8NrArgvUbnQW2N7gMHY3Qt5/erOHoDZHP6lgYb8+zlFw2+PdjzO/GM2QFii47XFCOuo6YwBZQ1AJEmCKjJJLnQpbVzDBJsbcKTIOkUyHgdvv/l/xVSZJUqPZVVaWqPuMmb5g2TowxSq10uxJUgyThPIjnp2+ZJImt5FFapSVb2jUlgsPmV7OzXuanHd8HoN/m7PSjzAPgLYf7vu1ksVQzH+ipNfHD+kShQy/RnoTZgHgMffbfHbOmDlSZd+9QH2nb/XZ0fUOOfEIwGbckTy23rg5kqVtgjdQ3TtStK1P/TGNPwDqT26xv53XPOcFvMejSo+SmuTRrVinyzMC0H5HMYfbec10YELWZeYZ2L/TnZveziTPly8AvY5XcLmd2GxHZhT+oftMb/i7lTDEHzh7zhOAt85zu53YjKfGpO7t3lx84Fni0M3jawe3cYYcceYHQNdkjrcTm/fcoMRO5enb8a0x3X191S4O8IP3vABw26QhLRHA3zE2iZSq5B4fAGxXVpGWC4BGzuIDsJpVSDZdAKvwAXQ5TjZrANZzypo1AFH3ZLIpA4jHBeCwqLpJA/gAF0DnU2STBgAppJSyx0SmUESExO8Uwwwr+SXl4B5AMqroAchfnkgpIx35BcCulBbkC4iC7cre+vTNQDvzbI6WLeS3lJaiGJI2wkICjkLys05MUHGOCtMXU4vmtZgapJzeCVafEBiE1B5/WUqYD4CxgNdyelwKKtZv/h645XZtIM6+AJOCinE8EuBUUvMfUS4CmhcvkZsXAL8lNTkVVf1HXEBH6oY/YWYAT4rK8lZUlVtZ3X+C0NsBfBckZgfAZ1ldQg1mljxgXrPQByhNr91NmB9AHQHeCqtyKq39XNoBtchK5jcEANKYF8fTbMipuPpz6ZgFhN1nNAgA0vhnDD8eEay8/jnGrTtdaywApLFoET9eMZcLFiwBAEn+FaHkAwCXKzYsAwBZGcnHV8DlkhULAUBqIpzxLxnhcs2OpQAgNQtU+ARgFy0dkTcNALwQsAsDMwr+eL2JAHhCALsLBIFLWg31ZWtmBIC6bO3cn4jNV0049kgIvW5vUCMBQIlqWS6KQCTubMj+wsVGAEC4LH2E7AO4HlFQFqiV8srNxgBAqJbmIQiURmF+BdBLV7e5WRgAQhVXgCBQjHnpAvTa3TtTpRYGgHBeXIxaGWHGCaEXLx/rYGkACKdFpajVMV58gO3V240FgHCM0JgnTgi9fD3jdYsDQCgjq8wSJZPNgNRY0e6kjQ8HHLlmIudHmhUA4RRhHgKBhyE6H0fTuRg2AZ1MpL2zeQEQzuEoAo9wxgHpPFgxzjujeL3ThBcAItUCFIG8WIzZMPC/EJW1J7tZHIA6Asg+UIARJ7SaBjt5qU/ytDgAdQSQ40BxFHev2GWrHkYg3sXiANSNhKi5gCwN574yeuMKzNHUfOBgeQAIZUQpKj4QyT1KthyqtHK6neUBIByjipFrQ84xolbJ0IT/7IEyywNAOMWgVkYYUbL37hnNSoDXc4POcfm0BETWzl6tAgL8PNRKOyZQbDbCz55mD7M3E4D0/ty1qZagIyRP/AGJZ6c+Y+IPpGVmnti9I3puv3Yq+iOhgafg540qZ/FCYCHgbN0chqFOtRQZJYtwcuw4fEtm/ctxNWfjR3ShdRUH3YCfOSsLc+cBQCK4Ez8BRx9FnDA29jQ4U9acX/YvOj8hHFGe//Gngdj2224CU75mW2ERQMYJUUfm0mOCqSc15SZE5mvV3j6464JOkKziJLxIjmpJPsujSprUOX6UKtukIA5eVp8djRl8HQfuQ5Mnu+PpVMUWsD2slb++K+Vo2Oc2oqH+RvxLOO9qswwSzckZjdmtnGNKWAIg/zr0KuW8PhZ5APvx4eEYexBdYXn1ho1emAScolifV6hKHU6VBiWbgiRQfWNlW64vah8FLX5+b5gVJgHHCNZHlgxXQqn6gIJCY3HyTDW39+x9Af4um31xZxdknJCCwOleFNxFbrFojTU5/x3OZX2oXoPQWTjVFpeAM/s+oD0QQBVxcF9CNZdm7x/M+p0d5yOPlt0aZI0JAB0jQkvFBqpQj8hvC5VGbc7B8TasXlExCX3/S216dzE2gQWsCZS9S/UrWnnFUV5Yoiu5GMEiWCYfm0MxW9ekB0saoQ+cb0Wp0XUp9ZUttZrCLW8zDJUoY6iPlhtyh+N6mSL240DNVOo8IIcP6IqTGfQFXwxWWolpVtrSHqdoj1brV7vjfgZOsWy7wE2a+cd6ajaDe4tKf1ge6mNvK5NCpxWxTNH6MKO3KY33Vkhx8p0cWQMgl9CM5dYTs3TMXj5jR+ykfq3Vrq6uLRyVz8TRxdUjaNFxppc/GYuOvN9W7apSAsIsY63Tafinqi0v1SBqe9yhXeOHHCtnsdS4e/nSpR93Pi+btO30pYJadj9J9d1Lx8H6S1OY2C8ZDhsDdPnpWxaFJZ6+XgJ9k/60351P4kP2lVH4lj1MAHhthXSq0hOj/nba5PN/hi3zk+g9EJsZl6qbBIBOWZCPar3P8793+woyq2UzORrS/0iZ0fIBiPr8BQ5N6+unOdkehJjBaB3it/ZOrcUDkI0Fv/8TPi884n0VVD2SWSRj8v5H/JpU/JhvAM7gMfj8USbPgAfkyEiGc6z77BQdj/YXLV6j4xmA10FwiWG6aHUHf8bdjD3Nl1df5c3+wii55w4dvwBaA9VgtFsAvwZMgUhj7ms7hO7M48f+gkh7Quy/VccrgIBM01bliwCffB0GgLoFot+49Xd4sP/2vCdxRSv/xCLzAigNA3ylBCwAdS/tMWTdPVz7r45zeOrxi71icnkE4HcS2ABIBHrAfkwAdQw9Bq26VoNhfvXRQc8WICKXyT/xB8BjD7BWTQGmygxA9Res11ySFj3nn+RcNyfno5fqOZ+KkM0lfAFQ7wSaXTddRKnAYp+rOCw7xfYtByy9zGVW1P0w1PmF1YfEZ+YlPT8AlDHgvqPpId5oUPVcbktvidJn8JYHLM3XX3y/pWkwXqTo8NEDXgDYzwMXwj+/mOPXFzLqhnIOP0iV6pBF3xYw34y5MM3bBhLvENu1j/3dwMNaoD+4Gq7eXz/gYZ8FWQtgbc2KrRUuvWO/Z/AZ1z5IDLZDhXtEMvtR+zXYq8F2ZyHUD/xTPrdvFgRzipzAFJHYSt72nXmbv8vRVut0+hpT0eu0+cmR7WnihiKxZNCaM1rtUwWGWlNh5K+6rYVFmbImuVtLJFKZahG00Ow8HjOBW/QICRkdGWUik15hnr0rbvHa7Kio2M3HTGUBo3FpBHx6zj2atHpfBrzYs6G7iBCOdEljPS1lqARkP6FaxjZ0VTPLRkgAiJ4XWQK45Cko+wnHGHalXctHyIQFgAhOZQXgmLfA7Cfs5rCpbZ830kZoAIiW60sZ21+ywpUQnnQ9zHSLuOxzPwHaT0heTWW2kVVzuItYiAAI2YgrTAjU/DBARghTFKFntPT9//AAW0KoIgs5SHfhVsnnXWSEcMUqYAN1yC5vhZ+YELR4vpuGDtyWHxvpSghdbFtNvYkY/a5M8rYhmoHIfZdANnEMGbO8moX5T3uBe/+k+y/Gv+Z1VzUb859GmKwVviMjd6fVyRer5oaq5LCo5P8CvmUudkVVRgQAAAAldEVYdGRhdGU6Y3JlYXRlADIwMjEtMDUtMDFUMjI6MjA6NDMrMDA6MDDnqsJZAAAAJXRFWHRkYXRlOm1vZGlmeQAyMDIxLTA1LTAxVDIyOjIwOjQzKzAwOjAwlvd65QAAAABJRU5ErkJggg==" vertex="1" parent="1">
          <mxGeometry x="687.01" y="400" width="61" height="61" as="geometry" />
        </mxCell>
        <mxCell id="6JaRcq2dVbDghGMQPrxV-19" value="" style="shape=image;verticalLabelPosition=bottom;verticalAlign=top;imageAspect=0;aspect=fixed;image=data:image/png,iVBORw0KGgoAAAANSUhEUgAAAQAAAADlCAMAAACLUtnRAAAABGdBTUEAALGPC/xhBQAAACBjSFJNAAB6JgAAgIQAAPoAAACA6AAAdTAAAOpgAAA6mAAAF3CculE8AAAAB3RJTUUH5QUeFikRxCbvlgAAAwBQTFRFAAAAAAAAAAAAAAAAAAAAAAAAAAAAAAAAAAAAAAAAAAAAAAAAAAAAAAAAAAAAAAAAAAAAAAAAAAAAAAAAAAAAAAAAAAAAAAAAAAAAAAAAAAAAAAAAAAAAAAAAAAAAAAAAAAAAAAAAAAAAAAAAAAAAAAAAAAAAAAAAAAAAAAAAAAAAAAAAAAAAAAAAAAAAAAAAAAAAAAAAAAAAAAAAAAAAAAAAAAAAAAAAAAAAAAAAAAAAAAAAAAAAAAAAAAAAAAAAAAAAAAAAAAAAAAAAAAAAAAAAAAAAAAAAAAAAAAAAAAAAAAAAAAAAAAAAAAAAAAAAAAAAAAAAAAAAAAAAAAAAAAAAAAAAAAAAAAAAAAAAAAAAAAAAAAAAAAAAAAAAAAAAAAAAAAAAAAAAAAAAAAAAAAAAAAAAAAAAAAAAAAAAAAAAAAAAAAAAAAAAAAAAAAAAAAAAAAAAAAAAAAAAAAAAAAAAAAAAAAAAAAAAAAAAAAAAAAAAAAAAAAAAAAAAAAAAAAAAAAAAAAAAAAAAAAAAAAAAAAAAAAAAAAAAAAAAAAAAAAAAAAAAAAAAAAAAAAAAAAAAAAAAAAAAAAAAAAAAAAAAAAAAAAAAAAAAAAAAAAAAAAAAAAAAAAAAAAAAAAAAAAAAAAAAAAAAAAAAAAAAAAAAAAAAAAAAAAAAAAAAAAAAAAAAAAAAAAAAAAAAAAAAAAAAAAAAAAAAAAAAAAAAAAAAAAAAAAAAAAAAAAAAAAAAAAAAAAAAAAAAAAAAAAAAAAAAAAAAAAAAAAAAAAAAAAAAAAAAAAAAAAAAAAAAAAAAAAAAAAAAAAAAAAAAAAAAAAAAAAAAAAAAAAAAAAAAAAAAAAAAAAAAAAAAAAAAAAAAAAAAAAAAAAAAAAAAAAAAAAAAAAAAAAAAAAAAAAAAAAAAAAAAAAAAAAAAAAAAAAAAAAAAAAAAAAAAAAAAAAAAAAAAAAAAAAAAAAAAAAAAAAAAAAAAAAAAAAAAAAAAAAAAAAAAAAAAAAAAAAAAAAAAszD0iAAAAP90Uk5TAAECAwQFBgcICQoLDA0ODxAREhMUFRYXGBkaGxwdHh8gISIjJCUmJygpKissLS4vMDEyMzQ1Njc4OTo7PD0+P0BBQkNERUZHSElKS0xNTk9QUVJTVFVWV1hZWltcXV5fYGFiY2RlZmdoaWprbG1ub3BxcnN0dXZ3eHl6e3x9fn+AgYKDhIWGh4iJiouMjY6PkJGSk5SVlpeYmZqbnJ2en6ChoqOkpaanqKmqq6ytrq+wsbKztLW2t7i5uru8vb6/wMHCw8TFxsfIycrLzM3Oz9DR0tPU1dbX2Nna29zd3t/g4eLj5OXm5+jp6uvs7e7v8PHy8/T19vf4+fr7/P3+6wjZNQAAAAFiS0dE/6UH8sUAACH8SURBVBgZ5cEHYIwH3Afg/3s7eycSQRArQSRGxJ6l9t41i1Jqx6xVqqVUq7X3nkUasyFmkSCEIAmRvRPZd7nx/r67DO6Sy+j3fVUvz0PlMazqMWbMmPa1TRn6FAldFl5Lv37y7MOwtW0M6dMjaHdZmjqjtsDQ8/esxyMN6JNje1aZNU1Eag578awFQ5+az2TYZUMavM9iVJv59KmZgpwBJBGRWq0/ESKkT81YRA34bN60IX07d/aOAcT0qWmZE7voBYDc6Bg5kCqiT43Naem65yjmL6RPDa9HTOxxFYos5tEnx2RxBopF16dPkP3vmSjiW5U+RTVmJKHQH/b0SRIMCUOBGzXo0yT6SgYNaX8efZo8HqBA8hc1q1iY2trZ2VWtVcPOiKFPhVcoCimenN3y0/ETJ074Pb1/cnlzhj4Nhguk0OdOVfo0dImBfmPoU8B0iUEZ5tDHj7H8JhVl8aSPHr/RlgyUJcuCPnpDrihQplBT+siJp79GObK/N6OPmmRxEkpj8Vb26RZ8hj5azOgklJa/LTguh0WR/OuTGla3FDH0MeIvU6G0V/Utei4/E5yLYhk3ts0c1bl5bWOGPjbdQ1iUEtWAiKzbzjoRBy2R931/n9PVmD4uhlNTUUp+J4bU+NX6ns6DjuzQAx0F9FGxCkFp2wVUQGD3swK6FM/6CuijsouFFlVWfOirvNyWVKDZ8qEvUVJQA/qobGVRTJUScHhh79oe295ccCKNrs8Rh1L68+hjsoVFodwHG8Z4GJFalQXZW6qSWrWL0MNbQB+TiyiQ+ceoXnM2HD9z5viqRWO/VGT84khEwkPQ486K/g0E9LGoGwoNxcWRq59myFiAzctJT2ORe95LxK/iA6gUmfd/9p50Q4liitzUmOO9xQx9DAx/ykNZ/t7zMD0y4IfOpkTEzM+ELv92FgxxntG41yhT6oOjC9sZUoFa51QoIWWDu5A4zmr6C+gnj/lr49gWxlRITKNSUIrsxnABcZntUJ9E6BNzZP7AdnVN6a2u5PY39Ij60Ym4iW85at3ll2kqlKBSyALW9a5lKeERkfHIljwq0PNL4cAY6CF99KUFnyGuEbhsyEQpijfhN38e6GhirMYntTqIGiYiDddXg8TfyqBX4qZebjUMGeIQvqefEiUowq9sn927dffh01etVpvYo6EhuQLBTRlSc8LjvmZ+KEvOtWVd7Ig7bH1QQqzPokHDJv94OiBWjgKqhGtrW1WPBjYLSM0JeNSncwKKqVIjAvx8tqttWrJgwS/bt2/32T+lkZg4YowMunx791t85nGyEtryn0zdB2RMJLW+AELHbAKgCPffs2J8r06t3OrVtFIz4xOZWllZfZadfn//IFPihD9RTKVQQS0zMj6bRSmJd2RA5OcChr8XrCI/6tLxJQNrV7U1NxRQAb5ISMX41wBFWujqRkIeffD+RoG82OB9K26gHNJMAKlrO04LCzo6r50J6eDVXnRjg5iKrUOBnAujaxrQB24b1JTh6we0mXBVjgoowq/t/KaVDZVS5/jzi6MFVOw4il2f52FAH7Tm9xSI2Ttm4Hd/yVA+6ZOjcz6vKyF9Fk/uWo1PxUxe4C3p3eUNefQBEzbuO+n3w/7hUpTv2foRzRwZ0s/hKmnrnQstOYETJPThEjfZEJIuQzlYhez52jYOJmKxQZs+c+bMmeZhTCUIu5GWapdUeIeVy5J2V2fow2TmeSQP5VGmh19a0JCIbFt/ezUyPkMFZIdOofLYbM6DlvTF7b3vXmgvpA8Qr+7qBJRDFum34+smIlJz2xvu/9PwgfMvXj+0pLmQysbYLk2BNsVxT77lzF3t+fTBEffwzUWZkq9vm9OvlpAKCIf9OKKukEhQu4GIylV7azLiHjyOykUxxe1J9gZzz9WmD86IcBX0UiVf2fhVhwZWfCrGNzemyjAddVMWv7ZTE4/WvRZelaJI8qF67s9+pg8Mr2c6SlOmX/9trGc1G2MhafBrta9ryFBl8EUSxymXU9nkGUYMETESG/flD3MU0Mj7oXNoUkf6oPC7xkGPP2qTtmoRwI1WPKqI0Mbtq6OPoKY4IKZ33Fc+js5WATlpytyV9EFxv6WCtuzYXKgdqccnLVZH8oBQRyqXpGbHaXsiUChjIGljbLovOXgzKCjoxq/N6ENisUGGtzL/3rty8sBkqEkvfFWdRwWELu0dmFqLtm5d6EBlMqrRbdZvPmEqFEuwoZKMXFu3bu3Cpw8J7/NoFMnxm9utoZ2YHGXQYFOuNCUNYd/bz2/2IwMrKwnpJa7bdfKW87fDs1AkBmqPiROsD7DQUOVt62QtZkjNXYkCYRNMSaPaYxaIX2JEbzECoUgiFkkM7VoMXrjP72V8aqacRSE2bVubql6+KvgQJ7ilQyPjjBuR0NjEiNTioKHYYMqQRpuAkGQlUmcaUAFhlQa9Fm47dv/ckYdp0JaTFPE86J5vLyER1bvMniZOmAyNlNVViOc0YdUPyzubEU1MgUb0900Y0uDXGu+bj+B2DBFJmk49EqZACWzWs6sHl41uV9+coULemaeJE05CLWu1LVG1QxnI3Njfish49nMl1OQ3elGR2svDlXMlZNT5h7sylCR/+NvEznVEpK1TxC3ihACo3bUlohX5SJpoThrGrZY/ZqF2hIoZtproKfDaGSpDScrbY90sqCTHR5HECelQ60dEvARgjw0VYgzsOi678NdiO3qLZ9Rkc6IcOlTSfBbsq2+sGSqJ93cscQI0bImoEQtssSBdRgZUxKLt1jSUdLfn16efxOawt9qLqSSfaB5xQQbUGCLqzwIvPKiIxNbe2avn6OVf25KGVcdfY1GKbCMR1ey/bP/Fc25U0u+x9sQF96DGENFUFsBOAyrkue34+UexCjxwJxK4TNj1gsVb8uQ8FAhsRgUManjWoJJ+T2hMXLAFau5ENJUFkLPGjgq0jYaG8ohdo0EHHiQroUX5xm/kMG9v7+kefCrb7wmNiQt6qgCsZIgms1DLOddayBDRgERoKF69THqjRAls7jKRWCwWkV5Mq9OmRHQ+2Z24wPEOgOCqRM1ZFEj4qXUtx7p7ZChH1td8KlPVP9GXiP7O/IK4wHBuNpA5j0+uLIq8uXHmgQzlSFxrTWXiDYvHXOMqZoGZXxAn1PcD2EAvMlahcuS3JtlQ2UzXKfF5p6n1nmZ+QZwg+lYG5O+tSi9QvuQ3UMv8a5SLmMpR7yriqq/6oXNE3lLihjbBADL8T6WhPMoLjV17fz//M2dLAZXLKwYnHI5OH5ckW0fcINqrQMUSvKhSeAOAuc4B3VdL8zcQR/RPQlkiHj4Mi4tPVQLRNahSxN7A0IF3Gx6B8iBxhFUAynJ3WttugwaP8j6bm9ieKkXsDbQ/tsPzHnCJuGI+ypIXvGeAEZHAaU/OaqoUsTdwOXZw33AVLhFXOClRFjY79vZEE2IWKwPdqYiBJUNlEs8BlMESA6dr7A0L4orbKEvy/CZtxjQVt3wC6XozKmTWtiqVrW0KpEOIaLw00Jm4YjrKkn+2n1OtNtODVMCLTgwV6jTIkMpU5afHm8VEVD0r0Jm4wj0NZVFG/ekbnAM15RYrKlR7+zg+lcm+rTVpRIe0JK5wuIZKSHChQqLDMb/XpIrcfNmduMJgISqBHchQoV/k8pCpFgyVy+/V58QZPTJQIVVCe4YKiHcqgMzZhlQuv+SJxBlud1ChmGlGVEjQ7ZJKda2jiMrllz6NOMN6FyqgePmjHb3V6NfYBz1FVC6/3EXEGfzZ2SiT7K/lg7t2bmbPowKN6hkTWfb2DfRiqDx+7E/EHd3DUBbZOAsJj4pIzAyH33u4b7S5gXmnDjwqjx82MsQZTv4oy/c8emdW8ol+tVtOOR200sOEoXI9xmFr4gzhHiXK0IG0tH+CvAO9zSXeZy4t9+JReTJwwp64Y3Ym9JJmN6YirboYkOGSTKgi1jXkO/ZZ+b0HlcM0E3/VJ+7oEAs9lBc/621ORTreONZVZHuBBXL+7klkUtuOyuGajTsexB2mIdAjfSzDY6gQXzwkPWFDLet1L7PzVXGzzah8PfIQ0p445BT0yF5AxQQNm4hGxuHFSGOj1kv8k7N+tWeoPFNSEdebOGQGi9KUx02okJCcvx3gMP4VMuaYEpl9uf/ql4ZUnh6rFVnDiUPcWegR1o0KzW0t7HBp/0zvF6rUWUIixqJFUwmVyzEME4lDxDnQQ+7rQjwJEU25N8N2rSJ5e8/RS8cbUGWYncQiCXHIFeijuD588rNTfSytfnjzxzIFsqYYScQMVYbpAfxkRhyyEOW41a/B+kyonbCnSjI9gBMOxCHtFdCPTfEPkGWvbbshC8DlalRJZidxtRZxSK1o6Bc/1aX5L6qsdY2PqYADtlQ2m8FV6C2rOwhxIQ6xOwf9hhsQWe9DfH9nX0QMFFIhoYBKGRTWj0fFHLKR3ow4xHAZAAVKkq8UkZrTLXarlWWL+kIq0tWL4TGkw+A7dpuIivUH2HbEJX2kwPE46Mrbb0cavB5Jj51JS69pZs1aSEibzU4EGFKxnyJzMENAHNIiGOg/LQXaco/VIw1hz+Uv0hqSluYHG417PsaMtNTyRcbMwZZU6LNeh+RrRMQh1U8C39vvyIeWmNEi0mgVAcCDSOBhRoWczs2p/yJyijG943wJQERPKjYi5YQBcYhwuQIPLJoHQos0YKQBqa1TAfAg+6+31aRCot1hDgsQP4pPbzlfAhA9iIpNyb9rRFwyNBYpQ/izM6CFzd5twSPaogJSGlodzf3DgYp8kz63xVMktuZRMeeLAF52pwJCc8dDUFgSl7jdg+KgsfkN6LrbVkRDFcDzug5PsMuainiEh7n/xuK1J4+K2B8A8LwdFRgeNCMWcCcuMT2mwqu+vGEq6GCDOvHsYoDndR2e4HsTKmLsn7tqUhqUlxpREaM1AB64kobksvxpsBQjiVPmZUJxwNHoGXQpjjvR98DzurbX8I2Q1MRViGi2InR+AJC73ZGKjE4DkhdYkppLSPJX/YOwljilfQyQ3J+3FCWEd6A6t/G8ruUxfEFqdtv8BxFVS5NffwogY7YhFWpwDWBff05q/WLmGpgewZ/EKYJbAHuiims+dOQfqk68Jj6/WhmtwRdEjN1uGfu0G8McgEIJtVg3KsSbkgBEf05qc/4wJ+YHWbSAOGUFC0h7WWzJhxbZwfqkJjDhGyzCWIZXZ1sWAJ+a5JEJjZwnbRkqMj0f/q6ktrQlQzQ9PdWTOKWZCsAZnutVFd7JO724rYSo9Y+zx27HCiOvo3KoZS01NduhhNp1LwEVMwvO32RKapPqElG3yKyxxCnChwByXAQjY6BNGfy9EY1IxJtEhO4JQKH4r4Se9wDfP/bVoHcGH2tPGo6GROQQJPuRuGUx1FaS2X4FdOSul1hsk0FHfDXxqMi/6zgNb0TviKuJ6S3ePsU5MXGKSwaAFw7UIQq6UifyrA5IoWM9Ce0tGLK05VMZZsiCGhGnWB0AkDGV6BQLXXfrk+H6dGhkxeRD4zFVpGNOVH/iFMGYXID1taHeSuhKn84jk+XxUIv4dtODPACHqCI2mbmLiVvcAwBE9CHzVJRw0I7I8utXAJSnGnp9tWH3d65UoUc4aEWcYrJOAcg3WdBplPDIi4iMRicAkB0145vZGlHFduJuU+KW3q8ARHRh+qmgSzmGISJhm9csoPizNo8qox+bPIghTrE4oQKw0ax6KErYaU1E1dpNjwegutfJgCrBLhHfGRG3TEkHkNDO9CeU8KIFQ0678hJDZFALGSKhipmdgm914hanJ0BY3Blhn1ToUvi06rAzE1DIoPFsEI8qJJqB1NYMcQr/NxbHN6UOrn4SJShDX+bineeOVCGmYwqmC4hbakgR2PpARIfR8SgX+zOPKlTrPG6aEMecQP7EWlE3ux1XoFyxTlQhw+VKuBHHdM6Dj/3MrJOLolGulG5UsSGJ+JY4xu480r2qXVYGPmBRnjcjqGLuf+OBKXGLcFI+tomGZyMb5Ur9nCom2Yc3XYhjGvjhTZXqJ1iUL30wlU9oY8bQnAzFfgFxi8A7D4toVCLKp9hrQIXEpFfdR2caU+8oPG1OHNM0EI8cHXxZlO95Byo0cairhMjYjnQJN0sPSJyDkf2tiLhFtDo325uWZKN80qMuPFFrN6LopOvfOlLDb2xJl1tKQC3JJRZ+9Ylj6r9kr9dtGYkK5D49citsm51hDpDpY1l95wpz0sHfEdaJxkmRPppP3MJsZrO9RQdYVEQFPOvYRQpA5SuZkLjEgHS4BHQnoTfgW4M4pm4abjZuK0Nl7DurhFrGF05/5kywIm2GX7Yhagpk9uARx2xF3gLLS/gHVGeMZ75J+9aYtDCmZib9zgI4Y0gc0yIOLxp2iMM/ENKqTgjiJhuRNsnUSBZA7ufEMaYbodpsugb/QOYs3jYl+6oPn7R4BbLQuGFA3MK0CYXcs/4FFSqN9a09TAb2Sm3S8uUbOTSyJvCIW8x+lOKCTdcQFmWQhb1OkUNb7rJvZACm8Omdtku3voAae7sucUyLB8jylkxORRlSe/We9KPPCzneycmB2iUD0vHZNQWAzGVGxC2iVTnsw9bGq1TQJ+n4+RliEtTo9PW+MAV0PDQiHfwWl6EW3JY4pt5j5G+ytPSBPvFDnFp6iIlIYNew1yFo2y0mXYJeLwDIN9sQtzBfKpA2Vlj9qhIlJfg++FLICBhSE1q638Rbyoxzdakk/srckCRkjeATtxg8AgLdeF6BLEp44sGjQozNuKsyaGRnxYQ+uH1osCWV5vKo/YwMPKlJHDM0D9hlIBoRiRKUN7tLqACvTxYKJcRfX9m0Cum339R+hxQbhcQt1qeA3FFk9l0WSlAF9xORBlNnbwaK5D9db0f6TTHgNfVXpQ4ibuH3jgOCXcn6OosSVKH1qQDPbsAlFYpIfaqSXlY8ErYKUl5zJm4x36CA8oQFdciDrjdb+5mRhv2z9Gw53lI97CigMvBs9uRstyZuaXaXRdpcQ/oLJch3uTKkJuh6ORva7veSUFlMT6dMNSBOESzMBII78aeglEudSIPf4LtwFlqezqpGZeB1jAjpxCNOcbzGQnnSvvbRXOiKTH/0hZA0jDsHQVumz+yuDcSkj9ka6TUb4pbeCiBvnsDROxY6Dvfc/3KBKRUIhw42I/LZgeqkB+NxW/krcQv/dxZIb0OCsVHQlvVDtRa/jJSQxkE5SlI+a8qn0nhTU7Nni4hT6oQAuGVPNCoDOk53tuVRAYcDGSiJfdBeSKWZnlRGDRIRl4i+zABy1xgR/QYdbOy2vpZUwH5tEkpS+buRHq3jVbda8ohLqh1WAhG9iVyeQZcy4tRIU9Kw3SoFFBkKaJGut6TShMsh/7MmcQnvs2eA8qwzGS5DKYkXeghJrV8skLWqz2+xeCehNUOlOd5F/nZD4hL+nHQgb6qI2kaiFDbztzoCookpAJux3NFu9K00FYrslVBpvO4pUC4xIC4xO8YCTxtSlX3QJ3hEVf6oJyzU/DqamfY6E4dCcaakh/HCLOROlxCXuEcD+J4vnC+FPm8O9jPveh1qbOSaFiKzLy5kooA5lWRhwlDN43JEDjUgLpmZD6TWp89eQC/lq729OvlDQ3r/Ny++82TfHAABxlTS4BUGRK2CWdWznjziEPvTAA6RnS/KoIjxv41C8rAdbY0cPb13rPLgUUmDQicRCfpkgw1oyhB3MM3us0gfw/s2G2VhVSimlN4cUMVIJGCoFKubaYOFxBuXBTa0MXEIf0wCVFdqugahku7PbGLKUGnzpGEdiMTz3gBXaxOHmP+ci6yVJpNyUUnyoLXdzakUhwDFTksi29UJUBx3IQ6pdY3F8y7GqzJRWYrQw32MqKRuSa+6E5H1jHjkHWtAHOKZAeUhO/NhV/NQWarYiyONSZfwq9x1ZkRk/FM+pCediDuYablQzhHwxIYu91GOH788kyBD1oKhM3+8lCDNvz+tipi0mXhvdyQ14REWqiNViDtMN8qQ1obUvOJQSm5iXKoUanF9TBqvf5R1cmorU77b9iiF6tF0VzFpEVqKSMMtA8C22sQdzr5K+NcgIsNlCpTweNHY4ZOXbDv/Mh+xC2oKPX9LRuTajuZ2A1fsvfLC37shlTYpC4DihCtxBq/DY+StMydimvyNEtYJSc3EufP0k9lZB13JctxfybKnRxcPc/fqMPRq5rUJdlTSN9DIu9CWT1whGp2IxKlCItGMTOgKtqZCIvuuxzJ92vJE1Rv1P6/KTgx/Efw4RcWmXOktIl32V6ChuNeMIa7gz8lD9CABkeNJJXSw2y0YKsQYdDj/5vF4t6oO9XfgLTb/UEM+aeN1jIQGG9ZHRJyxOxdPOzJELe+w0CE70NyUoSI2q7Mgfx389A20Pe1lStok37xBgZQJ1sQV9kcVuNGQiLr4yqFDFvDzSC8bKiS+mHvT94kKOtjImZakrdqWHBRIXVuPR9zAa/oXcM6ViJzHLj6cCB2JD322rhjer3uL7mOfSs/2ajftYg50xM81I2219slRIPuPVnziBkGnR1D4NiAinsFmGUpS5ibGxbyKSWaRGzDCwHFogBLaUmeKSFuVUyiU/7Q7cQTj9QSqOx0FROT9BuVg5Zl/briRDx2KOYakzXRjBosC2Yut+MQNw6OBkP4iIpstMlSONDQ8SQmN3FmmpM102gsFCkjPdDUkbhgfCbyaZUNkvUuOSvHt0n3cisOBKUogboIBaTPqe0aOQi8WOhInSKYkAZm73Ymq7ZBDv/DlBxNZFNtNag5DjqcC7PNhYtLGd16SiEJZPu2IE8yWZwL5AZ/xGaddcugVPcLWdVUMikTVJaKmD5PkANiIPnzSYdTxvBwFVM8X2BIXGCyMY8FG9eaR48GkbBalsa+m1zKtsjRcDg3lKWuiLuksCmT0E5MOxrDHpVQVNJSBfSyIC4ZFAYjzILLpMu9iogp6vPquk0t3PyU00tbU4otGX36VD42k4UZUgmTYmTApNKS7vYyJA8a9BuDfnIgY+/GXpdCDTbl+0FeBAjm+o2rwHHotOXjx5k2fHeOsqRTjbiuu5ECNDVvaUEAfPPH4CEBx2ZPU+A02KFCRuEsr+tQR2tZt3LimBeklbjB024M8ANm3F1alf8yw66yNS0c40Pti0P8pIP+rCWlYrMlDRdjcuNCgXd9NHurVtGk10ouxrNV1TSCAzMdTzOmf+cwvJiM/J+lqDwG9J4znbSXYxz0MSc14RS4qQ6VSKuRyeX7edxLSi+GLnLxfs1CGTq8pocoS1N2Rw0JDtVpC743DeRmQPr+ehIjs9yjwDzxwobIZzEyBWtC8ZpZUKZIe15UolDmJ3iPnrSlAvt/ygTUZGp2Gyns9XETlMF0rhZoq+Nde1gxViD8+BMXuuNF7xNjOigQgj76yd6lPHipNvtmUymW/CQUUr05+VYUq8kUsimUuFNJ7ZdQthIUamyNH5akSzrbiUXnsdqKQKu3RLy3EVJ6Rr1GM9bWg94wxO5KFfyxhlJDKZ/NDMotCKsW9BQ2thKSfwaRYvPXcmd4/o3nPFfiHXgwWUwVMvrqvwFsZRye2qSGg0iRjIvHWy470XxB3OpiFf0YZuNiNiOz4VDah1+5EvCN//ceSAXXEpIvXMwRvvR4tpv+G47hn+Iekt6e1XXd+X3cRFRMIqAS7AXuToEURdW3H1OYmpKVNMN5KmmNK/xVh46MyFFI+9ctAJbBvomRQhU+kIrbTvKgkvnWT8ZvvP4sIurrrEQoo0l/f2zbJlYp4PsJb8v3W9B8yHBmUD4BNz4saW7vH2Xg5KudZNx5pND43U2LWdPXdN3K59NWR2Z5VjBjSYHh8gUAgGsPiLValiDu7aLBrVbteIXgnohWVgWduQO+B27Z0QLZvw63wDc1FbfbFqFApB+1Jrc6ldRatfklHMcXV77rV5FMxXtdnCpSguv9XPLREdjflEZGkWj1na2MevcNvsnmmNb0HJjMDFYhb1H7GpetTHC2HnMlFZWTOFRPf64x/x0VBChRSvroVDyT6zHAXUhFxxw23clAu+cNNSxcvXvzDCb8LO3+e06MGFWG6nlWkbxtYXULFBHZV6F8h8FybgJzTAz3mPDw9zLzWhGv5qIT4+V0XBuSH3clCkey9XRtPgFr2vV+8RFTEuPHADXcyUUnScL9No5qKiMhlbogCQLTf4e+XaOw5fPjYhYuHfx9mQ///GLPuV1XKhB2NGm+PPuwhchr/UImKZcZmsXgndbI1Q9ap0JBFnWxDxRizGh7j9j6HjpTAwMAHudBDnvw62O/QrZeZKMTmZWuoUECetN+W/gUM/6tn2aqsZTXa7w7f28LCZHhAqhL/hCK0JUNEJkEoxCrujapjZSigQgxPVGfCidf50JDf+dqeryEQ2Dcf5b3DPywqPi07V4l3WJSJ3Uj/CsZp8R2p4tYYx+Zb/dd3r2Ix/NRLOSrvjjtDaiZBeCf88LIJvdwtGCrmEQw11Q0P0iWp13bMgu/Oo3LC6V8iaLIyGGnHR9l6zd/+63hn255rHslRSXmzRVVHOxK5xUNXbuDWb9qYkoZNp8WvoSb37dfB072dmpdzDQMqImm+HZVE/xqDViuCFXGnBljUHbzmyHx7Scvp57NRKRlTO/tET6TGZ1BazuNT674ZMmLZyWd50GCzI58+DHiiFnTtyqkje77V+OHoAzkqJ53+PYxRvVkRykSfLhLLxkMGmpHYodOON6gEVXysSnV1/j059GGlGUnJOUropcrRkLKorCD6VzG84XcSpE+mVDfkkQZj8/WtxHxUBsviPVCto3+bcffND7OCF3ZyZKiAabdNgRn4MKgSL3jSv0/YbK5vVMSxaR4GVMjjm0MvFfjP5QfsHFeVofeBX/vzFf7pgTtH1+SRBt++/ZJA/Jci7uyYP8TDmk/vC2NUtefu2NTwIz3NqIBRzdG35fgvJJ1Z+UVT5+qWEobeM8akyw8hibHn5rd0NBcxRIz71ohMGYv3R5X68FsPHsPQf8es74++T1Pvbfm6RzMnY6JGs34+fiUwNCEP/xZ58vNrag9fywD5n6Ns6L9n1X7qpqsxSQ/P/DJvfDd3eyOHJt1GzV2/zy84Nh//z9jXp1aN6+Kk1rzfsnMh66vSB8LYpfOXm++m5aeGBVw+9cucvi2qGNk28OwyYPyKX0+cuBtS4PGlHcuHTNibjv+1N76zO1SXUBGRcytT+oAILKo1HPZTIID8zMSosKf714xubycwMrO1rV6zgJO9pRHxreqN3nMzOAfZgYGBdzcX2HEpgUWF2CezmlUR04eOMWo1dtOdl/FvcliwLCv/+8Sqia3q13S0tTQUM1SIeYsK8Qxa/pjIQp88sLLcrPiXl+c4M8QZvGqdv1p69OLdF/G50JCG3z29e9ns4b07tHJRq2mjZm5po1a1vkuzDj1HeO/4M1IOXbKUFwGX/1hz4sjG5d5dqxL3MNaNuo6YuWrzH1eDIlNRIDvqub+//9Wze/bs2b1l+x61o3/5P4zKgI68mLCbl3atmze+q1sVIXEd36xGg+YdPh88fdmag8cvPwmJVkAvVVJIyJPjx/d8v3Rw385tGtW1EtPHRWRoYm1j7+RU28XV1bXDWB0j27q6utRxcnKysbE0NqT/q/8B6FqVcUI7gjAAAAAldEVYdGRhdGU6Y3JlYXRlADIwMjEtMDUtMzBUMjI6NDE6MTcrMDA6MDChgINGAAAAJXRFWHRkYXRlOm1vZGlmeQAyMDIxLTA1LTMwVDIyOjQxOjE3KzAwOjAw0N07+gAAAABJRU5ErkJggg==" vertex="1" parent="1">
          <mxGeometry x="688.76" y="515.63" width="59.25" height="53" as="geometry" />
        </mxCell>
        <mxCell id="6JaRcq2dVbDghGMQPrxV-20" style="edgeStyle=orthogonalEdgeStyle;rounded=0;orthogonalLoop=1;jettySize=auto;html=1;entryX=0;entryY=0.5;entryDx=0;entryDy=0;strokeWidth=2;exitX=1;exitY=0.5;exitDx=0;exitDy=0;" edge="1" parent="1" source="6JaRcq2dVbDghGMQPrxV-18" target="6JaRcq2dVbDghGMQPrxV-16">
          <mxGeometry relative="1" as="geometry">
            <mxPoint x="740" y="431" as="sourcePoint" />
            <mxPoint x="706" y="441" as="targetPoint" />
          </mxGeometry>
        </mxCell>
        <mxCell id="6JaRcq2dVbDghGMQPrxV-21" value="" style="shape=image;verticalLabelPosition=bottom;verticalAlign=top;imageAspect=0;aspect=fixed;image=data:image/png,iVBORw0KGgoAAAANSUhEUgAAAQAAAADRCAMAAAAUuZxqAAAABGdBTUEAALGPC/xhBQAAACBjSFJNAAB6JgAAgIQAAPoAAACA6AAAdTAAAOpgAAA6mAAAF3CculE8AAAAB3RJTUUH5QYKEycLOddDkQAAAdFQTFRFAAAAAAAAAAAAAAAAAAAAAAAAAAAAAAAAAAAAAAAAAAAAAAAAAAAAAAAAAAAAAAAAAAAAAAAAAAAAAAAAAAAAAAAAAAAAAAAAAAAAAAAAAAAAAAAAAAAAAAAAAAAAAAAAAAAAAAAAAAAAAAAAAAAAAAAAAAAAAAAAAAAAAAAAAAAAAAAAAAAAAAAAAAAAAAAAAAAAAAAAAAAAAAAAAAAAAAAAAAAAAAAAAAAAAAAAAAAAAAAAAAAAAAAAAAAAAAAAAAAAAAAAAAAAAAAAAAAAAAAAAAAAAAAAAAAAAAAAAAAAAAAAAAAAAAAAAAAAAAAAAAAAAAAAAAAAAAAAAAAAAAAAAAAAAAAAAAAAAAAAAAAAAAAAAAAAAAAAAAAAAAAAAAAAAAAAAAAAAAAAAAAAAAAAAAAAAAAAAAAAAAAAAAAAAAAAAAAAAAAAAAAAAAAAAAAAAAAAAAAAAAAAAAAAAAAAAAAAAAAAAAAAAAAAAAAAAAAAAAAAAAAAAAAAAAAAAAAAAAAAAAAAAAAAAAAAAAAAAAAAAAAAAAAAAAAAAAAAAAAAAAAAAAAAAAAAAAAAAAAAAAAAAAAAAAAAAAAAAAAAAAAAAAAAAAAAAAAAAAAA2O4//QAAAJp0Uk5TAAECAwQFBgcICQsMDg8QERIVFhcYGhscHR8gISIjJCUmJystLzEyNDY3ODo8P0RFRkdIS05QUVJTV1haXmBhYmRlZmpsbW5vcnN0dXd4fn+Ag4SFhoeIiYuMjZKTlJWWl5ydn6SmqKqrrK2us7S1tre4u7y9xcbHyM7R09TZ2tve4OHk5ufo6err7O3u8PHy8/X29/n6+/z9/lYJchMAAAABYktHRJqY32cSAAAECElEQVR42u3dW1cTVxyH4T0xQcYMLQFEU6JlrGg9UA8oSEFU6CGteCxQqFotCsVCVRQLikcChiqIHJKQ/Wl7UVy6NJMM3mX/3/d+Ln7PgsnMXmGhlHcb7PLaxtazvUXc2dbG2nJ7g/qUSmsOnpvQBjRx7mBN6brn2+6J+yltSKn7J1x7XfMDW0/eXtAGtXD75NaA//3B3f1JbVjJ/t1Bv/tDDaNpbVzp0YaQT4Djkwbu1zo9edzf/iMJbWiJI372732qje3p3sL73fFVcwFWx91C+yuHU9rgUn9FCnwA/vyvNrqZ7/N/GLp3teHdzftLEO6cNR1gtjOcB6Dunja+e3V5AFqS5gMkW7z3l3Wtmg+w2lXmCbDjjhbQnR2eAIeTEgCShz0BmrWImr32l7TLAGgv8boHnpcBcN7rLljeIwOgp9wDoPp67gvGeruKst6x3HuuV3sARIdyX3A6rIqy8Once4aiAAAAAAAAAAAAAAAAAAAAAAAAAAAAAAAAAAAAAAAAAAAAAAAAAAAAAAAAAAAAAAAAAAAAAAAAAAAAAAAAAAAAAAAAAAAAAAAAAAAAAAAAAAAAAAAAAAAAAAAAAAAAAAAAAAAAAAAAAAAAAAAAAAAAAAAAAAAAAAAAAAAAAAAAAAAAAAAAAAAAAAAAAAAAFAnA5j9yX/Bw+M+ibPhh7j2/V3oAfP6LFtGFzzwAxP/f4WCbDIBvLa+7xrG0hP3pY563zfrHEgAe13sCxAYlAAzGPAHsMyvm7185Y3s/OjQ9Nx/geVOeZ6dtN80HuLktD0Cwbcr0/VNtwXyPz5GBjNn7MwORvO8PVvMzswGeNVsFXqF65k3eP99T8B3S7l8yd/9Sv134LXrLqLkAf2/xc47w9UTKzPmpia/8naTsHzRSYHFgv8+jpEDtpTnz9s/99mXA72GaVf3TA8PejNMPvquy/B8nWk5d94xJ+2e669Z5sms5u64ks2aszyav7HKsdR8qWyWb9l2bfLO4tLxStC0vLb6ZvLZvU4n1yWfrtrunseOHIq2jcY9rKyIiIiIiIiIiIiKij9recCreJaT4qYbtH8x3O289evFaC+n1i0e3Ot335odaxl5ltaiyr8ZaQm/3l8WnMlpcman42tfmwz++zGqBZV+2lyqlVOhoQgstcTSklIqOaLGNRJUKNi3LBVhuCirnhhbcDUdFEpIBEhFVo0VXpb6RDVCvDskGOKSisgGiqnJe8v75SuUMSQYYctTGjpTc/amOjUrFxuUCjMeUUnbrtNT90622UkpVdC/I3D93seL/A4FYn8ifgelfv1g7EQpUxZ+IOxLKPIlXvfsDCmfn1VlRp0LZ2as7nfdPha1wxYG+yyP/iGjkct+BivDaN+j/A5gldKvDo6ZsAAAAJXRFWHRkYXRlOmNyZWF0ZQAyMDIxLTA2LTEwVDE5OjM5OjExKzAwOjAwFH5vHQAAACV0RVh0ZGF0ZTptb2RpZnkAMjAyMS0wNi0xMFQxOTozOToxMSswMDowMGUj16EAAAAASUVORK5CYII=" vertex="1" parent="1">
          <mxGeometry x="960" y="357" width="60.42" height="49.33" as="geometry" />
        </mxCell>
        <mxCell id="6JaRcq2dVbDghGMQPrxV-25" value="" style="shape=image;verticalLabelPosition=bottom;verticalAlign=top;imageAspect=0;aspect=fixed;image=data:image/png,iVBORw0KGgoAAAANSUhEUgAAAQAAAADRCAMAAAAUuZxqAAAABGdBTUEAALGPC/xhBQAAACBjSFJNAAB6JgAAgIQAAPoAAACA6AAAdTAAAOpgAAA6mAAAF3CculE8AAAAB3RJTUUH5QYKEycLOddDkQAAAdFQTFRFAAAAAAAAAAAAAAAAAAAAAAAAAAAAAAAAAAAAAAAAAAAAAAAAAAAAAAAAAAAAAAAAAAAAAAAAAAAAAAAAAAAAAAAAAAAAAAAAAAAAAAAAAAAAAAAAAAAAAAAAAAAAAAAAAAAAAAAAAAAAAAAAAAAAAAAAAAAAAAAAAAAAAAAAAAAAAAAAAAAAAAAAAAAAAAAAAAAAAAAAAAAAAAAAAAAAAAAAAAAAAAAAAAAAAAAAAAAAAAAAAAAAAAAAAAAAAAAAAAAAAAAAAAAAAAAAAAAAAAAAAAAAAAAAAAAAAAAAAAAAAAAAAAAAAAAAAAAAAAAAAAAAAAAAAAAAAAAAAAAAAAAAAAAAAAAAAAAAAAAAAAAAAAAAAAAAAAAAAAAAAAAAAAAAAAAAAAAAAAAAAAAAAAAAAAAAAAAAAAAAAAAAAAAAAAAAAAAAAAAAAAAAAAAAAAAAAAAAAAAAAAAAAAAAAAAAAAAAAAAAAAAAAAAAAAAAAAAAAAAAAAAAAAAAAAAAAAAAAAAAAAAAAAAAAAAAAAAAAAAAAAAAAAAAAAAAAAAAAAAAAAAAAAAAAAAAAAAAAAAAAAAAAAAAAAAAAAAAAAAAAAAAAAAAAAAAAAAAAAAA2O4//QAAAJp0Uk5TAAECAwQFBgcICQsMDg8QERIVFhcYGhscHR8gISIjJCUmJystLzEyNDY3ODo8P0RFRkdIS05QUVJTV1haXmBhYmRlZmpsbW5vcnN0dXd4fn+Ag4SFhoeIiYuMjZKTlJWWl5ydn6SmqKqrrK2us7S1tre4u7y9xcbHyM7R09TZ2tve4OHk5ufo6err7O3u8PHy8/X29/n6+/z9/lYJchMAAAABYktHRJqY32cSAAAECElEQVR42u3dW1cTVxyH4T0xQcYMLQFEU6JlrGg9UA8oSEFU6CGteCxQqFotCsVCVRQLikcChiqIHJKQ/Wl7UVy6NJMM3mX/3/d+Ln7PgsnMXmGhlHcb7PLaxtazvUXc2dbG2nJ7g/qUSmsOnpvQBjRx7mBN6brn2+6J+yltSKn7J1x7XfMDW0/eXtAGtXD75NaA//3B3f1JbVjJ/t1Bv/tDDaNpbVzp0YaQT4Djkwbu1zo9edzf/iMJbWiJI372732qje3p3sL73fFVcwFWx91C+yuHU9rgUn9FCnwA/vyvNrqZ7/N/GLp3teHdzftLEO6cNR1gtjOcB6Dunja+e3V5AFqS5gMkW7z3l3Wtmg+w2lXmCbDjjhbQnR2eAIeTEgCShz0BmrWImr32l7TLAGgv8boHnpcBcN7rLljeIwOgp9wDoPp67gvGeruKst6x3HuuV3sARIdyX3A6rIqy8Once4aiAAAAAAAAAAAAAAAAAAAAAAAAAAAAAAAAAAAAAAAAAAAAAAAAAAAAAAAAAAAAAAAAAAAAAAAAAAAAAAAAAAAAAAAAAAAAAAAAAAAAAAAAAAAAAAAAAAAAAAAAAAAAAAAAAAAAAAAAAAAAAAAAAAAAAAAAAAAAAAAAAAAAAAAAAAAAAAAAAAAAAAAAAAAAFAnA5j9yX/Bw+M+ibPhh7j2/V3oAfP6LFtGFzzwAxP/f4WCbDIBvLa+7xrG0hP3pY563zfrHEgAe13sCxAYlAAzGPAHsMyvm7185Y3s/OjQ9Nx/geVOeZ6dtN80HuLktD0Cwbcr0/VNtwXyPz5GBjNn7MwORvO8PVvMzswGeNVsFXqF65k3eP99T8B3S7l8yd/9Sv134LXrLqLkAf2/xc47w9UTKzPmpia/8naTsHzRSYHFgv8+jpEDtpTnz9s/99mXA72GaVf3TA8PejNMPvquy/B8nWk5d94xJ+2e669Z5sms5u64ks2aszyav7HKsdR8qWyWb9l2bfLO4tLxStC0vLb6ZvLZvU4n1yWfrtrunseOHIq2jcY9rKyIiIiIiIiIiIiKij9recCreJaT4qYbtH8x3O289evFaC+n1i0e3Ot335odaxl5ltaiyr8ZaQm/3l8WnMlpcman42tfmwz++zGqBZV+2lyqlVOhoQgstcTSklIqOaLGNRJUKNi3LBVhuCirnhhbcDUdFEpIBEhFVo0VXpb6RDVCvDskGOKSisgGiqnJe8v75SuUMSQYYctTGjpTc/amOjUrFxuUCjMeUUnbrtNT90622UkpVdC/I3D93seL/A4FYn8ifgelfv1g7EQpUxZ+IOxLKPIlXvfsDCmfn1VlRp0LZ2as7nfdPha1wxYG+yyP/iGjkct+BivDaN+j/A5gldKvDo6ZsAAAAJXRFWHRkYXRlOmNyZWF0ZQAyMDIxLTA2LTEwVDE5OjM5OjExKzAwOjAwFH5vHQAAACV0RVh0ZGF0ZTptb2RpZnkAMjAyMS0wNi0xMFQxOTozOToxMSswMDowMGUj16EAAAAASUVORK5CYII=" vertex="1" parent="1">
          <mxGeometry x="960" y="461" width="60.42" height="49.33" as="geometry" />
        </mxCell>
        <mxCell id="6JaRcq2dVbDghGMQPrxV-27" style="edgeStyle=orthogonalEdgeStyle;rounded=0;orthogonalLoop=1;jettySize=auto;html=1;strokeWidth=2;exitX=1;exitY=0.5;exitDx=0;exitDy=0;entryX=0;entryY=0.5;entryDx=0;entryDy=0;startArrow=classic;startFill=1;" edge="1" parent="1" source="6JaRcq2dVbDghGMQPrxV-16" target="6JaRcq2dVbDghGMQPrxV-25">
          <mxGeometry relative="1" as="geometry">
            <mxPoint x="758" y="441" as="sourcePoint" />
            <mxPoint x="950" y="460" as="targetPoint" />
          </mxGeometry>
        </mxCell>
        <mxCell id="6JaRcq2dVbDghGMQPrxV-28" style="edgeStyle=orthogonalEdgeStyle;rounded=0;orthogonalLoop=1;jettySize=auto;html=1;strokeWidth=2;exitX=1;exitY=0.5;exitDx=0;exitDy=0;startArrow=classic;startFill=1;" edge="1" parent="1" source="6JaRcq2dVbDghGMQPrxV-16" target="6JaRcq2dVbDghGMQPrxV-21">
          <mxGeometry relative="1" as="geometry">
            <mxPoint x="887" y="441" as="sourcePoint" />
            <mxPoint x="950" y="475" as="targetPoint" />
          </mxGeometry>
        </mxCell>
        <mxCell id="6JaRcq2dVbDghGMQPrxV-29" value="&lt;font face=&quot;Tahoma&quot; color=&quot;#336791&quot;&gt;&lt;span style=&quot;font-size: 14px;&quot;&gt;&lt;b&gt;Send requests to the service&lt;/b&gt;&lt;/span&gt;&lt;/font&gt;" style="text;html=1;strokeColor=none;fillColor=none;align=center;verticalAlign=middle;whiteSpace=wrap;rounded=0;" vertex="1" parent="1">
          <mxGeometry x="932.19" y="310" width="116.04" height="30" as="geometry" />
        </mxCell>
        <mxCell id="6JaRcq2dVbDghGMQPrxV-30" value="" style="shape=image;verticalLabelPosition=bottom;verticalAlign=top;imageAspect=0;aspect=fixed;image=data:image/png,iVBORw0KGgoAAAANSUhEUgAAAQAAAAEACAMAAABrrFhUAAAABGdBTUEAALGPC/xhBQAAACBjSFJNAAB6JgAAgIQAAPoAAACA6AAAdTAAAOpgAAA6mAAAF3CculE8AAAAB3RJTUUH5QQdDCAyieeFVQAAAVlQTFRFAAAAAAAAAAAAAAAAAAAAAAAAAAAAAAAAAAAAAAAAAAAAAAAAAAAAAAAAAAAAAAAAAAAAAAAAAAAAAAAAAAAAAAAAAAAAAAAAAAAAAAAAAAAAAAAAAAAAAAAAAAAAAAAAAAAAAAAAAAAAAAAAAAAAAAAAAAAAAAAAAAAAAAAAAAAAAAAAAAAAAAAAAAAAAAAAAAAAAAAAAAAAAAAAAAAAAAAAAAAAAAAAAAAAAAAAAAAAAAAAAAAAAAAAAAAAAAAAAAAAAAAAAAAAAAAAAAAAAAAAAAAAAAAAAAAAAAAAAAAAAAAAAAAAAAAAAAAAAAAAAAAAAAAAAAAAAAAAAAAAAAAAAAAAAAAAAAAAAAAAAAAAAAAAAAAAAAAAAAAAAAAAAAAAAAAAAAAAAAAAAAAAAAAAAAAAAAAAAAAAAAAAAAAAAAAAAAAAAAAAAAAAAAAAAAAAAAAAAAAAqFmfAQAAAHJ0Uk5TAAECAwQFBwgKCwwNDg8SExQWGhscHSEqKywtMTM0Njg6Ozw9PkBBQ0RHSUpLTE1UVVZYWVpgYWR4eXp7fIKDh42QnJ2foKGmp6mqq621try/wMLDxcbHyMzOz9bX2N7g5e3u7/Dx8/T19vf4+fr7/P3+tWe5ZwAAAAFiS0dEcjYODVgAAASbSURBVHja7d3/d9pUGMfxexOCo9ShA790DO0sVKVQOye0owzndKy6acus9cvCgDYU2q1ZuP//D/6wqe1Iz65KNSf3/fn9OZf7OknIeXgShDgdaSdT6blrlXIsU7k2l04lbSnOi3Qypds7/YE3jGm8QX/ndinjhBPIRO6W6439iYpxJv7Yc2/lEiEEVnazOwqUAQlG3c3slIBVfjQ0YvtKKRUMd4rWK/uvdZ8rg+I/rp0RsDZ6gTIqQW/jlIBV702UYZn06tZf5383UMYlcP+4DsjsI18ZmJOdl98FieZQGZlhMyGEEDJn4gmglFJBNyeFEE7jUBmaw4YjhMy4gakAgZuRwi4dKGNzULJFsjU2F2DcSopUxzcXwO+kRLo/MRdg0k+L+YEyOIN5UfBMBvAKohpyG9iurccwtXbIzWBVrIQArItYZj0EYAUAAAAAAAAAAAAAAAAAAAAAAAAAAAAAAAAAAAAAAAAAAAAAAAAAAAAAAAAAAMA8gN2738Qwd3e1AZ6NY5ln2gAGPTUDAAAAAAAAAAAAAAAAAAAAAAAAAPAiT/Z+jmH2nmgD3Fn6OIZZuqMNQFscAAAAAAAAAAAAAAAAAAAAAAAAAAAAAAAAAAAAAAAAAACEkLZWrNl+eEtvVXnxAHb+3pZGvv3ynZkCbH6ns+q9vH3hAE55/1gjJ3vvzRTgB19n1f2yc/EA1SOt0YNfF2YKsK216FH1PwCoRBmgAgAAAAAAAAAAAAAAAAAAAAAA/2s/4GpM+wGJxe0fNbL79bszBfjqJ51VtxcTFw4gL19f0kgxf2mmAFeLOqtevyxpiwMAAAAAAAAAAAAAAAAAAAAAAAAAzBzAekMryZDejKNX6kQawLry2ecaufnpm9PdtMU1ndK1RRllAKdy+Fwj6pf3p0rt+6Pg9ZXB6L4dbYB//LuAvXWsU3m8BQAAAAAAAAAAAAAAAAAAAAAAAAAQLYBVPYDfpucE7QdPdSqfPog0gHyrpPMS308+SE2XLizrlC4vRLonSFscAAAAAAAAAAAAAAAAAAAAAAAAAAAA7cjFGzc1ciNsTG75C53StStWlAHsh3pN0YchTVHNh6dXnUgD/Iu2eHQenwcAAAAAAAAAAAAAAAAAAAAAAAAA+DsA7f0jjey3QwC+P9EpHZQjDSDz5WrltamW8yE9wQ9XKxopvx3pnqCwHa2EzUkm9Eot2uIAAAAAAAAAAAAAAAAAAAAAAAAAAAAAAAAAAAAAAAAAAHAOQDUEoF1bj2Fq7RCAqih4yuB4BTE/MBlgMC/S/Ym5+5/00yLV8c0F8DspkWyNzQUYt5LCLh2YC3DwkS1kxg1M3X/w+JIQwmkcmgpw2HCEEDLXNfQQCLo5KYQQiebQTIBh88V/1Mps58TE/Z90si8HEq2iidfBwC3+OVVo1XvG3Q5OevVTU5XWRs+wYyDobZyZKrXqrlF3xL5bf2Wq1ip2hsYcBMGwU5yaKpbZZndkBEEw6jazIQPpMpFruN7Yj/XlcOKPPbeRS4S/t1Y6mVKr0x94w5jGG/Q7rVLGOf+1vdJOptJzhepKLFMtzKVTSfvs9n8HP2YTs3xBdh0AAAAldEVYdGRhdGU6Y3JlYXRlADIwMjEtMDQtMjlUMTI6MzI6NTArMDA6MDDTP32sAAAAJXRFWHRkYXRlOm1vZGlmeQAyMDIxLTA0LTI5VDEyOjMyOjUwKzAwOjAwomLFEAAAAABJRU5ErkJggg==" vertex="1" parent="1">
          <mxGeometry x="384.68" y="392.26" width="78" height="78" as="geometry" />
        </mxCell>
        <mxCell id="6JaRcq2dVbDghGMQPrxV-31" value="" style="shape=image;verticalLabelPosition=bottom;verticalAlign=top;imageAspect=0;aspect=fixed;image=data:image/png,iVBORw0KGgoAAAANSUhEUgAAAgAAAAIACAMAAADDpiTIAAACW1BMVEVMaXEAAAAAAAD5mTgAAAAAAAAAAAAAAAAAAAAAAAAAAAAAAAD5mTgAAAD/nTUymc3/kzIxmNIAAAAxmc8ymdYAAAD5mTgzmc33mTj5mTgymc35mTgAAAD5mTf3mTgAAAD5mjj5mTj3mTj7mjf5mTgymc75mTf3mTj7mzf5mTf5mTgzmc4yms74mTgymc75mjf/mDb7mTf5mTf5mTj5mTj/mjf5mTYAAAD5mTj5mjczmc0kodv5mTgzms4ymNYymc40mc0zmc0zmc35mTf5mTgwm88zmc35mjb5mTgymc35mTgymc8zms4ymc0zmc33mTj5mjczmc00mc37mTczmc0ymc3/mjU0mc35mTiMm533mTcymc75mTgymc3/oC33mTgymc75mTj5mTf5mTj5mTb5mTj/mDb5mTj5mjdMaXH/mjMzmND3mTj3mTgymM4AAAAymc0ymc0ymc3/gQAyms/5mzb3mTj5mTj/mTIqm9X/mTIymc0zms/7mDj5mjj5mTgvm9Aymc0AAAAzmc00mc35mTgymc75mTj5mTb5mTf/gUAAAAD5mTj5mTgymc37mToAAAAum9H7mzhMaXEwl8/7mTYymc8ymc35mzgAAAD3mTgAAAA0mc0gFAb5mTg0mc0AAAD////pjzQeEgbLfC67ciqbYCQuHArZhzJcOBT7s2r9588QCgR6TBz7zZ1sQhgOCAKNViA8Jg6raCb5n0RMLhL/7dv7rV4+Jg75p1L/+fP/8+dOMBL9x5H906n938P7wYWdYCT92bV8TBz95c37uXb9zZ0ymc2raiYiHM9WAAAAnnRSTlMAoYH30DAg8RBAYHD74RL8BxpQNAmRt9Hsl/HQsV7jwU/c5zu8XX6nIG+gbkjBOlQWMHj9rwwq3/BM2AedUBCKgaHnjNYi3iVqp80+ZLvFyEa07TeczBD33wNBe5P1CmN383OPSrIauVkAHS2Gg1W/65JzAkMuxdMKDATiWDUoiRWVn67zq2nZRGYEfpsslz5uKD4AIDSCKEivy0693f7pKagAAAAJcEhZcwAACxMAAAsTAQCanBgAACAASURBVHja7X0Jc1zVtW6XDXgEAwZjxoAxNmY0HAiGSyDM4DDPBueBIRCKMNxwCVMYzRwg1H2VG0jefatbLcka0LOe6p3CMohByKH0s151n2mvtb69T9tuSUfW+gojdfc53Vu99157jd+q1QwGg8FgMBgMBoPBYDAYDAaDwWAwGAwGg8FgMBgMBoPBYDAYDAaDwWAwGAwGg8FgMBgMBoPBYDAYDAaDwWAwGAwGg8FgMBgMBoPBYDAYDAaDwWAwGAwGg8FgMBgMBoPBYDAYDAaDwWAwGAwGg8FgMBgMBoPBYDAYDAaDwWAwGAwGg8FgMBgMBoPBYDAYDAaDwWAwGAwGg8FgMBgMBoPBYDAYDAaDwWAwGAwGg8FgMBgMBoPBYDAYDAaDwWAwGAwGg8FgMBgMBoPBYDAYDAbDIY3777n81E0bHj/nkvV3nHz9g+u2UIrT7lhz5TObnnros832HR2iePrOTSeev468iNKfi7ee89hH99v3dQjh6P96ZPtLW2i/sG7NW0999pp9d/MeF23a+DIdIKLF5z/75aX2Hc7jyb9kbSHaD2gJENHWZ/9kX+U8PPHbk98lnGFrYF7hlcu3n0FdxvXP3mRf7LzATY/9nmYGJ284277eqgv+x7bSDCJaf6EZBtXF5ptfohnH2utMDFQTp66PaBYQEV35tH3bVcPZb62laHZARCtPtCVQKZy+pr03ZxF0ooUMKnPyb3hwVuc+FQOLHz/KvvsK4Mnti6N8/mOanX8Jdmx4xb7/uT76P13MtuVs/CvEDZ32lE3BXOKXG1eSs/dnDfmHUXTHL20a5goXPUGuZh5RPHtmQJR9GtF2OwfmZvdfkgnjbD+2Hsf8v5l47K6CNs6wONHs46aNkZ6J9iGdRX8TodD1x66gyYTA4k02IbOs+p2Tz3qyJWdVA0gETaZ0tn+uN6fALOKo7USu3s8P5VlSArLdn/5Y+5HNyyzhtU1b5OHPFgPX1d1LuvvYWXptPGtRwlnBmdfLw7+9CZOdSHH6X/sHOaKhe4+1CpB8NN3xpM3OjOPp90kY/nEaBMg2ZPpfRCSstq49Vr9lP9b+l03QzOLoDTsi/OXPfiggRtEB8wvOKN44Q579/Jd4FnSA7Jf0+ImFJ+Kt/7Bpmim8cp3SwfPtT4WTPlcG8jM8PcK78JiKF5j/MdcEidbYRM2U8vcgM/yJIhwESNyBLDmAKOraY1IfzGVBdL6VkczI9t8OVLBYmgKREAwzqgHwTykWxj9tBczI9gcOP2YQpKYARSg1oJuPI0fA8PGkj062stJu4zpShr9rg2cGQRzB1AByTvSDfwxUAC6LInrZMoW6ipteZtI23X/ADHSkRImP8CAeKwuEOQmSJ0+2U6CLuHmxOPOBLe5sfscrNEOBILhGuELyT0sR6BaOWkPc46cUr9hJ04oJuAFykeCG9A/wsUcKyAVB5x9tU9cVfLlWOP5iuefJeYVd5IbwMzl9kI9J+SHI0UdcS8T8Ad3B42pnE/E9r4RzTNEMVgjEBI4CZ2UUK/JEm72DF//nw/OW7flYqQDAJJCO+wN+zBKChNUhRkKWJXSw+NNpxMN+SLd3LbOYxCrJD+4shyd9gg70MXP5cEFD0kaM7rQpPCicSjLs5+T9uHs+VjMTuwuEeEj3IB6jD2VeCf7qljdtEg8cf9kOw215yIeE/s2umykdgGRKcK6NOGPIlRD60EyBA8bmO3yClQf8YimACRzRPH3vgDWByPepYmkWT1xpE3mA+Ow0iqKw880V0Hr7p9GB5AwvjgHXvN/vxzH/VJiILIZqCSIHho92SIM+D8ijbam9wiSXiONGlHZbp4+JYCQqzxaII5UyQDuMS+RA8BiR8v1xWxtIhZLKAEIpw/vzGD3JVAAi8FFbbTb3H1di358IxqfZPyS2P3QOdLAgSh/HzPPnRiFDWYP0rM3nfuLS9SASx8t/5F5TuXqFoSDPcOXS7zgn0JFAac2YkgnO9YU/0jKF9w9PX+/un1jWYITtfxUozM9wxyvAMgpZHmHJY79hmJYjFHUDhfygM6xeZH/w5jrSyf5MxS/2PFHgxC4RzyDBoPQxUACc11HdQBvX2azux/yvjTxmP3K7ishfrMz0OGDUOwKko8eOMMgV/pAmUFx4kc1rx+b/FgJ5/UIfi5lUIL7zSOjj+blMpOv7+Z4ue6yzkfwji13L4GWrFegQ92wRrnw++cVJmz2iEpedDAeICH6hDcSR5zGP9UvBgwwLkDD8mE1tRzhzMfFAnthbxUkrEwKIRCpgMClAColIihH03tpMZFKq+GDwuYutarQj999iob57jXJetRGLAk63UqfEsd9hIACm/0WsYlg5I10HIW202S3H72S9vbDbfZ45T6agfAMlVqQrkcDjGKkkhSUijQU5rMJJ+JnNb7n8R3q/m/JBOrbH03/UJiahR3gK/Qj4GAUZmFsqWJ45rtfkEzbBJfjTlgj6+uR+z7a8rv7jentMQYY3ocWHCn5QIEjsdq8rsYCZgmGc7dj/YDvnGj2BwF8M/AGMyANn7QQC+WH3n2N+iMRgrl26UcLIkoSDePJBUtW2rt3u0+hdhyDi7Sh2pOD80LpFjIlHYl5sxFQApi5otyQPLd9js+zHUR9Csc8d98CrR96AYSQNfyEKVKGfLPhhP1goAdmSKjahR2QiIBD/+6c8UVERMBW7UGr0pIoCvVXEgu4nptIUgJJEA14bFBMONpgWEMIaErV1cAvJDB/lBXRZQqjs6I7Am2jyv9iN94WyAoHrMHddptdcYhPtwbOkrXdphkMKIHkiaykCSH1Coft8F2tDwwklZELE8+bEK5SKF4xVHONyb9jP9a2LE7dIwAOMgcQjQzFwHTruAalI6OQCnlug6MkJywglbixFGOLNxSSD/VEwNq+3s69EF3hlVFVh+F5fGSL2SZP2KrrCZrGVjAPcf5rH2S7JANyKX3yyQzsh9skMpAToTAJgZ4RcCrB8IRdFH9t0K/zHSwT0f0KGNSYClhU6ztOOkyD2egHEGV7cRtIfyD6RuwhY1aLjVxBDftnmW+FxsTmxZY3sfU8iNgoeRDJi4FL/yAwgxxSgCKQnAOOUVS2KpEA2ZLMEJb7kU6VseGTv+/3tnRjqMmrjKfwLhht9LgKUnMr8kdttxoUHcC3KsGXMW5EKAoIandh3NucagtYJ0JGutQiYAsR8/+U5BoVQ2vIXm3OG9eQz8XkyGIoHOLF+XgemkgDA5mR+fFESjqRDzI590rxgsUhJigkmB51uc+5iE0vBgjF991jVVB0EyoeKF8hbHMx8BCDNh6UcxJxjQNYc88qwXAMA+QKxeQM5PlsMsux8yV/OT6gAhKQx9/ioWL+IJ5DQI72JHz7dgDBTWevylcYhWuDo61XoX268OPJQ8SECIA9Rh04TomDBfweFBFKn8CsYTlJS8vARm/ccb1Eki/hIbDxZj0OkzXJ2FzMT3M0cS7YhniqAKn9UaiE5uceSF4xrHLHXWLHUsBw3rdRJvT75DZ1vLOM/RhzB6k3co1wLd7T75YHOE8picFTFeAQpVlqhYIaXMOUqtvDZTkaXdEIKFCL49oYagm9M1HnnsvSyy23mEzylrXOeqxvDQx3U6/LfkN7ANQbyFPPEysng0UFir5cSKgHEEpOMPjLBpetI6/gse9sR0zrTt3D2u9EA8nkCUOGQLO6NdN4vESk9Ptc/ZGcCLaVgwfI6m/siBhBi8FKJ3LGSy7rCS64fX3I3iwXgej8RXKBIZP74Y4xuNQJwPN5kk99yAaxUOQDBI95DB95Z1l4oNqDO77JIg/APljAPgeCFGYJtDRDvPOna0+cq3Fa6j4jMAY59RYeYUYQ8n66vRdnGXmulfd85Nvu12um+sjxF9UOoRo8b+/ok1xn7eahZpQvGmHzc/XT1UTxZQLocfEpAes2DNv212oc6jO9xx/l8AaDsTx/CsY/Rp6g34G0AgpnIvDcAowLQloVbqix82VYqXvtYN99QmbbYwCby5AZ35pQvcR4QNjl8zAKeHEb9nvy5Cy0IsE6n1EaofLczLcB5IhAOCHN7iLSfOEBSGH6WcFaqa+o8s+AXwAYZo4+BBEWu14C6TkqOxKTeTZcVKRtf+gw9OUhanXAtAtluiI9vwdeI3b+jU28/2six96APh/tlWRFBp70SLVJliEXwQrUTikS7IS02tix4HxCh9D8KlO5EiJBXbUZEC0PUuQbA035inz0Hmgd36JDI7nt6Yc//ZunL85/Z/kBgjOfZezEiFfKtFgoHBHzUhZ6/B/Q5XeDxoGfE9hd1OroIDIgGcDJzFgBE8ut0AfCf1WA/Q8sjgjxETO3n5AaOv/PihR0F2oGys2NEr4c3EvTnRx43DlcMpL0Azmreg5x4rQDKVJLRPnFeEdBRFnaN4MWQa6dEA+C0W96z3Mfridz/HgtedqhRhBAUSE2gYLJiPvaXFvL8v7ZWp9R6CvmVT8CvBQh+IE3y24kVL1lC4zKVAZeiwuAme7O1C90JKHzvMfkrf6EbADD/krQmPPp5TKA2gBMJeUljQixhmieUE5Zxv8YCbi2+7UHV3o8CXvWgT094AnzeQV/lIVHAuNRVwlwF8EQedOti5IOkBdxC4nScd6traICKL+NtOOtfewikwzEc8XcNBScpSDaV9ngqAlWGzkgWcH3QGmiv60o/N5U+1pRBXpVA6+jqd1w1hBwGJYmhWCmFLOJci6GbF+z8Pw3z58SmJ1ibq1UGaXwznSEO8PgrhUPoHp3kF8U+ykFFIhhr3+HCDQc9C/PnvFW/qHMXSRUAquuS5Fe7C1wZI+v+HerPWBcNakFByrOB+MqKCOfCTQpaRz4XbBxSAaQ08GXio+UDMkZCO1xQfzKJQqBfGOIM9vAIFwJm/YJVAX2hPeUVJMH7FavNG3eoBUB3gbepUKg8qTQ5xFdwKv9UWrDNJNc4Kj84rXFNPZEn0IfPWcDgozQFvqk9nYlCoiL2OS1h3QHJHscLNS3wbCynA6414O8DUX8Yzmckv4QcfEqZKPQMJ+oA2AJ40I/XG0CtQg5qoboCLw5F3aBazT35JHJ7S/P82WHsdRcAH6MkDXHoQ4l8uX4xQemAVIMF6gU8w9txG2XUkOgaGnvpGUkT/RThehQs9LEKBRYHrBzmCUkqxunEuJzK5NZnLkxf8GeowW8oBEgUCOt5EoZ0/ED1HvWzCnVYcCSXX0wBrUDQjyS/LcycoLfKCq6ha42l3rhsfNgaQCmCggEQsAqxJ5n7QDQjxz4HwRggx6bVjjcX5AI4zb/NAhY1wSqRyMckCEhEIk7wVZ4TSIpejEgq8x7nhT6c4CctSMLIzyUXmNtxW5dbAKs8SNAL96cbLKQyVqGgeogoBrA948sEcJONPl+IC+BEYqo8IVtJ0vcpo0An42stQGxEFGdErEIweSCmkvxiOBL9d7APjaIvF+ICWFu6kz1teGRhv3TUxj4VTWkBgdId5vqngjtKbWICx73uGyIKAwWVEc1dPPi4//zNea+f9cELDz/6wVm/+s3qG94+brY++Uzy1+zFHtMe0HCgSAChaJ+SA5GKMwLNgnS8wW0m6MYLkeOwLJiV/eVzUR64+tx37jrh7rrC3bff+8KLx8z85z9TONmUZx6weYAW3N5sTid+p1qEcCWexf19bIQowKSDEcBRST6uQJlqSLNdGXDBo3edVA/ivduvOfc/Z3QMJwe7fyMHeomvHTgNfIy/JDIBiSCfXBwo9cWyA5MHeBoSOZ7IO2dT6D/37gP1znDtNa+/PVPDeNJfylNS1o86vTokQGUFhR2E9bh2oMr/sGxw24SRcgASdDrk4/mfszX7r77+7m/r+4X7rn5xRtSCjz3+NfJ3+Ys93b7DvHyuR16q7rE/JUDUA4MmxLHX4RBkNIA6yBuzM/1fvPNe/QDw3jW/6f5Ynoh0Gz6PUx336lZSAFcOF/06XKcA6A3spvgiV4AkCGcBCtys3NNyWIc06U+zMf3n3VY/YNz4cJfVwtd2kFCSVVag6vQbCqhhsl/Q9VWmEalmwqkSGg4GeLYy4irS/APCrGg9mgWquA/+XD843PZ6N4fzEVOSPXm7MPUjsxJizd1X4rzTKSCh0gNUYOzXFyIfV5HkH8BpTDMeDLrgivrB46Q/dk8MPEN4llGjX1WvE2ATiTy5AZ0SB+4dHh5OZmV4eHiPoiLaMzw8rIfjExh+DUBKkhkOBx9zS707WHXv37o0pJcibwkg6N0RYNuGDEGscljq3o7M0azCu3t6eobbv/X09HylMoq+6unpyYczrB3MmIQYqjPu45UzO/+PPlDvHq65oRtDOnqlVNBVnC/YEExwdsgYPGcVEAp9RKwvAWf1SxZA67dkAYgl114A6Wf81KPrAUiPRNUwiGKD1i2nzej2v73eVay6twtL4E7p3/OU5hDu1S3aCnFLu6wqG1QQF5+dLoAolQDSeVgsgH990/6N1QxQpGmHWXMjmB8cRdFMZgU/d1K92+jCEnjGrQhC/nNkl6NkXSozxhW/TxygEMqOgHQB7FPZRckCaN3+cyELvIdT5GoIgEkof/L3M+f2u7c+E1j1x6sOWgXQSXXuYU268w5ni4tD1UJiz7E4gNdWSDd59lsqAYSakA+utVJCTseA+NFBjI0z5vm5sT5DOOmFg1cBIlBCj8J6voCtryafyNMUXAf/YEvB5B1SCUCenmDtBYC6DwvaYSmO9EsxRY/PlPF3Un3mcON5Bz6wh7RGjDpwecJsLKguG3Irpz1mHgF5BOJjCh0AZhLszo4AJ2XAfTtQRhC51YdsJDPEEnXeA/UZxV8POEhwMdiSjjENGD2IPDzevraCytaOh//1Y27EOxcUlj9XKRIJwHuCObVDxQLwUZf6y5MVQ/lTMzL/t66qzzBuXH2AQ3vfG1gjXa/nuuFwFz+Ydcft8u++7mnjmx+G3Tzi4Z+Sp7/9Mb009wNQaga236R189etLZ1aAcM9OQ5AC1A+SLpnRqz/+izg7wecD+zPoZP1emip8Na90g8gja04/rqYsZ6f8tW396vi2a/3tJ/7OfUDuFZANv+FHwAtgOR8R1yFwRLn9jObZ8L3X58VnPDFAYztKB3iC9L5Y90e1t/Dtt/Unv+v9321rz1n36fP7/mmLRO+2pf83OvxAzjzDySAQ1TEcpmKYcKCJ6bmLJ4J878+S3jgg/0f3O+4T0wb9R4mAGi+exzurhrxXU9Pzw9726dKa4J79rRva0/stz+2nh7+Ntvvyg8Qp/NP3BPYXinkVQFU3iCiNs0Fwgz4gc6rzx5u22+fwIZQn2UClBwUyTp+xvblbymc/L6vp+fbONmf9H0iAojaU/h1+vTeb1LRny+ARAcozv/8nRLrv1ACwwc+cnCqiuH3uz7/f/jtLC6A+p/3Vxd8IpRFHw7wkpOgn73UN9rbO0Ux6OOb/t6a83T+KW5Jg/ZrrV2/J3v6x0Q5yCRA3L5pH0XO/m+901e59Z9JgAAbiLelgMRb3Z7/v91dn12cu3/jW4dmWfTyCsfcizkeHBtotDBKQBynv3/T0/NtNtO0Z0/y5J7WlOfP0jc93/5USIAsGOSc/23sY0eA5Ct2wo9497N6g2KUXW8cd3t9tnHL/rgEXiGe1iOolYhARY6nEGdyopGhz68Z/JDrAM7KaZ0F/yoWwN7kea4DtOd/n/NeRTAoWwCqPjACzU0JElLmMqvbVuDD9dnH7a/uR0kI38MBElBJ1MxD6X1DI40CQx4nYRS15XtPz7ff/8t9+9Zm1kz+fAG0rYa9zi5WEsAXhnISFn0cw8UB95cuV3ysmoMFUD+h8wTyj0NFQLxnmIfvI6ZocKq3wTCiNl8RL/gpM9p++G5v5B7n4Whggn2OYpHc1HrP3fB2mGnMchGBlXNylzO/b6zPCW7sOFnocZnex2LqVJ5WQ83J8YZCPyz7TU6V3Y7H58fkhW+VGt8SOcwTmOK74j33JRlBSgcQJf+6/Rlhsoo2uswSeG99jvDvf+hwhL8vKwP1FOpne2eaif4cY57ioSTXb/e3+YR+FWc7XDf5YkpgT89Pw5mLqEwHIEUDFk5FdD63u0Sxq+tzhvc6NAdPk0WBnlB+rEN5rV8mGxhTukaX7cC93/3wTSoEUtOgR1fz8iPgJ6Ifco9gpjh4dADtp1ANC9xsROdzz+zqArhv7hZA/YHzOjUCnEQsUBekM/tdiLN/aDBdEeNafKhE4j3ftwXBcBR1ogN83ZrR1kLZTUpx2J1rA2XOzEI+aIr6No7u5vyfVZ9LrOqkduANkQdMfrYdROAlBMAERdFUtgBErq9sINDeoi3LbncUtbf2cPEpP37183ex8ATua93wr7bzOH2LRAeIMwngjp23JdEOSm+bspe7mgJ2bX1ucWv5GJ9C3CrAmgZ0a61/XACMNFvOoFwC5Je6W3P4+33fFFPdOtW/oiRAsLtwSPyQWIXCE9jCD6ksiFhaOMsH8Lcz9XCNEBWekBO7uQB+PcfzX1/1XCfZIH7+Xsgb6F4rBMBk++UB5wjQ1QItN8DP+St70njg3pZrID9q4vajwhMYFQsgOQSQJ3CPpyZRpDTB2qLC+ulmNsjbD9TnHKV6wIneXh+A4Uc1B+ACYCC5a7xYALx2qP1ob6rJx7mv77vWy/uKeU38gt8pT2Bip36XRhBjElbAcDCAoamBY9TdpKvJAA/P/fzXH7igZJBrVBG+aADobcsVR7RL2P7JNzuULADVSyTVun5KEz4oFQffxJkoyCRDa/6/jSOkAxC1l8rX7eXIJcAPcSuq7OtPSp6Kc/HCGV2c/3+7tgILoH53SQXh9ZA3L8C241YOaQHQwkRqBjriwt1m7WBvz9e7d//8fTs15EfK0wR6vv3+5+8K0wBKgCRYvDsqTIc41Q1zRdDTQDj2tSpxnvy0m1mA9Urgvn8LjnJxcJeLhhoitX+X1ACStxkv/ADIgUh7vnFSwtqi3okRpMmCPzp+gLQ2MFsA+SGQ6gBtMZM6lvbCAAY39iPm6BT1RKd2cQFcUY0FUL8lNMjNnlY6au8g1XqAzX9vNtNyAaiegHt/Klz7ewqivuF9zrPu0U7EFkB6CLDawD3JChhGVNAwVxm2PYiis7s3/y/Wq4JQfsBFnlY6MSbgYuKi3+P7600e8UaCPOc8/nH3D/t+2P3dXm6s79m9b9++fbszfZ54eXgRLB5Onk/Kw9N32PPj7t3De702TbhNSYZu1oXeUpkF8EAgLPAlebiBCAdWY6cnwBBfAM3szvajaQ/dOIs8IaJhwp2H/BANR9T+xrnKuAPK9i46gR6ozAKoX+FPEDkV7HJE6a1MA0odPoUTMLt8UGeEOEGETjcnLlAOX4ipiQixg8Ui4JVe3EWS2F/VK4R7vcN8jFjDLKEQCCZd/lWP8gUwnb3PdPuhrwwQ0A8SBZqFxuRn/IopQD3i62SqJVPR+nzxXw7FEyDoD7pO+slQRQihndUcUSqgszDGg+4E3ZZUeOtzlyPyRbIKhljH92NNEkoBKeL8eZd00QnwXqUWwI3bPOM8B3MBhg7gdAMJL/Bo7iAYT1LCAMMs5+hGjTu4EEJ9ytG78iHzD5ZFysHKoEcO0ROgXq+/UOIIhDl0uh2Hs5FEHHgwD642hBXIuD0BZzduNRaoNoQ6BKxajyNMHASaH7bf5KjuLYC/VmwBnORJEtwqPWIxah0EiKGm+fwP5N9zf+YV9p25niYjfnZQwklJun4Rjh8RB0Wg/zFRdEcXjcATKrYAfHrgaZFu3C13FODSjKMJmQGWXTia2oTgKMakA3FYmZe+SKEBIA4jRB7u4ytyn9nQxVzQVVVbAKtw3egW4BD30ei7R6ywARuD+Y29WVgAkjS7rN3KEHcy8wB7MGhj4uER7aRXAKqA6qIb8Lx65XAXHKgvKub1BKQPxhoyDpS+1lcIBG8+oWIE408QVwJDTYPdvQ/bFbON7xQrK7KiOOrqCfDr6i2A+ouejECkBEjyLmcDQhVwLL9yVLqBiJRe7o3NdujpibHKQLzCCeT8aY4D18exqYsL4LYKLoD7PLEgUCErmoPqnl4iDJBNeBYI6O2k2UeZP1CW7enKft1vWOX8KBpSIvItrm7mgtxdwQVQBzTzN4Vtfky7SyoMkHuBqD91CqA2k3GYxYv7BnjWLnZGktM02NehjDeqDnk61ndx/q+q4vzX3/UEAwmUAUQ+67n9mvACtiY8fWUicwt7nPLCCaAyhaHk5tZ87OV/9B4e+k9zOc3S8XWzKnh1JRfAKp0c9DmJozD7BXbtyneWrAaZzjbsYFYY6DjnVVdvyD+AZQViKAl0E44Ceb+RFhbk+jhW/o/aoesHTHE1pIeJZCdW5VRXx/OAWAD5/E6lbkDZHUyY/CVaABEI6AiHIucmjjnBuUr68ZUIO39aV4lBXqjmAjhJZYddHtIBXEcg21PSCTAh/MODnl0tuUGVEkBeTi9E7iNYSF3+QAq3G0Pdij/q5gJ4p5oLoH4WWACBDn4+loDRBnADtl6bLLgBMLmAsPkdz47zdKxZSb06AGgBjUtZpMUg37K7HPF3VXQB3C6DgqejDYaYNJkjoBe5AaM8S7ifx+c9TDGBBBCS6UcwcNBBypBoWaBoDp1QYXf5YW+v6AKo/wEvAOX3l/UB7Gvra2gj0CkUHIhka5AIMZHvR4BP1COqbABVy1gM3RUgqu+QYwqsPKqrC+C+qi6AP8oFQCXN9NB2lSfAEAsDJPVhHsPbzdvTWkCh8yN3DfAsCJ7XmFmR0PxH9AfUfYr4K6q6AK5VEoA89J/IJZf+kyfAZHr9ZCoPdFOeWDX1E24AilAHaQ9zASQrL8kOLMsteKi7C+DPVV0A0ht4IcgFjIBrzXUEyBOgMZhOYC4A3LJ83S6ISg14JglkuK+vv7+/D/cwjKL+/v5+1Hq89VzfoCY4y2IgnVSELVvqef6IeeIJbuMdoANwUe+U72N3A1QUIAAAGMhJREFU/mgD+4En3UcU6hvYnJ4aT1bL+NDkIBPmcYQsz3Q0zcmcjmZissllV+vOyd62CkKaKKB/on3j+GAk4oFRNNkeypLQ1C9d9snOw9AlR6w4rPW2S3YeLl54rz5PzoDTI0gDrM5Kd0/1AhUgiil1D0+H9fGYmmPCjTTU70tF4Du5n1NRjeziNGaUvj6mXZd9vW79Kv8j02Hv9Mz9Ecs++cdlya3Hq63/fDEa8WK9ulgtPYGoj5aiBXHCAeoEmEwuSATDuHAfyo6Bg4hSarQJew4wI2CyV9020XTMjcEJSFEpSxgH5CJL5dkyMPfHfvL8EudWscsPf54Nhq+g31Z3AfyaDfTO4sAnn63uVt4Q0WgDegHSddEn3YdMBWiOYkap3sEi9Y9bAekjMP2t2Wxm4yreuFc5CSZR4DrTAVKn5pHgaBcfxi9ZerwczLHzQweo387+jocC0TaZ2O+JA6Sx//E8LOjXuKdHPJRijYEmyRx+xxXQN+65LfVBN6dGnMCk6yTQEqufp7aNe8R7rXaK+KxFbHVcpsbCVIRrK3wGXIWigdr1xnyDzp6ScYCWCkCUUkWMNEEQLj/8iySC3okpcRSME7Tu29PLxUbv6NTUaG9RjiROh2mRi9TslSWsbtrQGBbvrQNA/p2urr8CrcblzgU3VngBPCeIgt3D2lMSmifrxcVXxgMBrgbI3qlwA/TloqO3vQubPKlkly+HqI/N4Hg/uTmJvc24f0BT1AZslunIJTdPV+FhWgDsFPc5lyzdCcXRKVVOCvc5A9+A5rnPy9764iYaKBtsPJfITsZfJk/aT/SNMKtBHSa9IILX+h9bcCOTUrMbHZeHAtcAlMDqd//G7OYV2vJbIu4rLll6GD6P3DPgvyu8AFhq4GcR0L8BL0gB9Xe3Xk9maWTQXwAy7c5/YrbTNNbOHB6SqMnW20ifM9gJOAu7hAYwhFXW5AOGkHj3CPn8ksMv8ykyla0MFXlBblLA2eSc+7GoFHb9eNmempZ/9XhLuisXgJQhhSY+5Hh/Ab8El0XNATX/uYTpg5PQ5MkMSgCMoEH9Q58Al/lOgMOXNDpYAH+s8AJg3uDNvBkrqxSGZXWjiBN4IJW+IKVHauIDTedEGRArSUb1+kaUjHAchsgyHBCH1pS2G/JP6YPqW4JjG54TIDD/jYoRxHnh1oleSp56POjMIyJpBLa2/VBmARBuzkHORPa5bz7OFwCv/CUS8z8pxjkBOcq5DtALLsjcg/m7L1laqgJmJ8DywPwvqQxHcAlu4ZVB4KSXRLqFX24QyNxJpl1lcsSRJ04O8RTLQJILgDsQxPxPSMfCFJiEPje4CLyWmQrA3l27gZc28AmwvBHAL5w3uKDKC+AK90/dESLT0Nn4u5QPL/uSp/y52gOcS7jwxo/DxML0RTH/I02erBQTWAC9Ql6NeS+Y9PnwsAp4PJv/IxctB5aAu47ervICqLuMQetk9R/pyIADpVRPpKb0uCfYzhXxKb5AlDLhjKA5oOz3mGeHgAUwKtbgBLyAYuaDOLJcBUwcRen8L1mBlARhS/52vmiB1wPvD6AHzU5WdaaODuT7M4aJuK6xN9Lk2oVyKDmfOiCNDcX++X/0HEwLL8C4PiJaMYf/16t3N4vzwOM9ffawI+AhIbyJ91V5Abgk8i+VJNYwSi1tVTV6c92O1doWibhuEdEoT+TrFxQjMRYbovjQv70bI7K5pTYSiKLp8cDEtXE8ku6p/n/KUhgqkhkF91Z5Abj1IZfwgl3VMYxCtCBQQY94m94JNYt51t6oCinkKsA0yjkQ+um4LzZUCCxlAzT7R3v9Pt4MS4CbP53/7KBfHvQE12rnVnkBuDWCV8KUepbEF3Cs59Oj24Sn7zQNVbTksgHkom3fJ2sP28q7/Ixx/zrMBIGcbBSNXFHuBGgslfOvYoXyfeaNGfCW4thzk/El5zYOyw7IyntHjvSKbexUAvfrzZvdOKG3thNjSD9rBLkBS3QAgCPKnQBHZqGBnX4hId7nuEqbAS5RpLTZCObyp2c3zuZo6vYb0Faf5h6GAfYergkyqSM4os4X6iPjKpN9snz+T+ngBNiZxn92BoTEkfOlMqAFp0r4ER/TZiEPioJR6H4f6Qs04hsBfvrUjh8TOl5hgqgDYBwVEO1qwMB0idUSjOLXPPrdCjn/WkgoW6LS0YDVLCeMFQU7EUFd2rMLfYP9oozYbRU4KXT0IsmH+3knmQY55QvhsroirY8MSr7BKOpHp37vODveS22AxmUqI2BJ2Ais1WrPVXkBPMfjwT6aMNV1Y9RjABDrzkNYA2jHDYvc4F49/76co17J7E2EzvfevLzY0UH61AoYmBx0ngOBQE+4/zBnqSwvPQFqx8yTcNBR6vAHZUFZNtC4r0GopxRnGptyrRxeRwEY6eeOxyHchVboJk3sBlTlCINs0AOjg1zFPLY8FyydYVdUPF96AlS4Okw4AlYG6gIkZcQIMABhRX+6E4f0Wkmucfdlbx93Qg76AziutNoF3ICYSSxbhgNDk4MUEbM+QLHHChzqOzy8RpQ3advVFV4ALmvoGREuwwfJQM0GTghlDACOx74JDwuKo6kRVRNQrLapUIw/owcFqWkNUP/pENeNNFGIeGd5NjCY4OPLT4Ba7TfzxBN0PvD9Sx9guu36Gx7tzNNpdFpenLyPm8XZ2y96CkVazMgYf/sTmsgNGGvmgDhzKmZ6ZjzVCJ4AtcvKbYXLOjgBattOmh+1ARtRBi/3AWYOfC11+1EFUS43hpQx367Sc07/qaYidJxsoNpTkg0FdjV8moLgknWile2/jdmYqNwPzf+iEk8h8CbVatfMD1fgs7huHvHt6/hrv4/tAxnhrc0+OS6n393+McrzGYAFSxONBg4XSRVgwPElt24fbYRPADC78rJTgrkgVWcKa+HPoGkQqpt3qX2Qet5oRp5mAshV1z/tFoMk089S0tv/H/HH+B3lZDCUC+Jyno4KY2WwUXICHA8MwJJ0IeRNql7PEBd3u7VBRRGN6vMnQoTjSO9yyYM4rUB/wP/WO9bEpQfTyNEQk/RMDnlUAMkdNFlIkeTpoUb4BKj9QhsAR5SZCUswc0B1z4BVziifVDT+0guUB/fRAoAUTsk7Tnmnf6gf0Pj6/Ht9rDsARYipNFMBpBcg9V0nBQs6pxHVhC8pUQCQo2jnvKGMz+CWBix2K3nIkxbc1u71TFKI33vCs/kT2c8IfShnCRwPJPIXUzvVCKsAqSDI3A3T+dNDZZJ7aen2BlrisvnEGN2GWyD6cuQj1SzK/JPH+NyV/bzyvY1isQNjg5CKIHdDoBCfUgGAAGgAEqgsrXC0MAlkmL+DSNDxpY6iI33MItX1Bbmkwe+TrzCQShKsGuOseIhrAaCEIJl9lXTmnjiD+DMEYRGI8o5rL0A2/4UCIA4YkAsEvPyHl54Ai3wL4IbKLoAvtB0o+PSBUaB9L+M+DjZYujVAgfaBXh1winUHSNIMe1E+sPICDBXpCqlnQ0gOcHTrws8l5X4C5QRYXuW2ETIenBKFMRVeGADptuovF8+OFNFhOKevkGpHkv4f3DSlqYunyrIS3c7GeboCkfQerehg/pWJv6LMSmylD1feFeAmhv+SU/cxCc1IF/txLljM+3mlKgOYysYuXnoYq9Yu6CYdbhwcwVkJXAsdKvyPsSfVfFkH869UgLJkwHb6aOWJIi6o8XggVAGkJdAPNS9y2jwVnkQ0lY0h7ldw0wfbP+BNu5R7H1oXg0IFGOIMVlDBkAsAFn7LA770BFh6mVMm+sE8OALS3pGCmQt09QQLwEf52zcSqN0GZFTtH7vgTVOS8wenpjM1tKAV2OWqG2Nh9Q4X/i4rsxIOA1Kk8Ab++zxYAOeoRADZfTNxsTWB4MVVxLs8DqAxXHecPOdJ4JySnD94bXF1dUDcnAQpB4Jz6yn8Fvt7UckZkZwila8TZ6ThmyAlUMxSw9q/QPnMfQBtZ90urwO46SQdxjwJYcxzzzhsVjIVWgD5/A8x32YzuLmPXVJa9I89xcuAFuF0j6pmQOAGRhRFqCEfsPAasBSHRQIItJMASUFcYcCBpuLccHWA5LqpfqgDpJJq4P8WZCSOXJsOaW++wu8jS1UApEVWvIMkdwTVXikSeinY0GekESJcybZfdvyOTMD6fZVy1rbsAxUczBEwlFof/SgwnfzXN8DIiAJ8As7p/UknRf+obJStkGz+XQfDq5X0B7/K/qrrCaYEsS6+rdfH0akuqgnzbM+BQaStjQyiuEE+ZwNjobqDjGlwZFAvgDzjNE8EH2LcRzFF/9trwBW8b8tLFsCy0Ao5/DDkYKpk/yj+V230dovKpbsvvJdk2hVJgTkZ2EATKY2NxkCfzjkcKwiE0D292aLJcsmmkUXSl3KGFp4h0Zjgyst8dYHLs1eWLDu8xApcFCgKXrYEOhiPqyBr6Ht8iDc7ez4ONPSZhra9s2AK3oWhpofFqTEyLQjIChLwFoEU0vFHpgajuJknE01Bk3Rksi/qG+tl6qn7t6zfhkZz2fM7n3czf5ft9wLIzYRPQP1AG7dWbwHcCNqH8ta7MEFoEH2FTsLO2Ah/0qPYj/e7mllxrow3/TFkpni2xlZy0aSMN7z8Sq3sjVuZ3wewAJLSkmWZE/GUpfOggZBsI70DtVkj0UfcV2w7kQjfvtGRYjOmNX6+r3pkYqzV2qN/amJEnuKl5ZwtMUElC2CkX5Q5xOs218oWQJv5Q4V6ji0pHG40Gs+vWLb8+VBuSPVKxW8TI1yD6X2Yc63dkcMzJ+Pj4yNCa9MJmCUYS1SNZsllmRYZqvrMCUXzdOctN9XKFsAvlkIzb1mpBChLD68ib+g1YoAXQ9e8Xg7NkQ5m0qGC7Oj6Qmh4sv2gSRC4bKBPFiisPLP1Vx4ZeuOdHjt//xbAcpwXcMwDFVsAfxcDvEcE6XTX7TBDiK7Qi6OQFqAV/b78nsEO5j9nJ/YuQM52/FT7r/xH4I1X1DpbAMcGlYhjfZkhj1ZsAZxbg0oA4/jPH7Akm7J6+/T0zSlDJzqa/wknQzx4y3Syt31UBbn9wXMZHwkV/SXmX63DBXBESIk43Nt1alvF6ON/JQd4iSwB4C3kCtKv/vBMthV5l8+vOdDJ8V8e7s8syGJv93YggBLG48fKJs813MryPf3nyClLA33HVlc4GNjCx4S6BMWk23eHjuiRMZ3x11fK0ZEe2cUHjpWd//7TJbU/GGfxs0EVXlp6vyhZAL6YwZLl86md+NtyeDeBwgDcRYqGwoLcJfFI3PxhGTAyxdg/27cM+RdKkUOMFMzePp3WtD3kyNeCu2wBLMUi4BdHlHSdfLVKuUHv6fE96GEHiHUjcc+EDvRrspnkfyGhMTQY6S5D8I7RJu8iDETARFMnGlxZosMvWlrbrwUAogGNxpHLS9uOblu9qjoL4AQ9vschRajo0p1m2yBToHfSSxUMW/7l0086FQnJgJFp3eF4AlqSrMyANm4L+nH0xnVT/pacsuLwDhLHlyxa2kk74QqlhryrR/cQTwPiZjRPGY6oXwqBiWlXc+R8gxR5lkDv6KCmFMgqhniDuV6njtjhLBjSEkLQG10SpAD8BajoyYTEkTuX+6Q67xlw5IqOpr9W21adPkJ/B6PbwjKB/fn+yW516nx7J8aaqrDAbTyUNu8ddVfNyPhUX0S4N0HyxOBUvmYmJonlKRW35esqLTeTpYbvv6b+0P+VR/52wgluLYDDjj82OKlH7FySL5NjO+8ofkxl8gPPAqPbCDyAgHAj32FRf//Y1NRk/yBB7QElfjbbt0xNTWc3eaVOIjz6J6danwAIi5xW4q13nBwkwG5GdCWch2M/+cfzn3zis9mXL1rWyWQuW7Ro0aJlR9T2C5VRA1aDwV2ougZFbpqXu7d8YQPwGusAhPlHgdRBTcdBQxNAZ8YePx4Qx7U5QUUayaw6DoztLzs4wVeMmgm5Kn5MunwgJt7Tg7uToChRn6Q4S53sAchmiGqZWv/fUKseqlEtegUc25Uig4ZCe9AhDSC9cznpjyw7FFwiipVO9isn2MWE9Sbnrc+Su2+uVRGVKBa8BQ7tc9QkRLBzqf1KqrVw5CktAFFmvttj0rtfjkh3NGF9xhz7Y/FTlZz/2nFVoI98AY/tNN04hHhOYK4lMI1AnOBOrj8nG9aJRjzcoBiLfQKIvInLuQB68M1aRXFDBZKEL8BD26CPd08XGdLdhpXlL+7K5YCsPorRe7jpiZlk0FqEtCGK39dcWqssLphzU2CVRwXevFLT/ERe4lDea0xU/PJ9rkjHndAjoBjK/ILFIiPdiaDoLyzKGVo/L65VGXNuCtzuG9k5nIeDQKkQo2B0TuOYdLEnOMizJENuzksNoKSNOZczpK5e+/m2Si+AOc8S/rvPNr5Ib/10/6kdDdR+2dHHaRwmW4JrUnqf4UGogSlRHKCmOv/pWtVx1tyeAi96B3Z+QdYlth9JAz6gJvjzSnydRWAiAnISso/IL3KvXnnxtlr1MbfNJPzjuhPRNon+gbFUE6BeIFR+oTA4LyoLsTjTqTw04RCYJFd8+FltXmAuqWPuCozrZbkXuQqgiJhJnPdESOVnTQmdviIEkw7CGkBMUYCX6MSja/MEF8ydNXhuYFgXisYBRBT2Cbp5Al6Vn7z2eyEF0Mku+MFztyOzRxwbZO2XtfmDP8xZxeANoWFtxW4YFBiIcVshrfJj7qGYgL6gBYLbBYh5mjNNpVBZPj2qNp9wzBz5BO8LjuqeWLF3ZtI/5ge7UNBBw2Gp8jMBoQMFvEGRsDdhfDATGu0XT36jNs9w1e1V8gPnaQEkMu9iAsFhuekJs4yHT3hXZnSoAYBYRPJzy6ZttfmHOWETPyY8ps1ruTPPY7wVm155BbRocCID8nbXqPCFG6Vc0b2Moo1P1uYl5iBN8LayMT1FnrbBeNNLFz0/6ZFLICbsHchsBe7Xz6UQ62DKR7f189p8xXmzrgqeVTqmjVLFdjVvsFP1cexG6KFqj8WJPvFdPyN5QhN08u9q8xhv3zW7839t+VH52hrUBto1CPVOlVohV+FiirRv0eP8LzP4WWvCiOj6p2rzHGfdXSEVMIkJPOFL44twlIBFAXC+IFMPWADPl0NIMK1QiJUHT63Nf7w9i7rgn4/rZETbnvEcyWhjKhd9WY6QKAPgn8Iii04QwFUc8je4/pFttUMCv7miOhpAgtPXiiPZzb0DWrjO0KXCewBYgT3iRNKUwirF7Netp9cOHZw7OyUD/93xgDavL9noRNAij3XuLxQgqOLAEwfGGsD6h7bVDiW8+vAsUMrefcx+jOjCk0vUAFcuxJE6A2AfManqS1s/kHHEggwbL6odcnj76pleAld8sX8jOn2r2uhI88/nUVzIryWviy850sV5H7kfTZy45MNN99cOSVz16Ix6Bd59db9H9NFL2guAEwZFr6EioRh0CEJ1APC8VxVJURQtvvLM2iGMW2dMHbz21gMa0Oef7hCp/OHEbFnpK7IFSCkBUam1T04K0PkfX1o7xHHejNQQX/vCcQc6oFdOXe/VAlTDQPLyzDKnv+Id0AkCQMaseeSo2kLAH/7abdfQfWcd3IiO+nj9SrVvZctgfcbjuJ3HShDuflFiGC2+5NRLt9UWDF58p3tr4KR3VndhREc98sTiCPTwRb4Ahx8A5u6gQ8Jx9wsKgIjowe1fvlJbaFj9cFfOgrte796QfnfihyVmus4OZM1EeWPCznwA8e83vVlboHj1vKsPSie84p3nruruiLZtvvDxrUgFcNOF/Rn7Mr6nIvtuUKH1b+tbv3ultpCxrXbMrfceEMfk7Vf/6u0ZGtQrn198ybpINwzUuT6BDN5I+RRFmkC09brLF9KpH5QELz56zX2/7Tje899/PfeCGR/T2Re+df6WoBYg4wbObleqP3F24g/f3/Dl/TbvAn978daH/3rXCd6gwUn3vXv1B+d9MZtDevPU69acoUW9ogFhvp6cwR+Jh8V3fHrz55faZAdxwwW/OuuDR3+d4dEPXn/xgi+OmbPhbPvThRs+XXP9Duno85QTslwwRyqc9vvHb37oSZvd+YtLP7vzkQ2frnl5LXQWYt1w8YMvXXLiho9Pf+Ns+/4OIcX1yV9+fvqpjz27feOaO85Ym2/xxWvXnfHy1pfWP/H+OZ9uf+vZTU99/qad84f6Usj52LYl/5If22qm3RsMBoPBYDAYDAaDwWAwGAwGg8FgMBgMBoPBYDAYDAaDwWAwGAwGg8FgMBgMBoPBYDAYDAaDwWAwGAwGg8FgMBgMBoPBYDAYDAaDwWAwGAwGg8FgMBgMBoPBYDAYDAaDwWAwGAwGg8FgMBgMBoPBYDAYDAaDwWAwGAwGg8FgMBgMBoPBYDAYDAaDwWAwGAwGg8FgMBgMBoPBYDAYDAaDwWAwGAwGg8FgMBgMBoPBYDAYDAaDwWAwGAwGg8FgMBgMBoPBYDAYDAaDwWAwVAL/H7J0QkmpMpO3AAAAAElFTkSuQmCC" vertex="1" parent="1">
          <mxGeometry x="554" y="510.25" width="70" height="70" as="geometry" />
        </mxCell>
        <mxCell id="6JaRcq2dVbDghGMQPrxV-32" value="" style="shape=image;verticalLabelPosition=bottom;verticalAlign=top;imageAspect=0;aspect=fixed;image=data:image/png,iVBORw0KGgoAAAANSUhEUgAAANEAAAEACAMAAAAa8WPjAAAABGdBTUEAALGPC/xhBQAAACBjSFJNAAB6JgAAgIQAAPoAAACA6AAAdTAAAOpgAAA6mAAAF3CculE8AAAAB3RJTUUH5QYKExoKJDg7uQAAAtBQTFRFAAAAAAAAAAAAAAAAAAAAAAAAAAAAAAAAAAAAAAAAAAAAAAAAAAAAAAAAAAAAAAAAAAAAAAAAAAAAAAAAAAAAAAAAAAAAAAAAAAAAAAAAAAAAAAAAAAAAAAAAAAAAAAAAAAAAAAAAAAAAAAAAAAAAAAAAAAAAAAAAAAAAAAAAAAAAAAAAAAAAAAAAAAAAAAAAAAAAAAAAAAAAAAAAAAAAAAAAAAAAAAAAAAAAAAAAAAAAAAAAAAAAAAAAAAAAAAAAAAAAAAAAAAAAAAAAAAAAAAAAAAAAAAAAAAAAAAAAAAAAAAAAAAAAAAAAAAAAAAAAAAAAAAAAAAAAAAAAAAAAAAAAAAAAAAAAAAAAAAAAAAAAAAAAAAAAAAAAAAAAAAAAAAAAAAAAAAAAAAAAAAAAAAAAAAAAAAAAAAAAAAAAAAAAAAAAAAAAAAAAAAAAAAAAAAAAAAAAAAAAAAAAAAAAAAAAAAAAAAAAAAAAAAAAAAAAAAAAAAAAAAAAAAAAAAAAAAAAAAAAAAAAAAAAAAAAAAAAAAAAAAAAAAAAAAAAAAAAAAAAAAAAAAAAAAAAAAAAAAAAAAAAAAAAAAAAAAAAAAAAAAAAAAAAAAAAAAAAAAAAAAAAAAAAAAAAAAAAAAAAAAAAAAAAAAAAAAAAAAAAAAAAAAAAAAAAAAAAAAAAAAAAAAAAAAAAAAAAAAAAAAAAAAAAAAAAAAAAAAAAAAAAAAAAAAAAAAAAAAAAAAAAAAAAAAAAAAAAAAAAAAAAAAAAAAAAAAAAAAAAAAAAAAAAAAAAAAAAAAAAAAAAAAAAAAAAAAAAAAAAAAAAAAAAAAAAAAAAAAAAAAAAAAAAAAAAAAAAAAAAAAAAAAAAAAAAAAAAAAAAAAAAAAAAAAAAAAAAAAAAAAAAAAAAAAAAAAAAAAAAAAAAAAAAAAAAAAAAAAAAAAAAAAAAAAAAAAAAAAAAbpMBgwAAAO90Uk5TAAECAwQFBgcICQoLDA0ODxAREhMUFRYXGBobHB0eHyAhIiMkJSYnKCkqKywtLi8xMjM0NTY3ODk6Ozw9Pj9AQUJDREVGR0hJSktMTU5PUFFSU1VWV1hZW1xeX2BiY2RlZmdoaWprbG1vcHJzdHV2d3h7fX5/gIGCg4SFhoeIiYqLjI2OkJGSk5aXmJmam5ydnp+goaKjpKWmqKmqq6ytrq+wsbKztba3uLm6u7y9vr/AwcLDxMXGx8jJysvMzc7P0NHS09TV1tfY2drb3N3e3+Dh4uPk5ebn6Onq6+zt7u/w8fLz9PX29/j5+vv8/f4pp6uXAAAAAWJLR0TvuLDioQAACghJREFUeNrt3etbFNcZAPCzM8Mud9mFKNcsICo1yi2yqLGCGAQDKhDSRlpjGmxajbkQpCEhGk2TKModrBU19UJoQqRNtFxSIEHbgkQwaIiXKiByW1jY8y/0Ux5tu7Ozszvzzsw+5/3Kw2F+zwxzzvueM+cgxBoqjadW5+evT9wiTGQ86T/fV+flwSBJgp73uCGv5Iv2Pixk3O1qrzmQtcTfDZpD6WI2Ff5lHIsTc/21O1ZHgKI8UvZ1TmAxw3TjbF4EDeVRG97qxuLH8Mcv6GFAi/dcnMYgcfvUFm+AB27rp6NmDBRzvUeWig3yefW7WQwYk5+tFxcU+MF9MwaNma5sFxHf2UvOmjB0mK//VqcSC7S2HUsRU8XBIpGWDWCJoiJMFJD+cyxZVAWLAAooNUknwkeEv0vaogcSgrCxbKHQI5+XvzdLKcLj5RHCipI75rC08aBc0LvkeXAaSx3jZaECitJ7sPRhPCLcGy+4FssiqsIE6mqZnEF5iHCFQKTQOiyXqBQkCaRSh2QjwuVCkLzyrY4jr7ZcECSu21aAKA13XBRUz/4Hhup2pa9cIUiU2XaTJhzvalVx91ibb8oK1wj1Qi208bkbq3CUpN7O2nhNpIAFKFtFeKzcwQfPm/VNVxIiZCZmswhPljr2elhwnyVdro8QNLW0XYRNFXpH/nQAS7MD64QdDBfy6pcc6WqjWYo0b/tIKMKVDqSAmZabvLYZSSnC1fYPW3Mtt9gYJa3IgUS9wHKDh7USi4x2p4AHLDe4l5ZYhMft7WpZRMVIahF+ULHQyUR4vDzMyUTYWBriZCKMq+3oaiUWmUyCjx4kFv2jdYajnKJXmOjQxmYOUoVeWaKPmLRW6w+eqSxcWSLEpLRbn/ud4NnVSi5CzNpLgibq0osQHX+NixSuLBGiVnKQJsv0yhIh2tBtfbpntiJUpSgRop/q5Ohqq8JVihIhen3bjECJukxEiEnl6mqrQ5QlQszGFg5SaZiyRIhJbTNxJOoRyhIhJvlrswCJuoxEiF7dI0CiLicRogzXHE/UZSVC9Mp+66TpsseVJUKUoYtjFWY1V1crMxGiE//O1dVykOQmQkwKV79UFaosEWLSHEvU5SdCTFoLV6K+UFki7kR90lpXK0eRDYl6ZYSyRIheYX+iLk+RI4m6TEWIjudK1CtZEnW5iuxP1GUrQnQyV6JeFa4skQ2Jek2IskQ2jB4sJepyFiFmA1eibqGrlbUIMes6ORL1ykXKEiF6VQ/f0YPMRXYk6nIXITqhj1+iLnsRouK5EvWacEpRIhsS9apHlxgqQGRDov6Rr7JE3F3t1GsuyhIhJpUjUb+z1UGRJio1Z+fD2JGdttzVLtGFnbbF7rMjVrtac0+KI6IFP69t/Vf/3Ydxq6+79eg2nR2iybs2xj0jxwLkpli7RUxKw6CFp3rmVoOBv0i4mDoWZKfI/WeXWR5pU1+GhCI8vNs+kds2K1/TD/6CkU6Ez0fbI6LWWv1Y+0qaSjrRWIGXHSKfC9bLGSeDpBPh9jUq/qJMjkZvvURJJ5rZ48Nf1MTVauV86UT4m1jeovmc3/z9zSChaCZXw1cUM8nV6NV0CUW4bD5fUbaRq82bOVKKehfxFf2a8wP0kVwpRab1NE/RKs6n7kaW5d/cDiLC77rzFEVzbi/WvcHybybCiC778n1793I1WR/JMl4fhSH58xW9z9GgsdidJaMC2mAggq9o+R3rDV56mm1AmHYPRJTKV6Teb/VtN/KOF9vgW1syAyHK5CtSLTplbSrxj+wTvnRMA4RoN+/8iFlRz3qXZk5b+55RnfglgOgA/xzW5YlDYyytleutfv2niTsl/jZLJXbUGajHcjssXdnlZ7k+CqYDdnSLvT/el3bVgij1qvfONQ4/jB+aPy5K8KBsqGGrkz5saB8WIqYsX3gLWAVS8CgmIiIiIiIiIiIiIiIiIiIiIiIiIiIiIiIiIiCRLihB+Ijks/OkoCK3p3aWHm8WPj6pK8rwk0IU/mbbkEg7nBt7ajeooUV0/JkhEXdsn/46TwsrouJaxN2wffbmG/NARUHNom+pf/t5F0CRayXAHFDfGhWcKHYcQIT3auFEx0Cmh6/8BEzkcQNmDv85FyhR5ASMaL8HlGjTFIzosCeUKA/o8JD6eVCidKB7VO0FJTJMOttT5z0CAjI/y4D1RydBRHeWwvWwGyHGDHOHHoMTaU4AiHp/SsGJKEOb6KDbr2khswl1epfY/0TFgbA5rMeWL0Rd+jeYHwiclSPX2H3iHQFlbMzxha+cUD5xu5tEuU/9NWkBtp59I2y9TqX21IoR3u62HzhAaqpERERERERERERERERERERERERERERERERgIp2fCKGRTBSUuG3/70WI17OXuEgh0m6q+IZzdxD74uaZXUvhRfp3e8QrfJuHTz/tAizS/0Hcmcvp1nQGVKQrFXty2dS5gQEUubwh/vz/7JkIQFEYxHYl5l+5wonexxBxaSGYSPNPmBUaSRSUaBHQ2q1CNyhRstOt3fqlEUb0iQ+U6Hkg0QlvKNEap1u75TcOI3rdFUqkagMBjUXD9bAvzEKITgfCidy+AgCNZLnAieiMQdFB44eCILMJz1d+EBk09adlsBmf7yvfivvIHTPQwFm59rnPxHuHz35bsJgGzsoRco3MO/Vvsyig1uIkGxejCVzdcg9aFvui8JH6ZLiWQpKIEEJII3zYvhSNVImJiIiIiIiIiIiIiIiIiIiIiIiIiIiIiIj4iy46negkm2gvLXOQy37LF34AFbBMG2plLvIrt3zhBSjX8g8ao2Quimq0fOG5bAfsXdssc9FmliOyM1E0yyq3t33k/dCxnfETjQJYZgm+S5K1aN11lusOYD0Ny3wuQiVbj2rJeZbZntEFyLuObS6nJESuJFVICdtF13kjNfuxctWR8uyU6CeqWa95uxqp4tjP92rKDNPIzqMJy2xlveJ7cSqEgurZJxGHju96JiEmNFAuERqT8Myu41ZOC60PQgh55Vudir/a3FR3VC5R19R81eoKv3wvhBCVynlCqmJiKJVCCKHQE04jOhqCEEKIyRl0EtDgjxuQBdc6iag2+McXYsYVpwBdeXgAvOfBaScATR98ZClocsec4kGzXyU/0g+rX/7erHCQ+fqL/7WNtrbogcJFo2/+Tx0hoNSkaJDpw//bllB/XtGizy0sBF02oGDQgKWFoNTaDuWCki0uy6Mizynzf8nUvJrtw7/AD+4r7yU+N3JYz54f+rw6MKu0G9TzG6t1OI+tn44qCjTWlMV1PsXiPReVM8ibvlgUx12ZUBve6lKIp+13BtsOEPFYt69zQvaeidb8Ve62FpAoXcymwj/LeaQ3/td3sqO8eVVI6Xkh8TsON3T0GuWG6e/oOPLScr0PY0ctVuPpo/Pz1ydlyieS9P5+Op2ntbrofwDadXJQtzKaTAAAACV0RVh0ZGF0ZTpjcmVhdGUAMjAyMS0wNi0xMFQxOToyNjoxMCswMDowMIKM4OQAAAAldEVYdGRhdGU6bW9kaWZ5ADIwMjEtMDYtMTBUMTk6MjY6MTArMDA6MDDz0VhYAAAAAElFTkSuQmCC" vertex="1" parent="1">
          <mxGeometry x="249.62" y="389.76" width="67.77" height="83" as="geometry" />
        </mxCell>
      </root>
    </mxGraphModel>
  </diagram>
</mxfile>
